{
.appVersion = "1342";
copyright = "Copyright 2021 The Yuji Project Authors (https://github.com/Kinutafontfactory/Yuji)";
customParameters = (
{
name = panose;
value = (
2,
11,
6,
0,
0,
0,
0,
0,
0,
0
);
},
{
name = fsType;
value = (
);
},
{
name = localizedDesigner;
value = "Japanese;片岡佑之";
},
{
name = license;
value = "This Font Software is licensed under the SIL Open Font License, Version 1.1. This license is available with a FAQ at: https://scripts.sil.org/OFL";
},
{
name = licenseURL;
value = "https://scripts.sil.org/OFL";
},
{
name = vendorID;
value = UFDN;
},
{
name = localizedFamilyName;
value = "Japanese;佑字 変体仮名 曙";
}
);
date = "2020-12-04 07:20:24 +0000";
designer = "Kataoka Yuji";
disablesAutomaticAlignment = 1;
familyName = "Yuji Hentaigana Akebono";
featurePrefixes = (
{
automatic = 1;
code = "languagesystem DFLT dflt;\012";
name = Languagesystems;
}
);
features = (
{
automatic = 1;
code = "feature sups;\012feature frac;\012feature ordn;\012feature zero;\012feature vert;\012feature vkna;\012feature vrt2;\012";
name = aalt;
},
{
automatic = 1;
code = "lookup ccmp_Other_1 {\012	@CombiningTopAccents = [acutecomb brevecomb caroncomb dieresiscomb dotaccentcomb hungarumlautcomb];\012	@CombiningNonTopAccents = [ogonekcomb];\012	sub [i]' @CombiningTopAccents by [idotless];\012	sub [i]' @CombiningNonTopAccents @CombiningTopAccents by [idotless];\012} ccmp_Other_1;\012";
name = ccmp;
},
{
automatic = 1;
code = "sub one by onesuperior;\012sub two by twosuperior;\012sub three by threesuperior;\012";
name = sups;
},
{
automatic = 1;
code = "sub one slash four by onequarter;\012sub one slash two by onehalf;\012sub three slash four by threequarters;\012";
name = frac;
},
{
automatic = 1;
code = "sub [zero one two three four five six seven eight nine] [A a]' by ordfeminine;\012sub [zero one two three four five six seven eight nine] [O o]' by ordmasculine;\012";
name = ordn;
},
{
automatic = 1;
code = "lookupflag IgnoreMarks;\012sub f i by fi;\012sub f l by fl;\012";

glyphs = (
{
glyphname = "a-hira";
lastChange = "2020-12-04 08:03:05 +0000";
layers = (
{
hints = (
{
horizontal = 1;
place = "{62, 9}";
type = Stem;
},
{
horizontal = 1;
place = "{615, 81}";
type = Stem;
},
{
place = "{172, 73}";
type = Stem;
},
{
place = "{635, 7}";
type = Stem;
},
{
place = "{811, 56}";
type = Stem;
},
{
place = "{208, 72}";
type = Stem;
}
);
layerId = "F065C3D4-A6F6-48F7-ABC0-534A710C84EA";
paths = (
{
closed = 1;
nodes = (
"260 20 OFFCURVE",
"271 22 OFFCURVE",
"280 27 CURVE",
"285 161 OFFCURVE",
"307 273 OFFCURVE",
"344 362 CURVE",
"334 351 OFFCURVE",
"327 342 OFFCURVE",
"323 336 CURVE SMOOTH",
"313 321 OFFCURVE",
"300 296 OFFCURVE",
"285 261 CURVE SMOOTH",
"270 226 OFFCURVE",
"257 200 OFFCURVE",
"246 185 CURVE",
"245 225 OFFCURVE",
"245 255 OFFCURVE",
"245 274 CURVE SMOOTH",
"245 432 OFFCURVE",
"269 537 OFFCURVE",
"317 588 CURVE",
"321 589 OFFCURVE",
"327 602 OFFCURVE",
"338 599 CURVE",
"339 602 OFFCURVE",
"340 605 OFFCURVE",
"340 608 CURVE SMOOTH",
"340 617 OFFCURVE",
"329 635 OFFCURVE",
"329 639 CURVE SMOOTH",
"329 640 OFFCURVE",
"329 642 OFFCURVE",
"330 643 CURVE",
"308 661 OFFCURVE",
"285 670 OFFCURVE",
"262 670 CURVE SMOOTH",
"253 670 OFFCURVE",
"245 669 OFFCURVE",
"236 666 CURVE",
"222 655 OFFCURVE",
"194 643 OFFCURVE",
"151 630 CURVE SMOOTH",
"111 618 OFFCURVE",
"84 605 OFFCURVE",
"70 591 CURVE",
"67 583 OFFCURVE",
"81 580 OFFCURVE",
"80 572 CURVE",
"107 561 OFFCURVE",
"146 552 OFFCURVE",
"195 544 CURVE",
"180 468 OFFCURVE",
"172 382 OFFCURVE",
"172 286 CURVE SMOOTH",
"172 263 OFFCURVE",
"172 229 OFFCURVE",
"173 186 CURVE SMOOTH",
"174 140 OFFCURVE",
"175 106 OFFCURVE",
"175 83 CURVE",
"188 64 OFFCURVE",
"197 50 OFFCURVE",
"202 40 CURVE",
"208 46 LINE",
"212 29 OFFCURVE",
"226 20 OFFCURVE",
"249 20 CURVE SMOOTH"
);
},
{
closed = 1;
nodes = (
"557 27 OFFCURVE",
"577 34 OFFCURVE",
"584 43 CURVE",
"587 40 OFFCURVE",
"591 39 OFFCURVE",
"598 40 CURVE SMOOTH",
"604 40 OFFCURVE",
"607 41 OFFCURVE",
"608 43 CURVE",
"603 47 OFFCURVE",
"605 59 OFFCURVE",
"601 60 CURVE",
"567 44 OFFCURVE",
"541 31 OFFCURVE",
"523 22 CURVE"
);
},
{
closed = 1;
nodes = (
"645 67 OFFCURVE",
"639 68 OFFCURVE",
"636 71 CURVE",
"639 72 OFFCURVE",
"643 74 OFFCURVE",
"648 79 CURVE SMOOTH",
"651 83 OFFCURVE",
"656 84 OFFCURVE",
"663 83 CURVE",
"663 77 OFFCURVE",
"659 73 OFFCURVE",
"652 70 CURVE SMOOTH"
);
},
{
closed = 1;
nodes = (
"632 42 OFFCURVE",
"650 48 OFFCURVE",
"673 62 CURVE SMOOTH",
"696 77 OFFCURVE",
"715 83 OFFCURVE",
"730 80 CURVE",
"730 87 OFFCURVE",
"746 90 OFFCURVE",
"747 97 CURVE",
"764 96 OFFCURVE",
"780 107 OFFCURVE",
"796 128 CURVE SMOOTH",
"815 152 OFFCURVE",
"829 165 OFFCURVE",
"838 168 CURVE",
"841 189 OFFCURVE",
"849 200 OFFCURVE",
"863 202 CURVE",
"866 209 OFFCURVE",
"867 217 OFFCURVE",
"867 225 CURVE SMOOTH",
"867 232 OFFCURVE",
"865 244 OFFCURVE",
"865 248 CURVE SMOOTH",
"865 258 OFFCURVE",
"869 265 OFFCURVE",
"876 270 CURVE",
"871 277 OFFCURVE",
"866 281 OFFCURVE",
"863 284 CURVE",
"871 293 OFFCURVE",
"868 316 OFFCURVE",
"876 321 CURVE",
"866 334 OFFCURVE",
"858 343 OFFCURVE",
"852 348 CURVE",
"833 412 OFFCURVE",
"767 446 OFFCURVE",
"653 450 CURVE",
"648 453 OFFCURVE",
"643 461 OFFCURVE",
"639 473 CURVE",
"635 470 OFFCURVE",
"627 460 OFFCURVE",
"619 460 CURVE",
"620 441 OFFCURVE",
"604 416 OFFCURVE",
"569 385 CURVE SMOOTH",
"535 354 OFFCURVE",
"519 327 OFFCURVE",
"520 304 CURVE SMOOTH",
"521 288 OFFCURVE",
"528 271 OFFCURVE",
"543 252 CURVE SMOOTH",
"558 234 OFFCURVE",
"574 225 OFFCURVE",
"589 226 CURVE",
"598 211 OFFCURVE",
"609 207 OFFCURVE",
"622 212 CURVE",
"627 218 OFFCURVE",
"634 228 OFFCURVE",
"641 243 CURVE SMOOTH",
"646 255 OFFCURVE",
"652 263 OFFCURVE",
"659 267 CURVE",
"659 296 OFFCURVE",
"675 339 OFFCURVE",
"676 358 CURVE",
"695 372 OFFCURVE",
"712 379 OFFCURVE",
"729 379 CURVE SMOOTH",
"766 379 OFFCURVE",
"783 343 OFFCURVE",
"778 304 CURVE",
"781 312 OFFCURVE",
"784 316 OFFCURVE",
"786 316 CURVE SMOOTH",
"787 316 OFFCURVE",
"787 315 OFFCURVE",
"788 314 CURVE",
"785 309 OFFCURVE",
"781 295 OFFCURVE",
"778 274 CURVE SMOOTH",
"775 257 OFFCURVE",
"768 246 OFFCURVE",
"758 240 CURVE",
"749 208 OFFCURVE",
"731 179 OFFCURVE",
"705 152 CURVE SMOOTH",
"691 137 OFFCURVE",
"665 116 OFFCURVE",
"628 87 CURVE",
"625 75 OFFCURVE",
"610 72 OFFCURVE",
"605 63 CURVE",
"606 59 OFFCURVE",
"608 57 OFFCURVE",
"611 57 CURVE SMOOTH",
"612 57 OFFCURVE",
"615 59 OFFCURVE",
"622 62 CURVE SMOOTH",
"626 64 OFFCURVE",
"629 63 OFFCURVE",
"632 60 CURVE",
"623 53 OFFCURVE",
"619 47 OFFCURVE",
"619 43 CURVE"
);
},
{
closed = 1;
nodes = (
"791 152 OFFCURVE",
"792 158 OFFCURVE",
"794 162 CURVE",
"801 161 OFFCURVE",
"804 162 OFFCURVE",
"805 165 CURVE",
"810 164 OFFCURVE",
"812 160 OFFCURVE",
"811 151 CURVE",
"801 150 OFFCURVE",
"794 148 OFFCURVE",
"791 145 CURVE"
);
},
{
closed = 1;
nodes = (
"566 580 OFFCURVE",
"600 586 OFFCURVE",
"642 599 CURVE",
"637 594 OFFCURVE",
"635 589 OFFCURVE",
"635 586 CURVE SMOOTH",
"635 583 OFFCURVE",
"637 582 OFFCURVE",
"642 582 CURVE",
"660 600 OFFCURVE",
"691 611 OFFCURVE",
"734 615 CURVE SMOOTH",
"804 621 OFFCURVE",
"842 625 OFFCURVE",
"849 626 CURVE",
"850 629 OFFCURVE",
"851 632 OFFCURVE",
"851 635 CURVE SMOOTH",
"851 641 OFFCURVE",
"846 648 OFFCURVE",
"836 657 CURVE SMOOTH",
"826 666 OFFCURVE",
"820 674 OFFCURVE",
"818 680 CURVE",
"800 691 OFFCURVE",
"776 696 OFFCURVE",
"746 696 CURVE SMOOTH",
"710 696 OFFCURVE",
"651 685 OFFCURVE",
"568 663 CURVE SMOOTH",
"505 646 OFFCURVE",
"469 626 OFFCURVE",
"459 602 CURVE",
"482 587 OFFCURVE",
"509 580 OFFCURVE",
"540 580 CURVE SMOOTH"
);
}
);
vertWidth = 1000;
width = 1000;
}
);
note = cid00843;
unicode = 3042;
},
{
glyphname = "i-hira";
lastChange = "2020-12-04 08:03:05 +0000";
layers = (
{
hints = (
{
horizontal = 1;
place = "{-18, 9}";
type = Stem;
},
{
horizontal = 1;
place = "{113, 8}";
type = Stem;
},
{
horizontal = 1;
place = "{402, 18}";
type = Stem;
},
{
horizontal = 1;
place = "{491, 18}";
type = Stem;
},
{
horizontal = 1;
place = "{584, 77}";
type = Stem;
},
{
place = "{207, 7}";
type = Stem;
},
{
place = "{607, 15}";
type = Stem;
},
{
horizontal = 1;
place = "{-4, 8}";
type = Stem;
},
{
place = "{649, 84}";
type = Stem;
},
{
horizontal = 1;
place = "{19, 8}";
type = Stem;
},
{
place = "{147, 25}";
type = Stem;
}
);
layerId = "F065C3D4-A6F6-48F7-ABC0-534A710C84EA";
paths = (
{
closed = 1;
nodes = (
"588 -17 OFFCURVE",
"595 -15 OFFCURVE",
"608 -14 CURVE SMOOTH",
"617 -13 OFFCURVE",
"622 -11 OFFCURVE",
"622 -8 CURVE SMOOTH",
"622 -7 OFFCURVE",
"621 -5 OFFCURVE",
"620 -4 CURVE",
"609 -11 OFFCURVE",
"602 -11 OFFCURVE",
"599 -4 CURVE",
"599 5 OFFCURVE",
"603 10 OFFCURVE",
"611 10 CURVE SMOOTH",
"615 10 OFFCURVE",
"618 8 OFFCURVE",
"620 4 CURVE",
"611 4 OFFCURVE",
"607 2 OFFCURVE",
"607 -1 CURVE SMOOTH",
"607 -2 OFFCURVE",
"609 -3 OFFCURVE",
"612 -4 CURVE",
"613 -1 OFFCURVE",
"615 0 OFFCURVE",
"617 0 CURVE SMOOTH",
"621 0 OFFCURVE",
"630 -7 OFFCURVE",
"631 -7 CURVE",
"636 -5 OFFCURVE",
"641 1 OFFCURVE",
"647 11 CURVE SMOOTH",
"653 21 OFFCURVE",
"658 26 OFFCURVE",
"663 25 CURVE",
"662 38 OFFCURVE",
"665 46 OFFCURVE",
"673 50 CURVE",
"664 50 OFFCURVE",
"660 51 OFFCURVE",
"659 54 CURVE",
"668 57 OFFCURVE",
"674 57 OFFCURVE",
"677 54 CURVE",
"685 71 OFFCURVE",
"696 90 OFFCURVE",
"696 105 CURVE SMOOTH",
"696 108 OFFCURVE",
"696 111 OFFCURVE",
"695 114 CURVE",
"698 112 OFFCURVE",
"702 112 OFFCURVE",
"707 113 CURVE SMOOTH",
"712 114 OFFCURVE",
"715 117 OFFCURVE",
"716 121 CURVE",
"709 122 OFFCURVE",
"704 122 OFFCURVE",
"702 121 CURVE",
"699 132 OFFCURVE",
"718 131 OFFCURVE",
"719 135 CURVE SMOOTH",
"720 140 OFFCURVE",
"712 142 OFFCURVE",
"713 146 CURVE",
"722 155 OFFCURVE",
"728 171 OFFCURVE",
"733 194 CURVE SMOOTH",
"740 229 OFFCURVE",
"744 247 OFFCURVE",
"745 249 CURVE",
"784 266 OFFCURVE",
"809 284 OFFCURVE",
"819 303 CURVE",
"822 316 OFFCURVE",
"814 327 OFFCURVE",
"796 336 CURVE SMOOTH",
"778 345 OFFCURVE",
"761 348 OFFCURVE",
"745 345 CURVE",
"751 338 OFFCURVE",
"752 331 OFFCURVE",
"748 324 CURVE",
"739 322 OFFCURVE",
"734 323 OFFCURVE",
"733 327 CURVE",
"733 340 OFFCURVE",
"733 357 OFFCURVE",
"732 376 CURVE SMOOTH",
"731 398 OFFCURVE",
"730 412 OFFCURVE",
"730 417 CURVE",
"738 414 OFFCURVE",
"742 426 OFFCURVE",
"745 426 CURVE",
"750 423 OFFCURVE",
"756 422 OFFCURVE",
"762 422 CURVE SMOOTH",
"791 422 OFFCURVE",
"819 456 OFFCURVE",
"815 480 CURVE",
"829 484 LINE",
"827 487 OFFCURVE",
"827 489 OFFCURVE",
"829 490 CURVE",
"831 492 OFFCURVE",
"834 492 OFFCURVE",
"837 491 CURVE",
"836 500 OFFCURVE",
"835 506 OFFCURVE",
"833 509 CURVE",
"840 509 OFFCURVE",
"844 515 OFFCURVE",
"844 527 CURVE",
"852 524 OFFCURVE",
"859 531 OFFCURVE",
"866 530 CURVE",
"868 540 OFFCURVE",
"873 553 OFFCURVE",
"881 568 CURVE SMOOTH",
"888 581 OFFCURVE",
"892 592 OFFCURVE",
"892 599 CURVE SMOOTH",
"892 604 OFFCURVE",
"890 610 OFFCURVE",
"887 615 CURVE",
"876 615 OFFCURVE",
"864 631 OFFCURVE",
"855 631 CURVE SMOOTH",
"852 631 OFFCURVE",
"848 630 OFFCURVE",
"844 629 CURVE",
"844 640 LINE",
"839 639 OFFCURVE",
"827 640 OFFCURVE",
"808 644 CURVE SMOOTH",
"787 649 OFFCURVE",
"775 654 OFFCURVE",
"773 661 CURVE",
"764 662 OFFCURVE",
"757 659 OFFCURVE",
"751 651 CURVE",
"751 661 LINE",
"696 659 OFFCURVE",
"642 657 OFFCURVE",
"588 656 CURVE",
"525 649 OFFCURVE",
"482 632 OFFCURVE",
"460 605 CURVE",
"451 602 OFFCURVE",
"447 598 OFFCURVE",
"447 593 CURVE SMOOTH",
"447 591 OFFCURVE",
"448 589 OFFCURVE",
"449 587 CURVE",
"478 578 OFFCURVE",
"509 574 OFFCURVE",
"540 574 CURVE SMOOTH",
"563 574 OFFCURVE",
"599 577 OFFCURVE",
"649 584 CURVE SMOOTH",
"696 590 OFFCURVE",
"733 592 OFFCURVE",
"759 591 CURVE",
"745 538 OFFCURVE",
"730 502 OFFCURVE",
"713 484 CURVE",
"705 487 OFFCURVE",
"693 500 OFFCURVE",
"676 523 CURVE SMOOTH",
"661 542 OFFCURVE",
"649 552 OFFCURVE",
"638 551 CURVE SMOOTH",
"622 550 OFFCURVE",
"615 540 OFFCURVE",
"620 521 CURVE SMOOTH",
"634 473 LINE",
"551 446 OFFCURVE",
"501 427 OFFCURVE",
"484 417 CURVE",
"480 419 OFFCURVE",
"476 420 OFFCURVE",
"472 420 CURVE SMOOTH",
"463 420 OFFCURVE",
"458 414 OFFCURVE",
"457 402 CURVE",
"466 402 OFFCURVE",
"481 383 OFFCURVE",
"490 383 CURVE SMOOTH",
"493 383 OFFCURVE",
"496 384 OFFCURVE",
"499 385 CURVE",
"504 375 OFFCURVE",
"515 370 OFFCURVE",
"532 370 CURVE SMOOTH",
"538 370 OFFCURVE",
"548 371 OFFCURVE",
"563 373 CURVE SMOOTH",
"576 374 OFFCURVE",
"584 375 OFFCURVE",
"588 374 CURVE",
"521 294 LINE SMOOTH",
"497 265 OFFCURVE",
"467 245 OFFCURVE",
"438 228 CURVE",
"438 196 OFFCURVE",
"468 165 OFFCURVE",
"492 171 CURVE SMOOTH",
"561 189 OFFCURVE",
"616 207 OFFCURVE",
"657 220 CURVE",
"657 206 OFFCURVE",
"651 179 OFFCURVE",
"641 139 CURVE SMOOTH",
"629 94 OFFCURVE",
"623 62 OFFCURVE",
"620 43 CURVE",
"616 42 OFFCURVE",
"610 33 OFFCURVE",
"601 16 CURVE SMOOTH",
"592 0 OFFCURVE",
"587 -11 OFFCURVE",
"585 -18 CURVE"
);
},
{
closed = 1;
nodes = (
"289 18 OFFCURVE",
"294 22 OFFCURVE",
"303 19 CURVE",
"304 24 OFFCURVE",
"302 27 OFFCURVE",
"299 27 CURVE SMOOTH",
"296 27 OFFCURVE",
"290 25 OFFCURVE",
"289 25 CURVE SMOOTH",
"286 25 OFFCURVE",
"285 27 OFFCURVE",
"286 32 CURVE",
"291 29 OFFCURVE",
"298 29 OFFCURVE",
"307 32 CURVE",
"294 133 OFFCURVE",
"288 211 OFFCURVE",
"283 264 CURVE SMOOTH",
"277 330 OFFCURVE",
"259 381 OFFCURVE",
"236 417 CURVE",
"243 432 OFFCURVE",
"268 470 OFFCURVE",
"309 529 CURVE SMOOTH",
"340 574 OFFCURVE",
"360 613 OFFCURVE",
"367 647 CURVE",
"380 654 OFFCURVE",
"387 663 OFFCURVE",
"387 674 CURVE SMOOTH",
"387 687 OFFCURVE",
"379 703 OFFCURVE",
"362 721 CURVE SMOOTH",
"347 736 OFFCURVE",
"333 747 OFFCURVE",
"318 754 CURVE",
"317 746 OFFCURVE",
"309 739 OFFCURVE",
"309 736 CURVE SMOOTH",
"309 735 OFFCURVE",
"309 734 OFFCURVE",
"310 733 CURVE",
"287 706 OFFCURVE",
"264 665 OFFCURVE",
"240 611 CURVE SMOOTH",
"211 545 OFFCURVE",
"189 501 OFFCURVE",
"176 480 CURVE",
"176 455 LINE",
"163 446 OFFCURVE",
"156 441 OFFCURVE",
"154 441 CURVE",
"155 433 OFFCURVE",
"149 422 OFFCURVE",
"149 418 CURVE SMOOTH",
"149 417 OFFCURVE",
"149 415 OFFCURVE",
"150 413 CURVE",
"139 410 OFFCURVE",
"133 403 OFFCURVE",
"133 392 CURVE SMOOTH",
"133 389 OFFCURVE",
"134 387 OFFCURVE",
"136 385 CURVE",
"133 377 OFFCURVE",
"125 381 OFFCURVE",
"122 377 CURVE",
"124 375 OFFCURVE",
"125 373 OFFCURVE",
"125 371 CURVE SMOOTH",
"125 368 OFFCURVE",
"123 365 OFFCURVE",
"118 362 CURVE",
"125 360 OFFCURVE",
"129 355 OFFCURVE",
"132 348 CURVE SMOOTH",
"135 338 OFFCURVE",
"138 332 OFFCURVE",
"139 331 CURVE",
"147 338 LINE",
"147 323 OFFCURVE",
"155 320 OFFCURVE",
"172 313 CURVE",
"173 322 OFFCURVE",
"175 326 OFFCURVE",
"176 327 CURVE",
"178 318 OFFCURVE",
"183 314 OFFCURVE",
"190 314 CURVE SMOOTH",
"204 314 OFFCURVE",
"210 315 OFFCURVE",
"208 316 CURVE",
"206 305 OFFCURVE",
"205 293 OFFCURVE",
"205 281 CURVE SMOOTH",
"205 274 OFFCURVE",
"205 260 OFFCURVE",
"207 240 CURVE SMOOTH",
"208 224 OFFCURVE",
"209 210 OFFCURVE",
"208 199 CURVE",
"211 198 OFFCURVE",
"213 196 OFFCURVE",
"216 194 CURVE SMOOTH",
"218 192 OFFCURVE",
"217 188 OFFCURVE",
"214 182 CURVE",
"214 186 OFFCURVE",
"213 192 OFFCURVE",
"208 188 CURVE",
"207 183 OFFCURVE",
"212 175 OFFCURVE",
"212 174 CURVE SMOOTH",
"212 173 OFFCURVE",
"211 172 OFFCURVE",
"208 171 CURVE",
"210 133 OFFCURVE",
"206 93 OFFCURVE",
"197 50 CURVE",
"236 24 OFFCURVE",
"266 10 OFFCURVE",
"289 7 CURVE"
);
},
{
closed = 1;
nodes = (
"593 287 OFFCURVE",
"618 319 OFFCURVE",
"649 331 CURVE",
"652 310 OFFCURVE",
"653 297 OFFCURVE",
"652 292 CURVE",
"632 282 OFFCURVE",
"605 271 OFFCURVE",
"570 260 CURVE"
);
}
);
vertWidth = 1000;
width = 1000;
}
);
note = cid00845;
unicode = 3044;
},
{
glyphname = "u-hira";
lastChange = "2020-12-04 08:03:05 +0000";
layers = (
{
hints = (
{
horizontal = 1;
place = "{-67, 15}";
type = Stem;
},
{
horizontal = 1;
place = "{55, 11}";
type = Stem;
},
{
horizontal = 1;
place = "{278, 69}";
type = Stem;
},
{
horizontal = 1;
place = "{696, 57}";
type = Stem;
},
{
place = "{712, 90}";
type = Stem;
},
{
horizontal = 1;
place = "{26, 8}";
type = Stem;
}
);
layerId = "F065C3D4-A6F6-48F7-ABC0-534A710C84EA";
paths = (
{
closed = 1;
nodes = (
"519 -81 OFFCURVE",
"530 -78 OFFCURVE",
"540 -73 CURVE",
"539 -70 OFFCURVE",
"539 -68 OFFCURVE",
"542 -67 CURVE",
"545 -65 OFFCURVE",
"548 -65 OFFCURVE",
"551 -67 CURVE",
"553 -65 OFFCURVE",
"554 -63 OFFCURVE",
"554 -61 CURVE",
"543 -52 LINE",
"551 -49 OFFCURVE",
"546 -38 OFFCURVE",
"554 -35 CURVE",
"544 -23 OFFCURVE",
"536 -18 OFFCURVE",
"529 -20 CURVE",
"527 -4 OFFCURVE",
"508 8 OFFCURVE",
"471 17 CURVE SMOOTH",
"432 26 OFFCURVE",
"409 39 OFFCURVE",
"404 55 CURVE",
"442 50 OFFCURVE",
"479 43 OFFCURVE",
"515 34 CURVE",
"508 30 LINE",
"517 27 OFFCURVE",
"526 26 OFFCURVE",
"535 26 CURVE SMOOTH",
"549 26 OFFCURVE",
"565 30 OFFCURVE",
"583 38 CURVE SMOOTH",
"601 47 OFFCURVE",
"613 51 OFFCURVE",
"618 51 CURVE",
"621 59 OFFCURVE",
"605 57 OFFCURVE",
"605 61 CURVE SMOOTH",
"605 62 OFFCURVE",
"606 64 OFFCURVE",
"607 66 CURVE",
"612 58 OFFCURVE",
"625 63 OFFCURVE",
"625 55 CURVE",
"643 64 OFFCURVE",
"651 71 OFFCURVE",
"650 76 CURVE",
"673 76 OFFCURVE",
"693 83 OFFCURVE",
"710 98 CURVE SMOOTH",
"715 102 OFFCURVE",
"725 117 OFFCURVE",
"746 141 CURVE SMOOTH",
"776 175 LINE SMOOTH",
"789 190 OFFCURVE",
"797 205 OFFCURVE",
"800 218 CURVE SMOOTH",
"801 226 OFFCURVE",
"802 234 OFFCURVE",
"802 241 CURVE SMOOTH",
"802 279 OFFCURVE",
"783 309 OFFCURVE",
"746 332 CURVE",
"725 332 LINE",
"703 342 OFFCURVE",
"678 347 OFFCURVE",
"649 347 CURVE SMOOTH",
"624 347 OFFCURVE",
"593 344 OFFCURVE",
"558 335 CURVE SMOOTH",
"479 315 LINE",
"479 328 OFFCURVE",
"489 359 OFFCURVE",
"489 371 CURVE SMOOTH",
"489 375 OFFCURVE",
"488 379 OFFCURVE",
"487 382 CURVE",
"567 464 LINE SMOOTH",
"598 495 OFFCURVE",
"616 532 OFFCURVE",
"625 567 CURVE",
"628 567 OFFCURVE",
"632 562 OFFCURVE",
"636 563 CURVE",
"643 577 OFFCURVE",
"650 597 OFFCURVE",
"655 622 CURVE SMOOTH",
"661 650 OFFCURVE",
"666 670 OFFCURVE",
"671 681 CURVE",
"667 698 OFFCURVE",
"654 712 OFFCURVE",
"633 723 CURVE SMOOTH",
"580 751 LINE",
"569 752 OFFCURVE",
"557 753 OFFCURVE",
"544 753 CURVE SMOOTH",
"501 753 OFFCURVE",
"447 742 OFFCURVE",
"380 721 CURVE SMOOTH",
"217 670 LINE",
"281 623 LINE SMOOTH",
"305 605 OFFCURVE",
"331 598 OFFCURVE",
"354 598 CURVE SMOOTH",
"378 598 OFFCURVE",
"403 608 OFFCURVE",
"430 628 CURVE SMOOTH",
"471 659 OFFCURVE",
"494 675 OFFCURVE",
"497 677 CURVE",
"500 676 OFFCURVE",
"503 676 OFFCURVE",
"506 676 CURVE SMOOTH",
"513 676 OFFCURVE",
"524 679 OFFCURVE",
"538 686 CURVE SMOOTH",
"552 693 OFFCURVE",
"562 696 OFFCURVE",
"568 696 CURVE SMOOTH",
"573 696 OFFCURVE",
"578 694 OFFCURVE",
"583 691 CURVE",
"560 627 OFFCURVE",
"524 569 OFFCURVE",
"476 517 CURVE",
"473 528 OFFCURVE",
"451 541 OFFCURVE",
"451 556 CURVE",
"399 561 OFFCURVE",
"356 542 OFFCURVE",
"323 497 CURVE SMOOTH",
"303 471 OFFCURVE",
"282 426 OFFCURVE",
"259 361 CURVE",
"259 360 OFFCURVE",
"262 355 OFFCURVE",
"268 345 CURVE SMOOTH",
"271 339 OFFCURVE",
"273 334 OFFCURVE",
"273 329 CURVE SMOOTH",
"273 324 OFFCURVE",
"272 320 OFFCURVE",
"270 315 CURVE",
"285 306 OFFCURVE",
"301 301 OFFCURVE",
"318 301 CURVE SMOOTH",
"333 301 OFFCURVE",
"356 307 OFFCURVE",
"387 318 CURVE",
"387 306 OFFCURVE",
"379 284 OFFCURVE",
"380 268 CURVE",
"379 265 OFFCURVE",
"383 259 OFFCURVE",
"391 251 CURVE SMOOTH",
"400 244 OFFCURVE",
"404 236 OFFCURVE",
"404 229 CURVE",
"423 220 OFFCURVE",
"442 216 OFFCURVE",
"462 217 CURVE SMOOTH",
"485 218 OFFCURVE",
"519 228 OFFCURVE",
"564 248 CURVE SMOOTH",
"609 268 OFFCURVE",
"644 278 OFFCURVE",
"671 278 CURVE SMOOTH",
"682 278 OFFCURVE",
"692 277 OFFCURVE",
"703 275 CURVE",
"696 245 OFFCURVE",
"680 216 OFFCURVE",
"652 190 CURVE SMOOTH",
"582 124 LINE",
"582 124 OFFCURVE",
"574 120 OFFCURVE",
"559 111 CURVE SMOOTH",
"550 106 OFFCURVE",
"543 101 OFFCURVE",
"540 94 CURVE",
"521 89 OFFCURVE",
"503 83 OFFCURVE",
"484 77 CURVE SMOOTH",
"459 70 OFFCURVE",
"437 66 OFFCURVE",
"419 66 CURVE SMOOTH",
"375 66 LINE SMOOTH",
"362 66 OFFCURVE",
"353 59 OFFCURVE",
"348 48 CURVE",
"347 35 OFFCURVE",
"350 24 OFFCURVE",
"359 15 CURVE SMOOTH",
"370 4 OFFCURVE",
"376 -6 OFFCURVE",
"377 -13 CURVE",
"424 -58 OFFCURVE",
"467 -81 OFFCURVE",
"506 -81 CURVE SMOOTH"
);
},
{
closed = 1;
nodes = (
"584 114 OFFCURVE",
"582 114 OFFCURVE",
"580 115 CURVE",
"581 118 OFFCURVE",
"587 123 OFFCURVE",
"596 128 CURVE SMOOTH",
"605 133 OFFCURVE",
"611 135 OFFCURVE",
"612 133 CURVE",
"604 120 OFFCURVE",
"595 114 OFFCURVE",
"586 114 CURVE SMOOTH"
);
},
{
closed = 1;
nodes = (
"343 399 OFFCURVE",
"344 420 OFFCURVE",
"359 421 CURVE",
"360 453 OFFCURVE",
"382 475 OFFCURVE",
"401 499 CURVE",
"412 484 OFFCURVE",
"417 471 OFFCURVE",
"417 458 CURVE SMOOTH",
"417 429 OFFCURVE",
"391 404 OFFCURVE",
"340 382 CURVE"
);
},
{
closed = 1;
nodes = (
"696 194 OFFCURVE",
"695 196 OFFCURVE",
"696 200 CURVE",
"712 223 LINE",
"714 215 OFFCURVE",
"711 206 OFFCURVE",
"704 197 CURVE SMOOTH",
"702 194 OFFCURVE",
"700 193 OFFCURVE",
"698 193 CURVE"
);
}
);
vertWidth = 1000;
width = 1000;
}
);
note = cid00847;
unicode = 3046;
},
{
glyphname = "e-hira";
lastChange = "2020-12-04 08:03:05 +0000";
layers = (
{
hints = (
{
horizontal = 1;
place = "{113, 86}";
type = Stem;
},
{
horizontal = 1;
place = "{581, 70}";
type = Stem;
},
{
place = "{177, 70}";
type = Stem;
},
{
place = "{764, 96}";
type = Stem;
}
);
layerId = "F065C3D4-A6F6-48F7-ABC0-534A710C84EA";
paths = (
{
closed = 1;
nodes = (
"300 18 OFFCURVE",
"308 29 OFFCURVE",
"309 36 CURVE",
"309 63 OFFCURVE",
"308 83 OFFCURVE",
"305 97 CURVE",
"306 102 OFFCURVE",
"307 112 OFFCURVE",
"310 126 CURVE SMOOTH",
"313 140 OFFCURVE",
"315 150 OFFCURVE",
"315 157 CURVE SMOOTH",
"315 169 OFFCURVE",
"312 178 OFFCURVE",
"305 184 CURVE",
"313 198 OFFCURVE",
"320 220 OFFCURVE",
"326 250 CURVE SMOOTH",
"344 333 LINE",
"360 374 OFFCURVE",
"373 405 OFFCURVE",
"383 426 CURVE",
"402 489 OFFCURVE",
"420 524 OFFCURVE",
"438 529 CURVE SMOOTH",
"447 532 OFFCURVE",
"463 523 OFFCURVE",
"467 523 CURVE SMOOTH",
"474 522 OFFCURVE",
"487 523 OFFCURVE",
"507 524 CURVE SMOOTH",
"526 525 OFFCURVE",
"541 525 OFFCURVE",
"554 523 CURVE",
"605 552 OFFCURVE",
"675 572 OFFCURVE",
"764 581 CURVE",
"759 556 OFFCURVE",
"751 532 OFFCURVE",
"739 509 CURVE SMOOTH",
"733 497 OFFCURVE",
"721 476 OFFCURVE",
"702 446 CURVE SMOOTH",
"660 379 OFFCURVE",
"627 333 OFFCURVE",
"602 306 CURVE SMOOTH",
"559 259 OFFCURVE",
"512 230 OFFCURVE",
"460 217 CURVE",
"457 220 OFFCURVE",
"451 221 OFFCURVE",
"441 220 CURVE",
"432 200 OFFCURVE",
"428 189 OFFCURVE",
"428 188 CURVE",
"432 179 OFFCURVE",
"451 161 OFFCURVE",
"454 149 CURVE",
"496 125 OFFCURVE",
"563 113 OFFCURVE",
"656 113 CURVE SMOOTH",
"721 113 OFFCURVE",
"789 118 OFFCURVE",
"860 129 CURVE",
"859 178 OFFCURVE",
"822 202 OFFCURVE",
"749 203 CURVE SMOOTH",
"734 203 OFFCURVE",
"706 202 OFFCURVE",
"667 199 CURVE SMOOTH",
"633 196 OFFCURVE",
"608 196 OFFCURVE",
"593 197 CURVE",
"597 201 OFFCURVE",
"606 207 OFFCURVE",
"619 215 CURVE SMOOTH",
"632 223 OFFCURVE",
"640 229 OFFCURVE",
"643 233 CURVE",
"635 232 OFFCURVE",
"631 233 OFFCURVE",
"631 236 CURVE",
"640 238 OFFCURVE",
"650 243 OFFCURVE",
"660 252 CURVE",
"659 253 OFFCURVE",
"659 255 OFFCURVE",
"659 257 CURVE SMOOTH",
"659 262 OFFCURVE",
"666 271 OFFCURVE",
"679 282 CURVE SMOOTH",
"693 294 OFFCURVE",
"700 303 OFFCURVE",
"699 308 CURVE",
"701 307 OFFCURVE",
"703 307 OFFCURVE",
"704 307 CURVE SMOOTH",
"708 307 OFFCURVE",
"710 309 OFFCURVE",
"709 313 CURVE",
"699 317 LINE",
"700 324 OFFCURVE",
"721 325 OFFCURVE",
"721 333 CURVE",
"722 337 OFFCURVE",
"724 341 OFFCURVE",
"728 344 CURVE SMOOTH",
"744 353 OFFCURVE",
"746 360 OFFCURVE",
"746 365 CURVE",
"800 439 LINE SMOOTH",
"839 493 OFFCURVE",
"860 543 OFFCURVE",
"867 584 CURVE",
"859 602 LINE SMOOTH",
"857 607 OFFCURVE",
"857 613 OFFCURVE",
"860 620 CURVE",
"841 641 OFFCURVE",
"814 651 OFFCURVE",
"777 651 CURVE SMOOTH",
"780 651 OFFCURVE",
"750 648 OFFCURVE",
"686 642 CURVE SMOOTH",
"556 631 OFFCURVE",
"464 606 OFFCURVE",
"409 568 CURVE",
"395 529 OFFCURVE",
"369 466 OFFCURVE",
"332 380 CURVE SMOOTH",
"298 301 OFFCURVE",
"273 238 OFFCURVE",
"257 191 CURVE",
"250 238 OFFCURVE",
"244 302 OFFCURVE",
"247 384 CURVE SMOOTH",
"250 453 OFFCURVE",
"256 506 OFFCURVE",
"261 542 CURVE",
"262 598 OFFCURVE",
"244 637 OFFCURVE",
"209 658 CURVE",
"196 639 OFFCURVE",
"188 612 OFFCURVE",
"184 577 CURVE SMOOTH",
"184 574 OFFCURVE",
"183 542 OFFCURVE",
"180 481 CURVE SMOOTH",
"175 373 OFFCURVE",
"176 263 OFFCURVE",
"183 152 CURVE SMOOTH",
"186 104 OFFCURVE",
"191 73 OFFCURVE",
"199 59 CURVE",
"201 58 OFFCURVE",
"212 48 OFFCURVE",
"233 29 CURVE SMOOTH",
"250 13 OFFCURVE",
"268 5 OFFCURVE",
"286 4 CURVE"
);
}
);
vertWidth = 1000;
width = 1000;
}
);
note = cid00849;
unicode = 3048;
},
{
glyphname = "o-hira";
lastChange = "2020-12-04 08:03:05 +0000";
layers = (
{
hints = (
{
horizontal = 1;
place = "{-28, 91}";
type = Stem;
},
{
horizontal = 1;
place = "{553, 8}";
type = Stem;
},
{
place = "{318, 75}";
type = Stem;
},
{
place = "{484, 7}";
type = Stem;
},
{
place = "{766, 12}";
type = Stem;
},
{
place = "{312, 85}";
type = Stem;
}
);
layerId = "F065C3D4-A6F6-48F7-ABC0-534A710C84EA";
paths = (
{
closed = 1;
nodes = (
"383 -28 OFFCURVE",
"392 -26 OFFCURVE",
"402 -21 CURVE",
"404 -18 OFFCURVE",
"405 -13 OFFCURVE",
"405 -8 CURVE SMOOTH",
"405 1 OFFCURVE",
"397 31 OFFCURVE",
"397 43 CURVE SMOOTH",
"397 51 OFFCURVE",
"399 58 OFFCURVE",
"402 63 CURVE",
"395 62 OFFCURVE",
"392 63 OFFCURVE",
"391 66 CURVE",
"395 74 OFFCURVE",
"397 85 OFFCURVE",
"397 99 CURVE SMOOTH",
"397 110 OFFCURVE",
"395 126 OFFCURVE",
"392 147 CURVE SMOOTH",
"387 188 LINE",
"385 185 OFFCURVE",
"383 184 OFFCURVE",
"380 185 CURVE",
"385 196 OFFCURVE",
"387 209 OFFCURVE",
"387 225 CURVE SMOOTH",
"387 244 OFFCURVE",
"383 259 OFFCURVE",
"376 269 CURVE",
"379 277 OFFCURVE",
"385 307 OFFCURVE",
"394 359 CURVE SMOOTH",
"401 401 OFFCURVE",
"411 432 OFFCURVE",
"423 453 CURVE",
"438 460 OFFCURVE",
"449 475 OFFCURVE",
"456 498 CURVE SMOOTH",
"463 521 OFFCURVE",
"471 534 OFFCURVE",
"480 537 CURVE",
"479 539 OFFCURVE",
"481 544 OFFCURVE",
"484 553 CURVE",
"487 552 OFFCURVE",
"490 553 OFFCURVE",
"491 555 CURVE SMOOTH",
"492 556 OFFCURVE",
"492 558 OFFCURVE",
"491 561 CURVE",
"520 580 OFFCURVE",
"540 594 OFFCURVE",
"552 603 CURVE",
"553 591 OFFCURVE",
"549 580 OFFCURVE",
"542 570 CURVE",
"535 563 OFFCURVE",
"529 555 OFFCURVE",
"523 547 CURVE",
"515 521 OFFCURVE",
"509 500 OFFCURVE",
"506 484 CURVE",
"491 466 LINE",
"489 451 OFFCURVE",
"495 436 OFFCURVE",
"509 422 CURVE SMOOTH",
"524 408 OFFCURVE",
"540 401 OFFCURVE",
"559 401 CURVE SMOOTH",
"565 401 OFFCURVE",
"571 402 OFFCURVE",
"577 404 CURVE",
"596 421 OFFCURVE",
"631 437 OFFCURVE",
"681 457 CURVE SMOOTH",
"733 478 LINE SMOOTH",
"753 486 OFFCURVE",
"769 491 OFFCURVE",
"781 491 CURVE SMOOTH",
"804 492 OFFCURVE",
"826 490 OFFCURVE",
"849 490 CURVE SMOOTH",
"874 490 OFFCURVE",
"888 500 OFFCURVE",
"892 516 CURVE",
"871 540 OFFCURVE",
"831 557 OFFCURVE",
"773 568 CURVE",
"757 561 OFFCURVE",
"734 555 OFFCURVE",
"704 548 CURVE SMOOTH",
"671 541 OFFCURVE",
"646 534 OFFCURVE",
"631 529 CURVE",
"629 541 OFFCURVE",
"634 551 OFFCURVE",
"646 559 CURVE",
"676 635 LINE SMOOTH",
"687 664 OFFCURVE",
"696 690 OFFCURVE",
"702 714 CURVE",
"679 731 OFFCURVE",
"639 732 OFFCURVE",
"602 735 CURVE",
"591 712 OFFCURVE",
"569 685 OFFCURVE",
"534 653 CURVE SMOOTH",
"499 621 OFFCURVE",
"477 595 OFFCURVE",
"466 574 CURVE",
"469 573 OFFCURVE",
"470 572 OFFCURVE",
"470 570 CURVE SMOOTH",
"470 565 OFFCURVE",
"465 561 OFFCURVE",
"455 558 CURVE",
"444 533 OFFCURVE",
"427 517 OFFCURVE",
"405 512 CURVE",
"394 516 OFFCURVE",
"393 527 OFFCURVE",
"393 539 CURVE SMOOTH",
"393 553 OFFCURVE",
"396 573 OFFCURVE",
"403 600 CURVE SMOOTH",
"410 627 OFFCURVE",
"413 647 OFFCURVE",
"413 658 CURVE SMOOTH",
"413 663 OFFCURVE",
"413 668 OFFCURVE",
"412 672 CURVE SMOOTH",
"409 686 OFFCURVE",
"400 700 OFFCURVE",
"385 715 CURVE SMOOTH",
"370 730 OFFCURVE",
"355 739 OFFCURVE",
"341 741 CURVE SMOOTH",
"340 741 OFFCURVE",
"335 732 OFFCURVE",
"326 735 CURVE",
"320 706 OFFCURVE",
"318 667 OFFCURVE",
"318 619 CURVE SMOOTH",
"319 558 OFFCURVE",
"317 519 OFFCURVE",
"316 502 CURVE",
"241 461 OFFCURVE",
"167 433 OFFCURVE",
"94 418 CURVE",
"112 381 OFFCURVE",
"149 362 OFFCURVE",
"204 362 CURVE SMOOTH",
"244 362 OFFCURVE",
"278 373 OFFCURVE",
"305 394 CURVE",
"308 392 OFFCURVE",
"309 389 OFFCURVE",
"308 386 CURVE SMOOTH",
"298 355 OFFCURVE",
"276 317 OFFCURVE",
"243 272 CURVE SMOOTH",
"207 223 OFFCURVE",
"185 188 OFFCURVE",
"176 167 CURVE",
"194 134 OFFCURVE",
"214 109 OFFCURVE",
"237 91 CURVE",
"244 99 OFFCURVE",
"256 118 OFFCURVE",
"274 147 CURVE SMOOTH",
"289 171 OFFCURVE",
"303 188 OFFCURVE",
"316 199 CURVE",
"319 193 OFFCURVE",
"321 185 OFFCURVE",
"321 174 CURVE SMOOTH",
"321 165 OFFCURVE",
"319 153 OFFCURVE",
"316 137 CURVE SMOOTH",
"313 121 OFFCURVE",
"312 111 OFFCURVE",
"312 108 CURVE SMOOTH",
"310 79 OFFCURVE",
"313 51 OFFCURVE",
"321 25 CURVE SMOOTH",
"332 -10 OFFCURVE",
"349 -28 OFFCURVE",
"374 -28 CURVE SMOOTH"
);
},
{
closed = 1;
nodes = (
"591 -31 OFFCURVE",
"600 -22 OFFCURVE",
"605 -21 CURVE",
"616 -22 OFFCURVE",
"627 -23 OFFCURVE",
"637 -23 CURVE SMOOTH",
"659 -23 OFFCURVE",
"683 -21 OFFCURVE",
"709 -14 CURVE SMOOTH",
"778 4 LINE",
"800 31 OFFCURVE",
"810 51 OFFCURVE",
"809 63 CURVE SMOOTH",
"807 81 OFFCURVE",
"787 99 OFFCURVE",
"749 116 CURVE SMOOTH",
"708 135 OFFCURVE",
"684 151 OFFCURVE",
"677 164 CURVE",
"681 174 OFFCURVE",
"690 185 OFFCURVE",
"703 198 CURVE SMOOTH",
"717 211 OFFCURVE",
"726 222 OFFCURVE",
"730 230 CURVE",
"754 230 OFFCURVE",
"774 252 OFFCURVE",
"778 283 CURVE",
"773 286 OFFCURVE",
"769 287 OFFCURVE",
"766 286 CURVE",
"758 297 OFFCURVE",
"741 311 OFFCURVE",
"714 328 CURVE SMOOTH",
"682 347 OFFCURVE",
"661 361 OFFCURVE",
"652 370 CURVE",
"645 371 OFFCURVE",
"639 366 OFFCURVE",
"635 357 CURVE SMOOTH",
"631 348 OFFCURVE",
"627 342 OFFCURVE",
"623 341 CURVE",
"624 337 OFFCURVE",
"633 324 OFFCURVE",
"650 302 CURVE SMOOTH",
"661 287 OFFCURVE",
"666 271 OFFCURVE",
"663 254 CURVE",
"636 203 OFFCURVE",
"624 167 OFFCURVE",
"627 147 CURVE SMOOTH",
"628 136 OFFCURVE",
"635 125 OFFCURVE",
"648 114 CURVE SMOOTH",
"665 99 OFFCURVE",
"675 90 OFFCURVE",
"677 87 CURVE",
"671 63 OFFCURVE",
"656 39 OFFCURVE",
"632 16 CURVE SMOOTH",
"601 -13 OFFCURVE",
"585 -28 OFFCURVE",
"584 -30 CURVE"
);
}
);
vertWidth = 1000;
width = 1000;
}
);
note = cid00851;
unicode = 304A;
},
{
glyphname = "ka-hira";
lastChange = "2020-12-04 08:03:05 +0000";
layers = (
{
hints = (
{
horizontal = 1;
place = "{343, 80}";
type = Stem;
},
{
place = "{633, 84}";
type = Stem;
}
);
layerId = "F065C3D4-A6F6-48F7-ABC0-534A710C84EA";
paths = (
{
closed = 1;
nodes = (
"422 -24 OFFCURVE",
"438 -18 OFFCURVE",
"454 -14 CURVE",
"507 -6 LINE",
"506 -11 OFFCURVE",
"490 -15 OFFCURVE",
"490 -23 CURVE",
"503 -22 OFFCURVE",
"517 -14 OFFCURVE",
"533 -2 CURVE SMOOTH",
"550 11 OFFCURVE",
"563 16 OFFCURVE",
"572 16 CURVE SMOOTH",
"575 16 OFFCURVE",
"579 16 OFFCURVE",
"582 15 CURVE",
"587 24 OFFCURVE",
"598 35 OFFCURVE",
"613 46 CURVE SMOOTH",
"652 73 LINE SMOOTH",
"670 85 OFFCURVE",
"673 111 OFFCURVE",
"684 116 CURVE",
"686 123 OFFCURVE",
"692 137 OFFCURVE",
"702 159 CURVE SMOOTH",
"709 174 OFFCURVE",
"712 189 OFFCURVE",
"712 202 CURVE SMOOTH",
"712 207 OFFCURVE",
"712 213 OFFCURVE",
"711 218 CURVE",
"715 224 OFFCURVE",
"717 233 OFFCURVE",
"717 244 CURVE SMOOTH",
"717 266 OFFCURVE",
"711 291 OFFCURVE",
"700 320 CURVE SMOOTH",
"673 387 OFFCURVE",
"622 422 OFFCURVE",
"546 423 CURVE SMOOTH",
"507 424 OFFCURVE",
"471 414 OFFCURVE",
"440 394 CURVE",
"438 395 OFFCURVE",
"436 395 OFFCURVE",
"434 395 CURVE SMOOTH",
"423 395 OFFCURVE",
"396 373 OFFCURVE",
"379 374 CURVE",
"378 367 OFFCURVE",
"370 360 OFFCURVE",
"370 356 CURVE SMOOTH",
"370 354 OFFCURVE",
"371 352 OFFCURVE",
"372 350 CURVE",
"361 347 OFFCURVE",
"355 342 OFFCURVE",
"355 336 CURVE",
"346 337 OFFCURVE",
"338 332 OFFCURVE",
"331 320 CURVE SMOOTH",
"324 308 OFFCURVE",
"317 303 OFFCURVE",
"311 306 CURVE",
"306 297 OFFCURVE",
"304 286 OFFCURVE",
"304 275 CURVE SMOOTH",
"304 252 OFFCURVE",
"312 230 OFFCURVE",
"327 210 CURVE SMOOTH",
"342 190 OFFCURVE",
"361 180 OFFCURVE",
"384 180 CURVE SMOOTH",
"388 180 OFFCURVE",
"392 180 OFFCURVE",
"396 181 CURVE SMOOTH",
"411 184 OFFCURVE",
"425 202 OFFCURVE",
"438 233 CURVE SMOOTH",
"449 261 OFFCURVE",
"454 285 OFFCURVE",
"453 306 CURVE",
"466 310 OFFCURVE",
"469 329 OFFCURVE",
"477 333 CURVE",
"486 333 OFFCURVE",
"491 332 OFFCURVE",
"494 330 CURVE",
"495 335 OFFCURVE",
"506 334 OFFCURVE",
"507 339 CURVE",
"522 342 OFFCURVE",
"536 343 OFFCURVE",
"549 343 CURVE SMOOTH",
"600 343 OFFCURVE",
"627 324 OFFCURVE",
"632 286 CURVE SMOOTH",
"633 281 OFFCURVE",
"633 275 OFFCURVE",
"633 269 CURVE SMOOTH",
"633 216 OFFCURVE",
"602 165 OFFCURVE",
"541 116 CURVE",
"542 113 OFFCURVE",
"543 111 OFFCURVE",
"543 110 CURVE SMOOTH",
"543 106 OFFCURVE",
"539 103 OFFCURVE",
"539 100 CURVE SMOOTH",
"539 98 OFFCURVE",
"540 96 OFFCURVE",
"541 93 CURVE",
"467 36 OFFCURVE",
"398 -2 OFFCURVE",
"333 -23 CURVE",
"365 -21 OFFCURVE",
"389 -24 OFFCURVE",
"405 -33 CURVE"
);
},
{
closed = 1;
nodes = (
"335 543 OFFCURVE",
"364 548 OFFCURVE",
"403 559 CURVE SMOOTH",
"446 571 OFFCURVE",
"478 578 OFFCURVE",
"497 580 CURVE SMOOTH",
"604 592 OFFCURVE",
"668 598 OFFCURVE",
"690 597 CURVE",
"710 611 LINE SMOOTH",
"718 617 OFFCURVE",
"722 623 OFFCURVE",
"722 630 CURVE SMOOTH",
"722 637 OFFCURVE",
"721 645 OFFCURVE",
"705 657 CURVE SMOOTH",
"697 664 OFFCURVE",
"692 670 OFFCURVE",
"690 675 CURVE",
"683 674 OFFCURVE",
"670 677 OFFCURVE",
"650 684 CURVE SMOOTH",
"631 691 OFFCURVE",
"618 694 OFFCURVE",
"612 692 CURVE SMOOTH",
"577 680 OFFCURVE",
"505 666 OFFCURVE",
"398 650 CURVE SMOOTH",
"307 637 OFFCURVE",
"241 619 OFFCURVE",
"200 597 CURVE",
"206 594 OFFCURVE",
"217 586 OFFCURVE",
"232 574 CURVE SMOOTH",
"245 564 OFFCURVE",
"255 557 OFFCURVE",
"264 553 CURVE SMOOTH",
"279 546 OFFCURVE",
"296 543 OFFCURVE",
"315 543 CURVE SMOOTH"
);
}
);
vertWidth = 1000;
width = 1000;
}
);
note = cid00852;
unicode = 304B;
},
{
glyphname = "ga-hira";
lastChange = "2020-12-04 08:03:05 +0000";
layers = (
{
hints = (
{
horizontal = 1;
place = "{428, 112}";
type = Stem;
},
{
place = "{633, 84}";
type = Stem;
},
{
horizontal = 1;
place = "{343, 80}";
type = Stem;
}
);
layerId = "F065C3D4-A6F6-48F7-ABC0-534A710C84EA";
paths = (
{
closed = 1;
nodes = (
"422 -24 OFFCURVE",
"438 -18 OFFCURVE",
"454 -14 CURVE",
"507 -6 LINE",
"506 -11 OFFCURVE",
"490 -15 OFFCURVE",
"490 -23 CURVE",
"503 -22 OFFCURVE",
"517 -14 OFFCURVE",
"533 -2 CURVE SMOOTH",
"550 11 OFFCURVE",
"563 16 OFFCURVE",
"572 16 CURVE SMOOTH",
"575 16 OFFCURVE",
"579 16 OFFCURVE",
"582 15 CURVE",
"587 24 OFFCURVE",
"598 35 OFFCURVE",
"613 46 CURVE SMOOTH",
"652 73 LINE SMOOTH",
"670 85 OFFCURVE",
"673 111 OFFCURVE",
"684 116 CURVE",
"686 123 OFFCURVE",
"692 137 OFFCURVE",
"702 159 CURVE SMOOTH",
"709 174 OFFCURVE",
"712 189 OFFCURVE",
"712 202 CURVE SMOOTH",
"712 207 OFFCURVE",
"712 213 OFFCURVE",
"711 218 CURVE",
"715 224 OFFCURVE",
"717 233 OFFCURVE",
"717 244 CURVE SMOOTH",
"717 266 OFFCURVE",
"711 291 OFFCURVE",
"700 320 CURVE SMOOTH",
"673 387 OFFCURVE",
"622 422 OFFCURVE",
"546 423 CURVE SMOOTH",
"507 424 OFFCURVE",
"471 414 OFFCURVE",
"440 394 CURVE",
"438 395 OFFCURVE",
"436 395 OFFCURVE",
"434 395 CURVE SMOOTH",
"423 395 OFFCURVE",
"396 373 OFFCURVE",
"379 374 CURVE",
"378 367 OFFCURVE",
"370 360 OFFCURVE",
"370 356 CURVE SMOOTH",
"370 354 OFFCURVE",
"371 352 OFFCURVE",
"372 350 CURVE",
"361 347 OFFCURVE",
"355 342 OFFCURVE",
"355 336 CURVE",
"346 337 OFFCURVE",
"338 332 OFFCURVE",
"331 320 CURVE SMOOTH",
"324 308 OFFCURVE",
"317 303 OFFCURVE",
"311 306 CURVE",
"306 297 OFFCURVE",
"304 286 OFFCURVE",
"304 275 CURVE SMOOTH",
"304 252 OFFCURVE",
"312 230 OFFCURVE",
"327 210 CURVE SMOOTH",
"342 190 OFFCURVE",
"361 180 OFFCURVE",
"384 180 CURVE SMOOTH",
"388 180 OFFCURVE",
"392 180 OFFCURVE",
"396 181 CURVE SMOOTH",
"411 184 OFFCURVE",
"425 202 OFFCURVE",
"438 233 CURVE SMOOTH",
"449 261 OFFCURVE",
"454 285 OFFCURVE",
"453 306 CURVE",
"466 310 OFFCURVE",
"469 329 OFFCURVE",
"477 333 CURVE",
"486 333 OFFCURVE",
"491 332 OFFCURVE",
"494 330 CURVE",
"495 335 OFFCURVE",
"506 334 OFFCURVE",
"507 339 CURVE",
"522 342 OFFCURVE",
"536 343 OFFCURVE",
"549 343 CURVE SMOOTH",
"600 343 OFFCURVE",
"627 324 OFFCURVE",
"632 286 CURVE SMOOTH",
"633 281 OFFCURVE",
"633 275 OFFCURVE",
"633 269 CURVE SMOOTH",
"633 216 OFFCURVE",
"602 165 OFFCURVE",
"541 116 CURVE",
"542 113 OFFCURVE",
"543 111 OFFCURVE",
"543 110 CURVE SMOOTH",
"543 106 OFFCURVE",
"539 103 OFFCURVE",
"539 100 CURVE SMOOTH",
"539 98 OFFCURVE",
"540 96 OFFCURVE",
"541 93 CURVE",
"467 36 OFFCURVE",
"398 -2 OFFCURVE",
"333 -23 CURVE",
"365 -21 OFFCURVE",
"389 -24 OFFCURVE",
"405 -33 CURVE"
);
},
{
closed = 1;
nodes = (
"335 543 OFFCURVE",
"364 548 OFFCURVE",
"403 559 CURVE SMOOTH",
"446 571 OFFCURVE",
"478 578 OFFCURVE",
"497 580 CURVE SMOOTH",
"604 592 OFFCURVE",
"668 598 OFFCURVE",
"690 597 CURVE",
"710 611 LINE SMOOTH",
"718 617 OFFCURVE",
"722 623 OFFCURVE",
"722 630 CURVE SMOOTH",
"722 637 OFFCURVE",
"721 645 OFFCURVE",
"705 657 CURVE SMOOTH",
"697 664 OFFCURVE",
"692 670 OFFCURVE",
"690 675 CURVE",
"683 674 OFFCURVE",
"670 677 OFFCURVE",
"650 684 CURVE SMOOTH",
"631 691 OFFCURVE",
"618 694 OFFCURVE",
"612 692 CURVE SMOOTH",
"577 680 OFFCURVE",
"505 666 OFFCURVE",
"398 650 CURVE SMOOTH",
"307 637 OFFCURVE",
"241 619 OFFCURVE",
"200 597 CURVE",
"206 594 OFFCURVE",
"217 586 OFFCURVE",
"232 574 CURVE SMOOTH",
"245 564 OFFCURVE",
"255 557 OFFCURVE",
"264 553 CURVE SMOOTH",
"279 546 OFFCURVE",
"296 543 OFFCURVE",
"315 543 CURVE SMOOTH"
);
},
{
closed = 1;
nodes = (
"794 425 OFFCURVE",
"820 421 OFFCURVE",
"845 448 CURVE",
"834 512 OFFCURVE",
"772 554 OFFCURVE",
"707 536 CURVE",
"716 509 OFFCURVE",
"741 464 OFFCURVE",
"771 442 CURVE SMOOTH"
);
},
{
closed = 1;
nodes = (
"955 583 OFFCURVE",
"869 600 OFFCURVE",
"817 590 CURVE",
"834 570 OFFCURVE",
"855 532 OFFCURVE",
"880 508 CURVE SMOOTH",
"903 487 OFFCURVE",
"929 478 OFFCURVE",
"961 505 CURVE"
);
}
);
vertWidth = 1000;
width = 1000;
}
);
note = cid00853;
unicode = 304C;
},
{
glyphname = "ki-hira";
lastChange = "2020-12-04 08:03:05 +0000";
layers = (
{
hints = (
{
horizontal = 1;
place = "{21, 54}";
type = Stem;
},
{
horizontal = 1;
place = "{132, 68}";
type = Stem;
},
{
place = "{507, 62}";
type = Stem;
}
);
layerId = "F065C3D4-A6F6-48F7-ABC0-534A710C84EA";
paths = (
{
closed = 1;
nodes = (
"692 -25 OFFCURVE",
"709 -29 OFFCURVE",
"714 -24 CURVE",
"715 1 OFFCURVE",
"708 23 OFFCURVE",
"691 44 CURVE SMOOTH",
"680 57 OFFCURVE",
"661 74 OFFCURVE",
"633 95 CURVE SMOOTH",
"606 116 OFFCURVE",
"587 133 OFFCURVE",
"578 145 CURVE",
"577 156 OFFCURVE",
"577 165 OFFCURVE",
"578 172 CURVE SMOOTH",
"579 201 OFFCURVE",
"577 239 OFFCURVE",
"574 285 CURVE SMOOTH",
"570 336 OFFCURVE",
"569 371 OFFCURVE",
"569 392 CURVE SMOOTH",
"569 427 OFFCURVE",
"572 460 OFFCURVE",
"578 491 CURVE",
"599 502 OFFCURVE",
"621 511 OFFCURVE",
"643 523 CURVE SMOOTH",
"670 537 OFFCURVE",
"687 554 OFFCURVE",
"694 572 CURVE",
"688 588 OFFCURVE",
"676 601 OFFCURVE",
"657 611 CURVE SMOOTH",
"646 617 OFFCURVE",
"627 624 OFFCURVE",
"598 633 CURVE",
"592 644 OFFCURVE",
"588 662 OFFCURVE",
"585 687 CURVE SMOOTH",
"582 712 OFFCURVE",
"578 730 OFFCURVE",
"572 741 CURVE",
"541 734 OFFCURVE",
"520 712 OFFCURVE",
"509 677 CURVE SMOOTH",
"502 654 OFFCURVE",
"498 617 OFFCURVE",
"498 568 CURVE",
"480 557 OFFCURVE",
"450 548 OFFCURVE",
"408 543 CURVE SMOOTH",
"357 536 OFFCURVE",
"326 531 OFFCURVE",
"315 528 CURVE",
"317 519 OFFCURVE",
"314 515 OFFCURVE",
"307 515 CURVE",
"332 474 OFFCURVE",
"380 454 OFFCURVE",
"450 454 CURVE SMOOTH",
"463 454 OFFCURVE",
"477 455 OFFCURVE",
"490 457 CURVE",
"491 428 OFFCURVE",
"495 381 OFFCURVE",
"500 315 CURVE SMOOTH",
"505 260 OFFCURVE",
"507 218 OFFCURVE",
"507 189 CURVE",
"506 182 OFFCURVE",
"503 179 OFFCURVE",
"498 180 CURVE SMOOTH",
"443 193 OFFCURVE",
"405 200 OFFCURVE",
"382 200 CURVE SMOOTH",
"365 200 OFFCURVE",
"352 197 OFFCURVE",
"341 192 CURVE",
"338 197 OFFCURVE",
"333 199 OFFCURVE",
"327 199 CURVE SMOOTH",
"317 199 OFFCURVE",
"308 195 OFFCURVE",
"301 186 CURVE",
"297 188 OFFCURVE",
"293 189 OFFCURVE",
"288 189 CURVE SMOOTH",
"275 189 OFFCURVE",
"260 182 OFFCURVE",
"245 169 CURVE SMOOTH",
"230 156 OFFCURVE",
"221 143 OFFCURVE",
"216 128 CURVE",
"223 114 OFFCURVE",
"238 99 OFFCURVE",
"263 82 CURVE SMOOTH",
"288 65 OFFCURVE",
"304 50 OFFCURVE",
"311 37 CURVE",
"324 36 OFFCURVE",
"349 33 OFFCURVE",
"386 28 CURVE SMOOTH",
"418 23 OFFCURVE",
"443 21 OFFCURVE",
"461 21 CURVE SMOOTH",
"478 21 OFFCURVE",
"494 23 OFFCURVE",
"507 26 CURVE SMOOTH",
"512 27 OFFCURVE",
"518 31 OFFCURVE",
"527 37 CURVE SMOOTH",
"534 42 OFFCURVE",
"540 45 OFFCURVE",
"545 44 CURVE",
"564 43 OFFCURVE",
"583 26 OFFCURVE",
"603 -7 CURVE",
"618 -7 OFFCURVE",
"634 -10 OFFCURVE",
"649 -17 CURVE SMOOTH",
"662 -22 OFFCURVE",
"674 -28 OFFCURVE",
"687 -34 CURVE"
);
},
{
closed = 1;
nodes = (
"372 74 OFFCURVE",
"346 86 OFFCURVE",
"335 111 CURVE",
"332 114 OFFCURVE",
"319 110 OFFCURVE",
"315 118 CURVE",
"314 125 OFFCURVE",
"315 128 OFFCURVE",
"318 128 CURVE",
"327 131 OFFCURVE",
"337 132 OFFCURVE",
"346 132 CURVE SMOOTH",
"363 132 OFFCURVE",
"400 123 OFFCURVE",
"415 123 CURVE SMOOTH",
"421 123 OFFCURVE",
"427 124 OFFCURVE",
"432 125 CURVE",
"455 119 OFFCURVE",
"470 111 OFFCURVE",
"477 101 CURVE",
"466 84 OFFCURVE",
"445 76 OFFCURVE",
"415 75 CURVE SMOOTH"
);
}
);
vertWidth = 1000;
width = 1000;
}
);
note = cid00854;
unicode = 304D;
},
{
glyphname = "gi-hira";
lastChange = "2020-12-04 08:03:05 +0000";
layers = (
{
hints = (
{
horizontal = 1;
place = "{15, 54}";
type = Stem;
},
{
horizontal = 1;
place = "{126, 68}";
type = Stem;
},
{
horizontal = 1;
place = "{364, 112}";
type = Stem;
},
{
place = "{487, 62}";
type = Stem;
}
);
layerId = "F065C3D4-A6F6-48F7-ABC0-534A710C84EA";
paths = (
{
closed = 1;
nodes = (
"672 -31 OFFCURVE",
"689 -35 OFFCURVE",
"694 -30 CURVE",
"695 -5 OFFCURVE",
"688 17 OFFCURVE",
"671 38 CURVE SMOOTH",
"660 51 OFFCURVE",
"641 68 OFFCURVE",
"613 89 CURVE SMOOTH",
"586 110 OFFCURVE",
"567 127 OFFCURVE",
"558 139 CURVE",
"557 150 OFFCURVE",
"557 159 OFFCURVE",
"558 166 CURVE SMOOTH",
"559 195 OFFCURVE",
"557 233 OFFCURVE",
"554 279 CURVE SMOOTH",
"550 330 OFFCURVE",
"549 365 OFFCURVE",
"549 386 CURVE SMOOTH",
"549 421 OFFCURVE",
"552 454 OFFCURVE",
"558 485 CURVE",
"579 496 OFFCURVE",
"601 505 OFFCURVE",
"623 517 CURVE SMOOTH",
"650 531 OFFCURVE",
"667 548 OFFCURVE",
"674 566 CURVE",
"668 582 OFFCURVE",
"656 595 OFFCURVE",
"637 605 CURVE SMOOTH",
"626 611 OFFCURVE",
"607 618 OFFCURVE",
"578 627 CURVE",
"572 638 OFFCURVE",
"568 656 OFFCURVE",
"565 681 CURVE SMOOTH",
"562 706 OFFCURVE",
"558 724 OFFCURVE",
"552 735 CURVE",
"521 728 OFFCURVE",
"500 706 OFFCURVE",
"489 671 CURVE SMOOTH",
"482 648 OFFCURVE",
"478 611 OFFCURVE",
"478 562 CURVE",
"460 551 OFFCURVE",
"430 542 OFFCURVE",
"388 537 CURVE SMOOTH",
"337 530 OFFCURVE",
"306 525 OFFCURVE",
"295 522 CURVE",
"297 513 OFFCURVE",
"294 509 OFFCURVE",
"287 509 CURVE",
"312 468 OFFCURVE",
"360 448 OFFCURVE",
"430 448 CURVE SMOOTH",
"443 448 OFFCURVE",
"457 449 OFFCURVE",
"470 451 CURVE",
"471 422 OFFCURVE",
"475 375 OFFCURVE",
"480 309 CURVE SMOOTH",
"485 254 OFFCURVE",
"487 212 OFFCURVE",
"487 183 CURVE",
"486 176 OFFCURVE",
"483 173 OFFCURVE",
"478 174 CURVE SMOOTH",
"423 187 OFFCURVE",
"385 194 OFFCURVE",
"362 194 CURVE SMOOTH",
"345 194 OFFCURVE",
"332 191 OFFCURVE",
"321 186 CURVE",
"318 191 OFFCURVE",
"313 193 OFFCURVE",
"307 193 CURVE SMOOTH",
"297 193 OFFCURVE",
"288 189 OFFCURVE",
"281 180 CURVE",
"277 182 OFFCURVE",
"273 183 OFFCURVE",
"268 183 CURVE SMOOTH",
"255 183 OFFCURVE",
"240 176 OFFCURVE",
"225 163 CURVE SMOOTH",
"210 150 OFFCURVE",
"201 137 OFFCURVE",
"196 122 CURVE",
"203 108 OFFCURVE",
"218 93 OFFCURVE",
"243 76 CURVE SMOOTH",
"268 59 OFFCURVE",
"284 44 OFFCURVE",
"291 31 CURVE",
"304 30 OFFCURVE",
"329 27 OFFCURVE",
"366 22 CURVE SMOOTH",
"398 17 OFFCURVE",
"423 15 OFFCURVE",
"441 15 CURVE SMOOTH",
"458 15 OFFCURVE",
"474 17 OFFCURVE",
"487 20 CURVE SMOOTH",
"492 21 OFFCURVE",
"498 25 OFFCURVE",
"507 31 CURVE SMOOTH",
"514 36 OFFCURVE",
"520 39 OFFCURVE",
"525 38 CURVE",
"544 37 OFFCURVE",
"563 20 OFFCURVE",
"583 -13 CURVE",
"598 -13 OFFCURVE",
"614 -16 OFFCURVE",
"629 -23 CURVE SMOOTH",
"642 -28 OFFCURVE",
"654 -34 OFFCURVE",
"667 -40 CURVE"
);
},
{
closed = 1;
nodes = (
"352 68 OFFCURVE",
"326 80 OFFCURVE",
"315 105 CURVE",
"312 108 OFFCURVE",
"299 104 OFFCURVE",
"295 112 CURVE",
"294 119 OFFCURVE",
"295 122 OFFCURVE",
"298 122 CURVE",
"307 125 OFFCURVE",
"317 126 OFFCURVE",
"326 126 CURVE SMOOTH",
"343 126 OFFCURVE",
"380 117 OFFCURVE",
"395 117 CURVE SMOOTH",
"401 117 OFFCURVE",
"407 118 OFFCURVE",
"412 119 CURVE",
"435 113 OFFCURVE",
"450 105 OFFCURVE",
"457 95 CURVE",
"446 78 OFFCURVE",
"425 70 OFFCURVE",
"395 69 CURVE SMOOTH"
);
},
{
closed = 1;
nodes = (
"765 361 OFFCURVE",
"791 357 OFFCURVE",
"816 384 CURVE",
"805 448 OFFCURVE",
"743 490 OFFCURVE",
"678 472 CURVE",
"687 445 OFFCURVE",
"712 400 OFFCURVE",
"742 378 CURVE SMOOTH"
);
},
{
closed = 1;
nodes = (
"926 519 OFFCURVE",
"840 536 OFFCURVE",
"788 526 CURVE",
"805 506 OFFCURVE",
"826 468 OFFCURVE",
"851 444 CURVE SMOOTH",
"874 423 OFFCURVE",
"900 414 OFFCURVE",
"932 441 CURVE"
);
}
);
vertWidth = 1000;
width = 1000;
}
);
note = cid00855;
unicode = 304E;
},
{
glyphname = "ku-hira";
lastChange = "2020-12-04 08:03:05 +0000";
layers = (
{
hints = (
{
horizontal = 1;
place = "{653, 47}";
type = Stem;
},
{
place = "{516, 63}";
type = Stem;
},
{
place = "{662, 79}";
type = Stem;
},
{
place = "{488, 88}";
type = Stem;
}
);
layerId = "F065C3D4-A6F6-48F7-ABC0-534A710C84EA";
paths = (
{
closed = 1;
nodes = (
"547 -62 OFFCURVE",
"580 -54 OFFCURVE",
"617 -39 CURVE SMOOTH",
"661 -20 OFFCURVE",
"682 3 OFFCURVE",
"680 30 CURVE SMOOTH",
"678 51 OFFCURVE",
"665 72 OFFCURVE",
"638 85 CURVE SMOOTH",
"572 118 LINE",
"575 138 OFFCURVE",
"576 156 OFFCURVE",
"576 172 CURVE SMOOTH",
"576 212 OFFCURVE",
"567 245 OFFCURVE",
"548 270 CURVE",
"560 300 OFFCURVE",
"570 323 OFFCURVE",
"578 338 CURVE",
"574 338 OFFCURVE",
"565 329 OFFCURVE",
"564 329 CURVE SMOOTH",
"563 329 OFFCURVE",
"563 330 OFFCURVE",
"562 331 CURVE",
"565 347 OFFCURVE",
"592 354 OFFCURVE",
"595 359 CURVE",
"602 361 OFFCURVE",
"606 366 OFFCURVE",
"609 375 CURVE",
"619 373 OFFCURVE",
"630 376 OFFCURVE",
"641 384 CURVE SMOOTH",
"660 397 OFFCURVE",
"670 403 OFFCURVE",
"670 403 CURVE",
"672 409 OFFCURVE",
"672 413 OFFCURVE",
"670 415 CURVE",
"721 461 OFFCURVE",
"745 529 OFFCURVE",
"741 619 CURVE",
"714 650 OFFCURVE",
"697 668 OFFCURVE",
"690 673 CURVE SMOOTH",
"670 690 OFFCURVE",
"647 699 OFFCURVE",
"622 700 CURVE SMOOTH",
"594 701 OFFCURVE",
"562 696 OFFCURVE",
"529 680 CURVE SMOOTH",
"473 652 OFFCURVE",
"434 628 OFFCURVE",
"409 613 CURVE",
"416 629 OFFCURVE",
"419 645 OFFCURVE",
"419 662 CURVE SMOOTH",
"419 700 OFFCURVE",
"405 730 OFFCURVE",
"376 751 CURVE",
"357 695 OFFCURVE",
"337 639 OFFCURVE",
"317 584 CURVE SMOOTH",
"294 522 OFFCURVE",
"267 473 OFFCURVE",
"237 436 CURVE",
"238 427 OFFCURVE",
"236 417 OFFCURVE",
"233 406 CURVE",
"237 403 OFFCURVE",
"245 389 OFFCURVE",
"258 366 CURVE SMOOTH",
"268 349 OFFCURVE",
"279 341 OFFCURVE",
"291 342 CURVE",
"298 355 OFFCURVE",
"306 374 OFFCURVE",
"318 374 CURVE SMOOTH",
"320 374 OFFCURVE",
"322 373 OFFCURVE",
"324 372 CURVE",
"380 501 OFFCURVE",
"460 590 OFFCURVE",
"565 639 CURVE",
"604 648 LINE SMOOTH",
"620 652 OFFCURVE",
"636 654 OFFCURVE",
"653 653 CURVE",
"659 640 OFFCURVE",
"662 624 OFFCURVE",
"662 605 CURVE SMOOTH",
"662 551 OFFCURVE",
"636 498 OFFCURVE",
"583 447 CURVE",
"576 472 OFFCURVE",
"578 495 OFFCURVE",
"589 514 CURVE",
"568 535 OFFCURVE",
"548 545 OFFCURVE",
"528 545 CURVE SMOOTH",
"497 545 OFFCURVE",
"460 522 OFFCURVE",
"433 467 CURVE SMOOTH",
"373 348 LINE",
"370 345 OFFCURVE",
"368 342 OFFCURVE",
"367 338 CURVE",
"367 333 OFFCURVE",
"370 330 OFFCURVE",
"376 328 CURVE",
"386 329 OFFCURVE",
"396 332 OFFCURVE",
"406 338 CURVE",
"426 319 OFFCURVE",
"451 307 OFFCURVE",
"481 304 CURVE",
"476 287 OFFCURVE",
"473 276 OFFCURVE",
"470 270 CURVE",
"484 259 OFFCURVE",
"491 241 OFFCURVE",
"492 218 CURVE SMOOTH",
"492 210 OFFCURVE",
"491 193 OFFCURVE",
"488 168 CURVE SMOOTH",
"486 147 OFFCURVE",
"486 130 OFFCURVE",
"487 118 CURVE SMOOTH",
"492 79 OFFCURVE",
"517 51 OFFCURVE",
"562 33 CURVE",
"545 15 OFFCURVE",
"515 -8 OFFCURVE",
"470 -29 CURVE SMOOTH",
"409 -58 LINE",
"442 -50 OFFCURVE",
"478 -51 OFFCURVE",
"517 -61 CURVE"
);
},
{
closed = 1;
nodes = (
"459 412 OFFCURVE",
"476 448 OFFCURVE",
"511 477 CURVE",
"514 471 OFFCURVE",
"516 463 OFFCURVE",
"516 452 CURVE SMOOTH",
"516 431 OFFCURVE",
"511 408 OFFCURVE",
"501 382 CURVE",
"485 373 OFFCURVE",
"471 369 OFFCURVE",
"460 368 CURVE"
);
}
);
vertWidth = 1000;
width = 1000;
}
);
note = cid00856;
unicode = 304F;
},
{
glyphname = "gu-hira";
lastChange = "2020-12-04 08:03:05 +0000";
layers = (
{
hints = (
{
horizontal = 1;
place = "{243, 112}";
type = Stem;
},
{
horizontal = 1;
place = "{649, 47}";
type = Stem;
},
{
place = "{500, 63}";
type = Stem;
},
{
place = "{646, 79}";
type = Stem;
},
{
place = "{472, 88}";
type = Stem;
}
);
layerId = "F065C3D4-A6F6-48F7-ABC0-534A710C84EA";
paths = (
{
closed = 1;
nodes = (
"531 -66 OFFCURVE",
"564 -58 OFFCURVE",
"601 -43 CURVE SMOOTH",
"645 -24 OFFCURVE",
"666 -1 OFFCURVE",
"664 26 CURVE SMOOTH",
"662 47 OFFCURVE",
"649 68 OFFCURVE",
"622 81 CURVE SMOOTH",
"556 114 LINE",
"559 134 OFFCURVE",
"560 152 OFFCURVE",
"560 168 CURVE SMOOTH",
"560 208 OFFCURVE",
"551 241 OFFCURVE",
"532 266 CURVE",
"544 296 OFFCURVE",
"554 319 OFFCURVE",
"562 334 CURVE",
"558 334 OFFCURVE",
"549 325 OFFCURVE",
"548 325 CURVE SMOOTH",
"547 325 OFFCURVE",
"547 326 OFFCURVE",
"546 327 CURVE",
"549 343 OFFCURVE",
"576 350 OFFCURVE",
"579 355 CURVE",
"586 357 OFFCURVE",
"590 362 OFFCURVE",
"593 371 CURVE",
"603 369 OFFCURVE",
"614 372 OFFCURVE",
"625 380 CURVE SMOOTH",
"644 393 OFFCURVE",
"654 399 OFFCURVE",
"654 399 CURVE",
"656 405 OFFCURVE",
"656 409 OFFCURVE",
"654 411 CURVE",
"705 457 OFFCURVE",
"729 525 OFFCURVE",
"725 615 CURVE",
"698 646 OFFCURVE",
"681 664 OFFCURVE",
"674 669 CURVE SMOOTH",
"654 686 OFFCURVE",
"631 695 OFFCURVE",
"606 696 CURVE SMOOTH",
"578 697 OFFCURVE",
"546 692 OFFCURVE",
"513 676 CURVE SMOOTH",
"457 648 OFFCURVE",
"418 624 OFFCURVE",
"393 609 CURVE",
"400 625 OFFCURVE",
"403 641 OFFCURVE",
"403 658 CURVE SMOOTH",
"403 696 OFFCURVE",
"389 726 OFFCURVE",
"360 747 CURVE",
"341 691 OFFCURVE",
"321 635 OFFCURVE",
"301 580 CURVE SMOOTH",
"278 518 OFFCURVE",
"251 469 OFFCURVE",
"221 432 CURVE",
"222 423 OFFCURVE",
"220 413 OFFCURVE",
"217 402 CURVE",
"221 399 OFFCURVE",
"229 385 OFFCURVE",
"242 362 CURVE SMOOTH",
"252 345 OFFCURVE",
"263 337 OFFCURVE",
"275 338 CURVE",
"282 351 OFFCURVE",
"290 370 OFFCURVE",
"302 370 CURVE SMOOTH",
"304 370 OFFCURVE",
"306 369 OFFCURVE",
"308 368 CURVE",
"364 497 OFFCURVE",
"444 586 OFFCURVE",
"549 635 CURVE",
"588 644 LINE SMOOTH",
"604 648 OFFCURVE",
"620 650 OFFCURVE",
"637 649 CURVE",
"643 636 OFFCURVE",
"646 620 OFFCURVE",
"646 601 CURVE SMOOTH",
"646 547 OFFCURVE",
"620 494 OFFCURVE",
"567 443 CURVE",
"560 468 OFFCURVE",
"562 491 OFFCURVE",
"573 510 CURVE",
"552 531 OFFCURVE",
"532 541 OFFCURVE",
"512 541 CURVE SMOOTH",
"481 541 OFFCURVE",
"444 518 OFFCURVE",
"417 463 CURVE SMOOTH",
"357 344 LINE",
"354 341 OFFCURVE",
"352 338 OFFCURVE",
"351 334 CURVE",
"351 329 OFFCURVE",
"354 326 OFFCURVE",
"360 324 CURVE",
"370 325 OFFCURVE",
"380 328 OFFCURVE",
"390 334 CURVE",
"410 315 OFFCURVE",
"435 303 OFFCURVE",
"465 300 CURVE",
"460 283 OFFCURVE",
"457 272 OFFCURVE",
"454 266 CURVE",
"468 255 OFFCURVE",
"475 237 OFFCURVE",
"476 214 CURVE SMOOTH",
"476 206 OFFCURVE",
"475 189 OFFCURVE",
"472 164 CURVE SMOOTH",
"470 143 OFFCURVE",
"470 126 OFFCURVE",
"471 114 CURVE SMOOTH",
"476 75 OFFCURVE",
"501 47 OFFCURVE",
"546 29 CURVE",
"529 11 OFFCURVE",
"499 -12 OFFCURVE",
"454 -33 CURVE SMOOTH",
"393 -62 LINE",
"426 -54 OFFCURVE",
"462 -55 OFFCURVE",
"501 -65 CURVE"
);
},
{
closed = 1;
nodes = (
"443 408 OFFCURVE",
"460 444 OFFCURVE",
"495 473 CURVE",
"498 467 OFFCURVE",
"500 459 OFFCURVE",
"500 448 CURVE SMOOTH",
"500 427 OFFCURVE",
"495 404 OFFCURVE",
"485 378 CURVE",
"469 369 OFFCURVE",
"455 365 OFFCURVE",
"444 364 CURVE"
);
},
{
closed = 1;
nodes = (
"769 240 OFFCURVE",
"795 236 OFFCURVE",
"820 263 CURVE",
"809 327 OFFCURVE",
"747 369 OFFCURVE",
"682 351 CURVE",
"691 324 OFFCURVE",
"716 279 OFFCURVE",
"746 257 CURVE SMOOTH"
);
},
{
closed = 1;
nodes = (
"930 398 OFFCURVE",
"844 415 OFFCURVE",
"792 405 CURVE",
"809 385 OFFCURVE",
"830 347 OFFCURVE",
"855 323 CURVE SMOOTH",
"878 302 OFFCURVE",
"904 293 OFFCURVE",
"936 320 CURVE"
);
}
);
vertWidth = 1000;
width = 1000;
}
);
note = cid00857;
unicode = 3050;
},
{
glyphname = "ke-hira";
lastChange = "2020-12-04 08:03:05 +0000";
layers = (
{
hints = (
{
horizontal = 1;
place = "{-6, 742}";
type = Stem;
},
{
place = "{200, 551}";
type = Stem;
}
);
layerId = "F065C3D4-A6F6-48F7-ABC0-534A710C84EA";
paths = (
{
closed = 1;
nodes = (
"423 0 OFFCURVE",
"441 4 OFFCURVE",
"464 7 CURVE SMOOTH",
"470 8 OFFCURVE",
"487 9 OFFCURVE",
"516 11 CURVE",
"528 9 OFFCURVE",
"539 9 OFFCURVE",
"548 11 CURVE",
"553 10 OFFCURVE",
"558 10 OFFCURVE",
"563 10 CURVE SMOOTH",
"586 10 OFFCURVE",
"609 16 OFFCURVE",
"631 27 CURVE SMOOTH",
"654 38 OFFCURVE",
"667 53 OFFCURVE",
"670 72 CURVE SMOOTH",
"673 93 OFFCURVE",
"667 111 OFFCURVE",
"651 125 CURVE SMOOTH",
"643 132 OFFCURVE",
"626 141 OFFCURVE",
"599 154 CURVE SMOOTH",
"573 166 OFFCURVE",
"556 178 OFFCURVE",
"548 188 CURVE",
"552 196 OFFCURVE",
"564 212 OFFCURVE",
"583 236 CURVE SMOOTH",
"598 255 OFFCURVE",
"607 272 OFFCURVE",
"609 285 CURVE",
"627 287 OFFCURVE",
"644 304 OFFCURVE",
"661 336 CURVE",
"678 347 OFFCURVE",
"696 363 OFFCURVE",
"711 386 CURVE SMOOTH",
"751 446 LINE",
"754 486 OFFCURVE",
"733 519 OFFCURVE",
"689 543 CURVE SMOOTH",
"652 563 OFFCURVE",
"612 572 OFFCURVE",
"569 572 CURVE SMOOTH",
"545 572 OFFCURVE",
"526 569 OFFCURVE",
"512 562 CURVE",
"523 545 OFFCURVE",
"544 531 OFFCURVE",
"576 518 CURVE SMOOTH",
"617 502 OFFCURVE",
"642 491 OFFCURVE",
"651 485 CURVE",
"626 419 OFFCURVE",
"584 349 OFFCURVE",
"522 278 CURVE SMOOTH",
"512 266 OFFCURVE",
"499 257 OFFCURVE",
"488 247 CURVE SMOOTH",
"474 234 OFFCURVE",
"466 222 OFFCURVE",
"464 211 CURVE SMOOTH",
"463 206 OFFCURVE",
"463 202 OFFCURVE",
"463 198 CURVE SMOOTH",
"463 163 OFFCURVE",
"489 132 OFFCURVE",
"541 104 CURVE",
"529 88 OFFCURVE",
"503 67 OFFCURVE",
"463 40 CURVE SMOOTH",
"428 17 OFFCURVE",
"410 1 OFFCURVE",
"409 -6 CURVE"
);
},
{
closed = 1;
nodes = (
"263 293 OFFCURVE",
"269 304 OFFCURVE",
"279 312 CURVE SMOOTH",
"306 336 LINE",
"299 336 OFFCURVE",
"296 337 OFFCURVE",
"296 340 CURVE",
"308 345 OFFCURVE",
"321 357 OFFCURVE",
"336 375 CURVE SMOOTH",
"351 394 OFFCURVE",
"364 406 OFFCURVE",
"374 411 CURVE",
"383 434 OFFCURVE",
"406 474 OFFCURVE",
"443 529 CURVE SMOOTH",
"476 579 OFFCURVE",
"498 621 OFFCURVE",
"509 656 CURVE",
"505 671 OFFCURVE",
"499 685 OFFCURVE",
"490 699 CURVE SMOOTH",
"485 707 OFFCURVE",
"477 719 OFFCURVE",
"464 736 CURVE",
"424 650 OFFCURVE",
"389 583 OFFCURVE",
"358 536 CURVE SMOOTH",
"314 469 OFFCURVE",
"265 414 OFFCURVE",
"212 372 CURVE",
"215 359 OFFCURVE",
"200 348 OFFCURVE",
"200 340 CURVE",
"209 329 OFFCURVE",
"214 314 OFFCURVE",
"216 294 CURVE",
"258 282 LINE"
);
}
);
vertWidth = 1000;
width = 1000;
}
);
note = cid00858;
unicode = 3051;
},
{
glyphname = "ge-hira";
lastChange = "2020-12-04 08:03:05 +0000";
layers = (
{
hints = (
{
horizontal = 1;
place = "{558, 112}";
type = Stem;
},
{
place = "{182, 739}";
type = Stem;
}
);
layerId = "F065C3D4-A6F6-48F7-ABC0-534A710C84EA";
paths = (
{
closed = 1;
nodes = (
"405 -6 OFFCURVE",
"423 -2 OFFCURVE",
"446 1 CURVE SMOOTH",
"452 2 OFFCURVE",
"469 3 OFFCURVE",
"498 5 CURVE",
"510 3 OFFCURVE",
"521 3 OFFCURVE",
"530 5 CURVE",
"535 4 OFFCURVE",
"540 4 OFFCURVE",
"545 4 CURVE SMOOTH",
"568 4 OFFCURVE",
"591 10 OFFCURVE",
"613 21 CURVE SMOOTH",
"636 32 OFFCURVE",
"649 47 OFFCURVE",
"652 66 CURVE SMOOTH",
"655 87 OFFCURVE",
"649 105 OFFCURVE",
"633 119 CURVE SMOOTH",
"625 126 OFFCURVE",
"608 135 OFFCURVE",
"581 148 CURVE SMOOTH",
"555 160 OFFCURVE",
"538 172 OFFCURVE",
"530 182 CURVE",
"534 190 OFFCURVE",
"546 206 OFFCURVE",
"565 230 CURVE SMOOTH",
"580 249 OFFCURVE",
"589 266 OFFCURVE",
"591 279 CURVE",
"609 281 OFFCURVE",
"626 298 OFFCURVE",
"643 330 CURVE",
"660 341 OFFCURVE",
"678 357 OFFCURVE",
"693 380 CURVE SMOOTH",
"733 440 LINE",
"736 480 OFFCURVE",
"715 513 OFFCURVE",
"671 537 CURVE SMOOTH",
"634 557 OFFCURVE",
"594 566 OFFCURVE",
"551 566 CURVE SMOOTH",
"527 566 OFFCURVE",
"508 563 OFFCURVE",
"494 556 CURVE",
"505 539 OFFCURVE",
"526 525 OFFCURVE",
"558 512 CURVE SMOOTH",
"599 496 OFFCURVE",
"624 485 OFFCURVE",
"633 479 CURVE",
"608 413 OFFCURVE",
"566 343 OFFCURVE",
"504 272 CURVE SMOOTH",
"494 260 OFFCURVE",
"481 251 OFFCURVE",
"470 241 CURVE SMOOTH",
"456 228 OFFCURVE",
"448 216 OFFCURVE",
"446 205 CURVE SMOOTH",
"445 200 OFFCURVE",
"445 196 OFFCURVE",
"445 192 CURVE SMOOTH",
"445 157 OFFCURVE",
"471 126 OFFCURVE",
"523 98 CURVE",
"511 82 OFFCURVE",
"485 61 OFFCURVE",
"445 34 CURVE SMOOTH",
"410 11 OFFCURVE",
"392 -5 OFFCURVE",
"391 -12 CURVE"
);
},
{
closed = 1;
nodes = (
"245 287 OFFCURVE",
"251 298 OFFCURVE",
"261 306 CURVE SMOOTH",
"288 330 LINE",
"281 330 OFFCURVE",
"278 331 OFFCURVE",
"278 334 CURVE",
"290 339 OFFCURVE",
"303 351 OFFCURVE",
"318 369 CURVE SMOOTH",
"333 388 OFFCURVE",
"346 400 OFFCURVE",
"356 405 CURVE",
"365 428 OFFCURVE",
"388 468 OFFCURVE",
"425 523 CURVE SMOOTH",
"458 573 OFFCURVE",
"480 615 OFFCURVE",
"491 650 CURVE",
"487 665 OFFCURVE",
"481 679 OFFCURVE",
"472 693 CURVE SMOOTH",
"467 701 OFFCURVE",
"459 713 OFFCURVE",
"446 730 CURVE",
"406 644 OFFCURVE",
"371 577 OFFCURVE",
"340 530 CURVE SMOOTH",
"296 463 OFFCURVE",
"247 408 OFFCURVE",
"194 366 CURVE",
"197 353 OFFCURVE",
"182 342 OFFCURVE",
"182 334 CURVE",
"191 323 OFFCURVE",
"196 308 OFFCURVE",
"198 288 CURVE",
"240 276 LINE"
);
},
{
closed = 1;
nodes = (
"754 555 OFFCURVE",
"780 551 OFFCURVE",
"805 578 CURVE",
"794 642 OFFCURVE",
"732 684 OFFCURVE",
"667 666 CURVE",
"676 639 OFFCURVE",
"701 594 OFFCURVE",
"731 572 CURVE SMOOTH"
);
},
{
closed = 1;
nodes = (
"915 713 OFFCURVE",
"829 730 OFFCURVE",
"777 720 CURVE",
"794 700 OFFCURVE",
"815 662 OFFCURVE",
"840 638 CURVE SMOOTH",
"863 617 OFFCURVE",
"889 608 OFFCURVE",
"921 635 CURVE"
);
}
);
vertWidth = 1000;
width = 1000;
}
);
note = cid00859;
unicode = 3052;
},
{
glyphname = "ko-hira";
lastChange = "2020-12-04 08:03:05 +0000";
layers = (
{
hints = (
{
horizontal = 1;
place = "{30, 16}";
type = Stem;
},
{
horizontal = 1;
place = "{534, 13}";
type = Stem;
},
{
place = "{203, 79}";
type = Stem;
},
{
place = "{438, 81}";
type = Stem;
},
{
place = "{666, 79}";
type = Stem;
},
{
place = "{300, 81}";
type = Stem;
}
);
layerId = "F065C3D4-A6F6-48F7-ABC0-534A710C84EA";
paths = (
{
closed = 1;
nodes = (
"471 28 OFFCURVE",
"490 54 OFFCURVE",
"500 92 CURVE SMOOTH",
"524 183 LINE",
"517 184 OFFCURVE",
"514 185 OFFCURVE",
"514 186 CURVE SMOOTH",
"517 198 OFFCURVE",
"519 211 OFFCURVE",
"519 226 CURVE SMOOTH",
"519 249 OFFCURVE",
"515 274 OFFCURVE",
"507 301 CURVE",
"568 408 LINE SMOOTH",
"591 449 OFFCURVE",
"621 476 OFFCURVE",
"652 491 CURVE",
"661 469 OFFCURVE",
"666 444 OFFCURVE",
"666 417 CURVE SMOOTH",
"666 401 OFFCURVE",
"663 375 OFFCURVE",
"658 339 CURVE SMOOTH",
"653 304 OFFCURVE",
"651 276 OFFCURVE",
"652 257 CURVE",
"665 241 OFFCURVE",
"687 231 OFFCURVE",
"717 226 CURVE SMOOTH",
"758 220 OFFCURVE",
"784 215 OFFCURVE",
"795 210 CURVE",
"790 201 OFFCURVE",
"779 187 OFFCURVE",
"762 168 CURVE SMOOTH",
"745 150 OFFCURVE",
"736 136 OFFCURVE",
"734 125 CURVE",
"728 127 OFFCURVE",
"723 128 OFFCURVE",
"720 128 CURVE",
"709 115 OFFCURVE",
"689 101 OFFCURVE",
"661 85 CURVE SMOOTH",
"630 68 OFFCURVE",
"610 54 OFFCURVE",
"599 44 CURVE",
"594 45 OFFCURVE",
"589 46 OFFCURVE",
"583 46 CURVE SMOOTH",
"563 46 OFFCURVE",
"545 41 OFFCURVE",
"530 30 CURVE",
"544 25 OFFCURVE",
"561 25 OFFCURVE",
"581 30 CURVE",
"580 25 OFFCURVE",
"582 20 OFFCURVE",
"587 17 CURVE SMOOTH",
"595 12 OFFCURVE",
"599 10 OFFCURVE",
"599 9 CURVE",
"634 10 OFFCURVE",
"660 10 OFFCURVE",
"676 9 CURVE",
"695 42 OFFCURVE",
"732 62 OFFCURVE",
"785 67 CURVE",
"791 74 OFFCURVE",
"811 89 OFFCURVE",
"846 112 CURVE SMOOTH",
"873 130 OFFCURVE",
"887 148 OFFCURVE",
"890 166 CURVE",
"887 164 OFFCURVE",
"885 163 OFFCURVE",
"883 163 CURVE",
"886 172 OFFCURVE",
"888 180 OFFCURVE",
"888 188 CURVE SMOOTH",
"888 228 OFFCURVE",
"842 263 OFFCURVE",
"751 294 CURVE",
"756 302 OFFCURVE",
"756 306 OFFCURVE",
"750 307 CURVE",
"748 296 OFFCURVE",
"745 291 OFFCURVE",
"740 291 CURVE",
"743 339 OFFCURVE",
"745 372 OFFCURVE",
"745 391 CURVE SMOOTH",
"745 444 OFFCURVE",
"738 490 OFFCURVE",
"724 528 CURVE",
"723 528 OFFCURVE",
"710 532 OFFCURVE",
"684 539 CURVE SMOOTH",
"663 544 OFFCURVE",
"646 547 OFFCURVE",
"633 547 CURVE SMOOTH",
"626 547 OFFCURVE",
"619 546 OFFCURVE",
"612 545 CURVE SMOOTH",
"603 543 OFFCURVE",
"593 536 OFFCURVE",
"580 525 CURVE SMOOTH",
"568 514 OFFCURVE",
"562 506 OFFCURVE",
"562 499 CURVE SMOOTH",
"562 497 OFFCURVE",
"563 495 OFFCURVE",
"564 494 CURVE",
"572 503 OFFCURVE",
"582 513 OFFCURVE",
"594 522 CURVE SMOOTH",
"607 532 OFFCURVE",
"615 536 OFFCURVE",
"619 534 CURVE",
"621 532 OFFCURVE",
"621 530 OFFCURVE",
"619 528 CURVE",
"604 521 OFFCURVE",
"587 505 OFFCURVE",
"568 481 CURVE SMOOTH",
"549 457 OFFCURVE",
"535 442 OFFCURVE",
"527 437 CURVE",
"540 451 OFFCURVE",
"546 461 OFFCURVE",
"546 467 CURVE SMOOTH",
"546 468 OFFCURVE",
"545 469 OFFCURVE",
"544 470 CURVE",
"539 463 OFFCURVE",
"536 461 OFFCURVE",
"534 464 CURVE",
"543 475 OFFCURVE",
"558 487 OFFCURVE",
"555 495 CURVE",
"544 486 OFFCURVE",
"530 468 OFFCURVE",
"513 442 CURVE SMOOTH",
"496 417 OFFCURVE",
"482 399 OFFCURVE",
"469 390 CURVE",
"463 409 OFFCURVE",
"449 419 OFFCURVE",
"428 419 CURVE SMOOTH",
"408 419 OFFCURVE",
"386 409 OFFCURVE",
"361 390 CURVE SMOOTH",
"332 367 OFFCURVE",
"318 356 OFFCURVE",
"317 356 CURVE",
"324 373 OFFCURVE",
"332 400 OFFCURVE",
"339 437 CURVE SMOOTH",
"347 475 OFFCURVE",
"354 502 OFFCURVE",
"361 518 CURVE",
"409 541 OFFCURVE",
"445 556 OFFCURVE",
"469 565 CURVE",
"492 578 OFFCURVE",
"522 593 OFFCURVE",
"522 614 CURVE SMOOTH",
"522 619 OFFCURVE",
"520 626 OFFCURVE",
"517 633 CURVE",
"462 661 OFFCURVE",
"422 682 OFFCURVE",
"398 697 CURVE",
"396 693 OFFCURVE",
"395 689 OFFCURVE",
"395 685 CURVE SMOOTH",
"395 678 OFFCURVE",
"398 669 OFFCURVE",
"405 660 CURVE SMOOTH",
"412 649 OFFCURVE",
"417 641 OFFCURVE",
"418 638 CURVE",
"411 629 OFFCURVE",
"399 622 OFFCURVE",
"381 616 CURVE",
"380 631 OFFCURVE",
"383 651 OFFCURVE",
"389 677 CURVE SMOOTH",
"395 704 OFFCURVE",
"398 722 OFFCURVE",
"398 733 CURVE SMOOTH",
"399 756 OFFCURVE",
"391 775 OFFCURVE",
"375 789 CURVE",
"352 778 OFFCURVE",
"336 757 OFFCURVE",
"328 724 CURVE SMOOTH",
"324 709 OFFCURVE",
"320 681 OFFCURVE",
"317 639 CURVE",
"306 622 OFFCURVE",
"300 605 OFFCURVE",
"300 589 CURVE",
"229 570 LINE SMOOTH",
"200 562 OFFCURVE",
"175 558 OFFCURVE",
"154 555 CURVE",
"163 538 OFFCURVE",
"182 524 OFFCURVE",
"211 513 CURVE",
"284 495 LINE",
"257 323 OFFCURVE",
"226 198 OFFCURVE",
"192 119 CURVE",
"200 118 OFFCURVE",
"205 114 OFFCURVE",
"204 107 CURVE SMOOTH",
"202 84 LINE",
"227 49 LINE SMOOTH",
"237 35 OFFCURVE",
"250 28 OFFCURVE",
"266 27 CURVE",
"275 34 OFFCURVE",
"281 45 OFFCURVE",
"282 60 CURVE",
"283 64 OFFCURVE",
"283 77 OFFCURVE",
"282 98 CURVE SMOOTH",
"282 113 OFFCURVE",
"284 126 OFFCURVE",
"287 135 CURVE",
"294 144 OFFCURVE",
"299 151 OFFCURVE",
"304 155 CURVE",
"346 258 LINE SMOOTH",
"362 297 OFFCURVE",
"385 325 OFFCURVE",
"412 342 CURVE",
"419 337 OFFCURVE",
"421 327 OFFCURVE",
"419 312 CURVE SMOOTH",
"418 300 OFFCURVE",
"411 286 OFFCURVE",
"398 271 CURVE SMOOTH",
"364 233 LINE SMOOTH",
"351 218 OFFCURVE",
"342 197 OFFCURVE",
"334 174 CURVE SMOOTH",
"330 163 OFFCURVE",
"323 142 OFFCURVE",
"314 111 CURVE",
"312 112 OFFCURVE",
"310 112 OFFCURVE",
"309 113 CURVE",
"308 112 OFFCURVE",
"308 110 OFFCURVE",
"307 108 CURVE",
"319 41 OFFCURVE",
"367 8 OFFCURVE",
"450 9 CURVE"
);
},
{
closed = 1;
nodes = (
"387 77 OFFCURVE",
"386 84 OFFCURVE",
"386 91 CURVE SMOOTH",
"386 122 OFFCURVE",
"401 160 OFFCURVE",
"432 205 CURVE",
"436 195 OFFCURVE",
"438 183 OFFCURVE",
"438 170 CURVE SMOOTH",
"438 148 OFFCURVE",
"434 128 OFFCURVE",
"425 109 CURVE SMOOTH",
"416 88 OFFCURVE",
"404 76 OFFCURVE",
"389 71 CURVE"
);
}
);
vertWidth = 1000;
width = 1000;
}
);
note = cid00860;
unicode = 3053;
},
{
glyphname = "go-hira";
lastChange = "2020-12-04 08:03:05 +0000";
layers = (
{
hints = (
{
horizontal = 1;
place = "{30, 16}";
type = Stem;
},
{
horizontal = 1;
place = "{534, 13}";
type = Stem;
},
{
horizontal = 1;
place = "{578, 112}";
type = Stem;
},
{
place = "{203, 79}";
type = Stem;
},
{
place = "{438, 81}";
type = Stem;
},
{
place = "{666, 79}";
type = Stem;
},
{
place = "{300, 81}";
type = Stem;
}
);
layerId = "F065C3D4-A6F6-48F7-ABC0-534A710C84EA";
paths = (
{
closed = 1;
nodes = (
"471 28 OFFCURVE",
"490 54 OFFCURVE",
"500 92 CURVE SMOOTH",
"524 183 LINE",
"517 184 OFFCURVE",
"514 185 OFFCURVE",
"514 186 CURVE SMOOTH",
"517 198 OFFCURVE",
"519 211 OFFCURVE",
"519 226 CURVE SMOOTH",
"519 249 OFFCURVE",
"515 274 OFFCURVE",
"507 301 CURVE",
"568 408 LINE SMOOTH",
"591 449 OFFCURVE",
"621 476 OFFCURVE",
"652 491 CURVE",
"661 469 OFFCURVE",
"666 444 OFFCURVE",
"666 417 CURVE SMOOTH",
"666 401 OFFCURVE",
"663 375 OFFCURVE",
"658 339 CURVE SMOOTH",
"653 304 OFFCURVE",
"651 276 OFFCURVE",
"652 257 CURVE",
"665 241 OFFCURVE",
"687 231 OFFCURVE",
"717 226 CURVE SMOOTH",
"758 220 OFFCURVE",
"784 215 OFFCURVE",
"795 210 CURVE",
"790 201 OFFCURVE",
"779 187 OFFCURVE",
"762 168 CURVE SMOOTH",
"745 150 OFFCURVE",
"736 136 OFFCURVE",
"734 125 CURVE",
"728 127 OFFCURVE",
"723 128 OFFCURVE",
"720 128 CURVE",
"709 115 OFFCURVE",
"689 101 OFFCURVE",
"661 85 CURVE SMOOTH",
"630 68 OFFCURVE",
"610 54 OFFCURVE",
"599 44 CURVE",
"594 45 OFFCURVE",
"589 46 OFFCURVE",
"583 46 CURVE SMOOTH",
"563 46 OFFCURVE",
"545 41 OFFCURVE",
"530 30 CURVE",
"544 25 OFFCURVE",
"561 25 OFFCURVE",
"581 30 CURVE",
"580 25 OFFCURVE",
"582 20 OFFCURVE",
"587 17 CURVE SMOOTH",
"595 12 OFFCURVE",
"599 10 OFFCURVE",
"599 9 CURVE",
"634 10 OFFCURVE",
"660 10 OFFCURVE",
"676 9 CURVE",
"695 42 OFFCURVE",
"732 62 OFFCURVE",
"785 67 CURVE",
"791 74 OFFCURVE",
"811 89 OFFCURVE",
"846 112 CURVE SMOOTH",
"873 130 OFFCURVE",
"887 148 OFFCURVE",
"890 166 CURVE",
"887 164 OFFCURVE",
"885 163 OFFCURVE",
"883 163 CURVE",
"886 172 OFFCURVE",
"888 180 OFFCURVE",
"888 188 CURVE SMOOTH",
"888 228 OFFCURVE",
"842 263 OFFCURVE",
"751 294 CURVE",
"756 302 OFFCURVE",
"756 306 OFFCURVE",
"750 307 CURVE",
"748 296 OFFCURVE",
"745 291 OFFCURVE",
"740 291 CURVE",
"743 339 OFFCURVE",
"745 372 OFFCURVE",
"745 391 CURVE SMOOTH",
"745 444 OFFCURVE",
"738 490 OFFCURVE",
"724 528 CURVE",
"723 528 OFFCURVE",
"710 532 OFFCURVE",
"684 539 CURVE SMOOTH",
"663 544 OFFCURVE",
"646 547 OFFCURVE",
"633 547 CURVE SMOOTH",
"626 547 OFFCURVE",
"619 546 OFFCURVE",
"612 545 CURVE SMOOTH",
"603 543 OFFCURVE",
"593 536 OFFCURVE",
"580 525 CURVE SMOOTH",
"568 514 OFFCURVE",
"562 506 OFFCURVE",
"562 499 CURVE SMOOTH",
"562 497 OFFCURVE",
"563 495 OFFCURVE",
"564 494 CURVE",
"572 503 OFFCURVE",
"582 513 OFFCURVE",
"594 522 CURVE SMOOTH",
"607 532 OFFCURVE",
"615 536 OFFCURVE",
"619 534 CURVE",
"621 532 OFFCURVE",
"621 530 OFFCURVE",
"619 528 CURVE",
"604 521 OFFCURVE",
"587 505 OFFCURVE",
"568 481 CURVE SMOOTH",
"549 457 OFFCURVE",
"535 442 OFFCURVE",
"527 437 CURVE",
"540 451 OFFCURVE",
"546 461 OFFCURVE",
"546 467 CURVE SMOOTH",
"546 468 OFFCURVE",
"545 469 OFFCURVE",
"544 470 CURVE",
"539 463 OFFCURVE",
"536 461 OFFCURVE",
"534 464 CURVE",
"543 475 OFFCURVE",
"558 487 OFFCURVE",
"555 495 CURVE",
"544 486 OFFCURVE",
"530 468 OFFCURVE",
"513 442 CURVE SMOOTH",
"496 417 OFFCURVE",
"482 399 OFFCURVE",
"469 390 CURVE",
"463 409 OFFCURVE",
"449 419 OFFCURVE",
"428 419 CURVE SMOOTH",
"408 419 OFFCURVE",
"386 409 OFFCURVE",
"361 390 CURVE SMOOTH",
"332 367 OFFCURVE",
"318 356 OFFCURVE",
"317 356 CURVE",
"324 373 OFFCURVE",
"332 400 OFFCURVE",
"339 437 CURVE SMOOTH",
"347 475 OFFCURVE",
"354 502 OFFCURVE",
"361 518 CURVE",
"409 541 OFFCURVE",
"445 556 OFFCURVE",
"469 565 CURVE",
"492 578 OFFCURVE",
"522 593 OFFCURVE",
"522 614 CURVE SMOOTH",
"522 619 OFFCURVE",
"520 626 OFFCURVE",
"517 633 CURVE",
"462 661 OFFCURVE",
"422 682 OFFCURVE",
"398 697 CURVE",
"396 693 OFFCURVE",
"395 689 OFFCURVE",
"395 685 CURVE SMOOTH",
"395 678 OFFCURVE",
"398 669 OFFCURVE",
"405 660 CURVE SMOOTH",
"412 649 OFFCURVE",
"417 641 OFFCURVE",
"418 638 CURVE",
"411 629 OFFCURVE",
"399 622 OFFCURVE",
"381 616 CURVE",
"380 631 OFFCURVE",
"383 651 OFFCURVE",
"389 677 CURVE SMOOTH",
"395 704 OFFCURVE",
"398 722 OFFCURVE",
"398 733 CURVE SMOOTH",
"399 756 OFFCURVE",
"391 775 OFFCURVE",
"375 789 CURVE",
"352 778 OFFCURVE",
"336 757 OFFCURVE",
"328 724 CURVE SMOOTH",
"324 709 OFFCURVE",
"320 681 OFFCURVE",
"317 639 CURVE",
"306 622 OFFCURVE",
"300 605 OFFCURVE",
"300 589 CURVE",
"229 570 LINE SMOOTH",
"200 562 OFFCURVE",
"175 558 OFFCURVE",
"154 555 CURVE",
"163 538 OFFCURVE",
"182 524 OFFCURVE",
"211 513 CURVE",
"284 495 LINE",
"257 323 OFFCURVE",
"226 198 OFFCURVE",
"192 119 CURVE",
"200 118 OFFCURVE",
"205 114 OFFCURVE",
"204 107 CURVE SMOOTH",
"202 84 LINE",
"227 49 LINE SMOOTH",
"237 35 OFFCURVE",
"250 28 OFFCURVE",
"266 27 CURVE",
"275 34 OFFCURVE",
"281 45 OFFCURVE",
"282 60 CURVE",
"283 64 OFFCURVE",
"283 77 OFFCURVE",
"282 98 CURVE SMOOTH",
"282 113 OFFCURVE",
"284 126 OFFCURVE",
"287 135 CURVE",
"294 144 OFFCURVE",
"299 151 OFFCURVE",
"304 155 CURVE",
"346 258 LINE SMOOTH",
"362 297 OFFCURVE",
"385 325 OFFCURVE",
"412 342 CURVE",
"419 337 OFFCURVE",
"421 327 OFFCURVE",
"419 312 CURVE SMOOTH",
"418 300 OFFCURVE",
"411 286 OFFCURVE",
"398 271 CURVE SMOOTH",
"364 233 LINE SMOOTH",
"351 218 OFFCURVE",
"342 197 OFFCURVE",
"334 174 CURVE SMOOTH",
"330 163 OFFCURVE",
"323 142 OFFCURVE",
"314 111 CURVE",
"312 112 OFFCURVE",
"310 112 OFFCURVE",
"309 113 CURVE",
"308 112 OFFCURVE",
"308 110 OFFCURVE",
"307 108 CURVE",
"319 41 OFFCURVE",
"367 8 OFFCURVE",
"450 9 CURVE"
);
},
{
closed = 1;
nodes = (
"387 77 OFFCURVE",
"386 84 OFFCURVE",
"386 91 CURVE SMOOTH",
"386 122 OFFCURVE",
"401 160 OFFCURVE",
"432 205 CURVE",
"436 195 OFFCURVE",
"438 183 OFFCURVE",
"438 170 CURVE SMOOTH",
"438 148 OFFCURVE",
"434 128 OFFCURVE",
"425 109 CURVE SMOOTH",
"416 88 OFFCURVE",
"404 76 OFFCURVE",
"389 71 CURVE"
);
},
{
closed = 1;
nodes = (
"724 575 OFFCURVE",
"750 571 OFFCURVE",
"775 598 CURVE",
"764 662 OFFCURVE",
"702 704 OFFCURVE",
"637 686 CURVE",
"646 659 OFFCURVE",
"671 614 OFFCURVE",
"701 592 CURVE SMOOTH"
);
},
{
closed = 1;
nodes = (
"885 733 OFFCURVE",
"799 750 OFFCURVE",
"747 740 CURVE",
"764 720 OFFCURVE",
"785 682 OFFCURVE",
"810 658 CURVE SMOOTH",
"833 637 OFFCURVE",
"859 628 OFFCURVE",
"891 655 CURVE"
);
}
);
vertWidth = 1000;
width = 1000;
}
);
note = cid00861;
unicode = 3054;
},
{
glyphname = "sa-hira";
lastChange = "2020-12-04 08:03:05 +0000";
layers = (
{
hints = (
{
horizontal = 1;
place = "{283, 50}";
type = Stem;
},
{
place = "{150, 91}";
type = Stem;
},
{
place = "{553, 83}";
type = Stem;
},
{
place = "{777, 98}";
type = Stem;
},
{
place = "{575.5, 94.5}";
type = Stem;
},
{
place = "{534, 88}";
type = Stem;
}
);
layerId = "F065C3D4-A6F6-48F7-ABC0-534A710C84EA";
paths = (
{
closed = 1;
nodes = (
"616 -17 OFFCURVE",
"632 -9 OFFCURVE",
"657 9 CURVE SMOOTH",
"703 42 LINE",
"703 36 LINE",
"704 35 OFFCURVE",
"706 34 OFFCURVE",
"709 34 CURVE SMOOTH",
"714 34 OFFCURVE",
"724 38 OFFCURVE",
"740 46 CURVE SMOOTH",
"756 55 OFFCURVE",
"766 59 OFFCURVE",
"771 59 CURVE SMOOTH",
"774 59 OFFCURVE",
"777 58 OFFCURVE",
"778 56 CURVE",
"791 65 OFFCURVE",
"804 75 OFFCURVE",
"816 90 CURVE SMOOTH",
"846 127 LINE",
"849 132 OFFCURVE",
"855 137 OFFCURVE",
"864 144 CURVE SMOOTH",
"875 152 OFFCURVE",
"875 165 OFFCURVE",
"875 178 CURVE SMOOTH",
"875 224 OFFCURVE",
"855 262 OFFCURVE",
"814 292 CURVE SMOOTH",
"777 319 OFFCURVE",
"735 333 OFFCURVE",
"688 333 CURVE SMOOTH",
"671 333 OFFCURVE",
"653 331 OFFCURVE",
"636 327 CURVE",
"636 342 OFFCURVE",
"637 365 OFFCURVE",
"640 398 CURVE SMOOTH",
"646 473 LINE",
"657 482 OFFCURVE",
"678 488 OFFCURVE",
"708 491 CURVE SMOOTH",
"739 494 OFFCURVE",
"761 500 OFFCURVE",
"775 509 CURVE",
"769 530 OFFCURVE",
"756 546 OFFCURVE",
"735 557 CURVE SMOOTH",
"722 564 OFFCURVE",
"700 572 OFFCURVE",
"670 581 CURVE",
"661 643 OFFCURVE",
"654 690 OFFCURVE",
"650 723 CURVE",
"643 724 OFFCURVE",
"636 725 OFFCURVE",
"629 725 CURVE SMOOTH",
"598 725 OFFCURVE",
"580 706 OFFCURVE",
"576 667 CURVE",
"576 646 OFFCURVE",
"575 624 OFFCURVE",
"575 603 CURVE SMOOTH",
"574 576 OFFCURVE",
"572 556 OFFCURVE",
"565 543 CURVE",
"446 502 OFFCURVE",
"368 455 OFFCURVE",
"331 401 CURVE",
"344 393 OFFCURVE",
"359 389 OFFCURVE",
"376 389 CURVE SMOOTH",
"397 389 OFFCURVE",
"429 398 OFFCURVE",
"470 416 CURVE SMOOTH",
"511 435 OFFCURVE",
"541 444 OFFCURVE",
"558 445 CURVE",
"555 425 OFFCURVE",
"553 390 OFFCURVE",
"553 341 CURVE SMOOTH",
"553 289 OFFCURVE",
"551 251 OFFCURVE",
"548 228 CURVE SMOOTH",
"547 222 OFFCURVE",
"544 211 OFFCURVE",
"539 194 CURVE SMOOTH",
"535 181 OFFCURVE",
"533 170 OFFCURVE",
"534 161 CURVE SMOOTH",
"536 137 OFFCURVE",
"544 116 OFFCURVE",
"557 99 CURVE SMOOTH",
"573 78 OFFCURVE",
"594 68 OFFCURVE",
"619 69 CURVE",
"622 105 LINE",
"622 196 LINE SMOOTH",
"622 231 OFFCURVE",
"630 260 OFFCURVE",
"642 283 CURVE",
"699 284 OFFCURVE",
"738 275 OFFCURVE",
"758 258 CURVE SMOOTH",
"771 247 OFFCURVE",
"777 232 OFFCURVE",
"777 214 CURVE SMOOTH",
"778 187 OFFCURVE",
"767 158 OFFCURVE",
"744 127 CURVE SMOOTH",
"729 107 OFFCURVE",
"705 81 OFFCURVE",
"671 48 CURVE SMOOTH",
"637 15 OFFCURVE",
"616 -6 OFFCURVE",
"609 -16 CURVE"
);
},
{
closed = 1;
nodes = (
"245 146 LINE SMOOTH",
"243 200 OFFCURVE",
"241 244 OFFCURVE",
"241 279 CURVE SMOOTH",
"241 337 OFFCURVE",
"244 388 OFFCURVE",
"250 432 CURVE SMOOTH",
"251 440 OFFCURVE",
"255 454 OFFCURVE",
"262 473 CURVE SMOOTH",
"268 490 OFFCURVE",
"271 504 OFFCURVE",
"271 513 CURVE SMOOTH",
"272 552 OFFCURVE",
"247 600 OFFCURVE",
"196 655 CURVE",
"188 617 OFFCURVE",
"182 580 OFFCURVE",
"178 543 CURVE SMOOTH",
"163 402 OFFCURVE",
"156 313 OFFCURVE",
"155 276 CURVE SMOOTH",
"155 265 OFFCURVE",
"153 242 OFFCURVE",
"150 206 CURVE SMOOTH",
"147 178 OFFCURVE",
"147 157 OFFCURVE",
"148 144 CURVE SMOOTH",
"151 119 OFFCURVE",
"162 94 OFFCURVE",
"181 68 CURVE SMOOTH",
"203 39 OFFCURVE",
"226 25 OFFCURVE",
"250 25 CURVE"
);
}
);
vertWidth = 1000;
width = 1000;
}
);
note = cid00862;
unicode = 3055;
},
{
glyphname = "za-hira";
lastChange = "2020-12-04 08:03:05 +0000";
layers = (
{
hints = (
{
horizontal = 1;
place = "{275, 50}";
type = Stem;
},
{
horizontal = 1;
place = "{556, 112}";
type = Stem;
},
{
place = "{128, 91}";
type = Stem;
},
{
place = "{531, 83}";
type = Stem;
},
{
place = "{755, 98}";
type = Stem;
},
{
place = "{553.5, 94.5}";
type = Stem;
},
{
place = "{512, 88}";
type = Stem;
}
);
layerId = "F065C3D4-A6F6-48F7-ABC0-534A710C84EA";
paths = (
{
closed = 1;
nodes = (
"594 -25 OFFCURVE",
"610 -17 OFFCURVE",
"635 1 CURVE SMOOTH",
"681 34 LINE",
"681 28 LINE",
"682 27 OFFCURVE",
"684 26 OFFCURVE",
"687 26 CURVE SMOOTH",
"692 26 OFFCURVE",
"702 30 OFFCURVE",
"718 38 CURVE SMOOTH",
"734 47 OFFCURVE",
"744 51 OFFCURVE",
"749 51 CURVE SMOOTH",
"752 51 OFFCURVE",
"755 50 OFFCURVE",
"756 48 CURVE",
"769 57 OFFCURVE",
"782 67 OFFCURVE",
"794 82 CURVE SMOOTH",
"824 119 LINE",
"827 124 OFFCURVE",
"833 129 OFFCURVE",
"842 136 CURVE SMOOTH",
"853 144 OFFCURVE",
"853 157 OFFCURVE",
"853 170 CURVE SMOOTH",
"853 216 OFFCURVE",
"833 254 OFFCURVE",
"792 284 CURVE SMOOTH",
"755 311 OFFCURVE",
"713 325 OFFCURVE",
"666 325 CURVE SMOOTH",
"649 325 OFFCURVE",
"631 323 OFFCURVE",
"614 319 CURVE",
"614 334 OFFCURVE",
"615 357 OFFCURVE",
"618 390 CURVE SMOOTH",
"624 465 LINE",
"635 474 OFFCURVE",
"656 480 OFFCURVE",
"686 483 CURVE SMOOTH",
"717 486 OFFCURVE",
"739 492 OFFCURVE",
"753 501 CURVE",
"747 522 OFFCURVE",
"734 538 OFFCURVE",
"713 549 CURVE SMOOTH",
"700 556 OFFCURVE",
"678 564 OFFCURVE",
"648 573 CURVE",
"639 635 OFFCURVE",
"632 682 OFFCURVE",
"628 715 CURVE",
"621 716 OFFCURVE",
"614 717 OFFCURVE",
"607 717 CURVE SMOOTH",
"576 717 OFFCURVE",
"558 698 OFFCURVE",
"554 659 CURVE",
"554 638 OFFCURVE",
"553 616 OFFCURVE",
"553 595 CURVE SMOOTH",
"552 568 OFFCURVE",
"550 548 OFFCURVE",
"543 535 CURVE",
"424 494 OFFCURVE",
"346 447 OFFCURVE",
"309 393 CURVE",
"322 385 OFFCURVE",
"337 381 OFFCURVE",
"354 381 CURVE SMOOTH",
"375 381 OFFCURVE",
"407 390 OFFCURVE",
"448 408 CURVE SMOOTH",
"489 427 OFFCURVE",
"519 436 OFFCURVE",
"536 437 CURVE",
"533 417 OFFCURVE",
"531 382 OFFCURVE",
"531 333 CURVE SMOOTH",
"531 281 OFFCURVE",
"529 243 OFFCURVE",
"526 220 CURVE SMOOTH",
"525 214 OFFCURVE",
"522 203 OFFCURVE",
"517 186 CURVE SMOOTH",
"513 173 OFFCURVE",
"511 162 OFFCURVE",
"512 153 CURVE SMOOTH",
"514 129 OFFCURVE",
"522 108 OFFCURVE",
"535 91 CURVE SMOOTH",
"551 70 OFFCURVE",
"572 60 OFFCURVE",
"597 61 CURVE",
"600 97 LINE",
"600 188 LINE SMOOTH",
"600 223 OFFCURVE",
"608 252 OFFCURVE",
"620 275 CURVE",
"677 276 OFFCURVE",
"716 267 OFFCURVE",
"736 250 CURVE SMOOTH",
"749 239 OFFCURVE",
"755 224 OFFCURVE",
"755 206 CURVE SMOOTH",
"756 179 OFFCURVE",
"745 150 OFFCURVE",
"722 119 CURVE SMOOTH",
"707 99 OFFCURVE",
"683 73 OFFCURVE",
"649 40 CURVE SMOOTH",
"615 7 OFFCURVE",
"594 -14 OFFCURVE",
"587 -24 CURVE"
);
},
{
closed = 1;
nodes = (
"223 138 LINE SMOOTH",
"221 192 OFFCURVE",
"219 236 OFFCURVE",
"219 271 CURVE SMOOTH",
"219 329 OFFCURVE",
"222 380 OFFCURVE",
"228 424 CURVE SMOOTH",
"229 432 OFFCURVE",
"233 446 OFFCURVE",
"240 465 CURVE SMOOTH",
"246 482 OFFCURVE",
"249 496 OFFCURVE",
"249 505 CURVE SMOOTH",
"250 544 OFFCURVE",
"225 592 OFFCURVE",
"174 647 CURVE",
"166 609 OFFCURVE",
"160 572 OFFCURVE",
"156 535 CURVE SMOOTH",
"141 394 OFFCURVE",
"134 305 OFFCURVE",
"133 268 CURVE SMOOTH",
"133 257 OFFCURVE",
"131 234 OFFCURVE",
"128 198 CURVE SMOOTH",
"125 170 OFFCURVE",
"125 149 OFFCURVE",
"126 136 CURVE SMOOTH",
"129 111 OFFCURVE",
"140 86 OFFCURVE",
"159 60 CURVE SMOOTH",
"181 31 OFFCURVE",
"204 17 OFFCURVE",
"228 17 CURVE"
);
},
{
closed = 1;
nodes = (
"790 553 OFFCURVE",
"816 549 OFFCURVE",
"841 576 CURVE",
"830 640 OFFCURVE",
"768 682 OFFCURVE",
"703 664 CURVE",
"712 637 OFFCURVE",
"737 592 OFFCURVE",
"767 570 CURVE SMOOTH"
);
},
{
closed = 1;
nodes = (
"951 711 OFFCURVE",
"865 728 OFFCURVE",
"813 718 CURVE",
"830 698 OFFCURVE",
"851 660 OFFCURVE",
"876 636 CURVE SMOOTH",
"899 615 OFFCURVE",
"925 606 OFFCURVE",
"957 633 CURVE"
);
}
);
vertWidth = 1000;
width = 1000;
}
);
note = cid00863;
unicode = 3056;
},
{
glyphname = "si-hira";
lastChange = "2020-12-04 08:03:05 +0000";
layers = (
{
hints = (
{
horizontal = 1;
place = "{131, 54}";
type = Stem;
},
{
horizontal = 1;
place = "{537, 9}";
type = Stem;
},
{
place = "{451, 94}";
type = Stem;
},
{
horizontal = 1;
place = "{464, 102.5}";
type = Stem;
}
);
layerId = "F065C3D4-A6F6-48F7-ABC0-534A710C84EA";
paths = (
{
closed = 1;
nodes = (
"600 -10 OFFCURVE",
"639 -5 OFFCURVE",
"668 -2 CURVE",
"664 -12 OFFCURVE",
"662 -17 OFFCURVE",
"662 -16 CURVE",
"673 -15 OFFCURVE",
"687 -8 OFFCURVE",
"706 5 CURVE SMOOTH",
"725 18 OFFCURVE",
"740 25 OFFCURVE",
"749 28 CURVE",
"753 22 LINE",
"775 31 OFFCURVE",
"793 40 OFFCURVE",
"806 49 CURVE SMOOTH",
"811 52 OFFCURVE",
"824 57 OFFCURVE",
"844 65 CURVE SMOOTH",
"859 71 OFFCURVE",
"868 76 OFFCURVE",
"872 80 CURVE SMOOTH",
"888 95 OFFCURVE",
"896 109 OFFCURVE",
"896 123 CURVE SMOOTH",
"896 146 OFFCURVE",
"879 165 OFFCURVE",
"844 180 CURVE SMOOTH",
"817 191 OFFCURVE",
"790 196 OFFCURVE",
"763 196 CURVE SMOOTH",
"748 196 OFFCURVE",
"734 194 OFFCURVE",
"722 191 CURVE",
"729 190 OFFCURVE",
"731 188 OFFCURVE",
"729 185 CURVE",
"707 187 OFFCURVE",
"682 183 OFFCURVE",
"653 173 CURVE SMOOTH",
"614 159 OFFCURVE",
"592 152 OFFCURVE",
"587 151 CURVE",
"589 147 OFFCURVE",
"590 144 OFFCURVE",
"590 141 CURVE",
"575 136 OFFCURVE",
"550 122 OFFCURVE",
"515 101 CURVE SMOOTH",
"486 84 OFFCURVE",
"459 73 OFFCURVE",
"434 69 CURVE",
"400 116 OFFCURVE",
"358 148 OFFCURVE",
"309 164 CURVE",
"344 200 OFFCURVE",
"394 232 OFFCURVE",
"464 253 CURVE SMOOTH",
"641 307 LINE",
"645 310 OFFCURVE",
"640 316 OFFCURVE",
"644 320 CURVE",
"629 357 OFFCURVE",
"599 375 OFFCURVE",
"554 375 CURVE SMOOTH",
"542 375 OFFCURVE",
"529 374 OFFCURVE",
"516 371 CURVE",
"522 382 OFFCURVE",
"526 402 OFFCURVE",
"529 430 CURVE SMOOTH",
"532 459 OFFCURVE",
"535 478 OFFCURVE",
"539 489 CURVE",
"569 500 OFFCURVE",
"591 505 OFFCURVE",
"604 506 CURVE",
"667 522 LINE SMOOTH",
"695 529 OFFCURVE",
"708 540 OFFCURVE",
"709 550 CURVE SMOOTH",
"711 563 OFFCURVE",
"693 581 OFFCURVE",
"654 605 CURVE",
"643 615 OFFCURVE",
"635 623 OFFCURVE",
"631 628 CURVE",
"608 633 OFFCURVE",
"591 635 OFFCURVE",
"580 635 CURVE",
"575 637 OFFCURVE",
"569 642 OFFCURVE",
"560 649 CURVE SMOOTH",
"554 654 OFFCURVE",
"549 656 OFFCURVE",
"546 655 CURVE",
"565 630 OFFCURVE",
"579 613 OFFCURVE",
"590 602 CURVE",
"574 596 OFFCURVE",
"558 593 OFFCURVE",
"543 594 CURVE",
"542 599 OFFCURVE",
"541 604 OFFCURVE",
"541 610 CURVE SMOOTH",
"541 621 OFFCURVE",
"545 654 OFFCURVE",
"545 669 CURVE SMOOTH",
"545 697 OFFCURVE",
"536 719 OFFCURVE",
"515 750 CURVE SMOOTH",
"505 765 OFFCURVE",
"497 773 OFFCURVE",
"491 774 CURVE SMOOTH",
"473 776 OFFCURVE",
"460 759 OFFCURVE",
"451 723 CURVE",
"454 656 OFFCURVE",
"454 605 OFFCURVE",
"451 571 CURVE",
"394 562 LINE SMOOTH",
"372 559 OFFCURVE",
"354 552 OFFCURVE",
"339 544 CURVE",
"337 544 OFFCURVE",
"320 545 OFFCURVE",
"287 546 CURVE SMOOTH",
"266 547 OFFCURVE",
"249 544 OFFCURVE",
"237 537 CURVE",
"278 488 OFFCURVE",
"332 464 OFFCURVE",
"397 464 CURVE SMOOTH",
"412 464 OFFCURVE",
"426 466 OFFCURVE",
"441 469 CURVE",
"444 431 OFFCURVE",
"444 402 OFFCURVE",
"441 381 CURVE SMOOTH",
"438 364 OFFCURVE",
"429 352 OFFCURVE",
"412 343 CURVE SMOOTH",
"402 338 OFFCURVE",
"385 332 OFFCURVE",
"360 326 CURVE SMOOTH",
"335 321 OFFCURVE",
"318 315 OFFCURVE",
"309 310 CURVE",
"306 289 OFFCURVE",
"324 278 OFFCURVE",
"336 266 CURVE",
"259 206 OFFCURVE",
"194 164 OFFCURVE",
"143 141 CURVE",
"144 134 OFFCURVE",
"135 131 OFFCURVE",
"136 124 CURVE SMOOTH",
"143 81 OFFCURVE",
"155 52 OFFCURVE",
"173 39 CURVE",
"195 40 OFFCURVE",
"220 53 OFFCURVE",
"248 78 CURVE SMOOTH",
"275 101 OFFCURVE",
"299 112 OFFCURVE",
"322 110 CURVE",
"366 18 OFFCURVE",
"420 -24 OFFCURVE",
"485 -16 CURVE SMOOTH",
"503 -14 OFFCURVE",
"522 -3 OFFCURVE",
"543 16 CURVE SMOOTH",
"566 37 OFFCURVE",
"583 50 OFFCURVE",
"593 53 CURVE",
"599 63 OFFCURVE",
"605 69 OFFCURVE",
"610 72 CURVE",
"604 80 LINE",
"617 81 OFFCURVE",
"636 91 OFFCURVE",
"661 108 CURVE SMOOTH",
"685 123 OFFCURVE",
"705 131 OFFCURVE",
"722 131 CURVE SMOOTH",
"733 131 OFFCURVE",
"744 129 OFFCURVE",
"756 124 CURVE",
"732 99 OFFCURVE",
"700 72 OFFCURVE",
"658 47 CURVE SMOOTH",
"549 -19 LINE"
);
}
);
vertWidth = 1000;
width = 1000;
}
);
note = cid00864;
unicode = 3057;
},
{
glyphname = "zi-hira";
lastChange = "2020-12-04 08:03:05 +0000";
layers = (
{
hints = (
{
horizontal = 1;
place = "{127, 54}";
type = Stem;
},
{
horizontal = 1;
place = "{533, 9}";
type = Stem;
},
{
horizontal = 1;
place = "{558, 112}";
type = Stem;
},
{
place = "{435, 94}";
type = Stem;
},
{
horizontal = 1;
place = "{460, 102.5}";
type = Stem;
}
);
layerId = "F065C3D4-A6F6-48F7-ABC0-534A710C84EA";
paths = (
{
closed = 1;
nodes = (
"584 -14 OFFCURVE",
"623 -9 OFFCURVE",
"652 -6 CURVE",
"649 -14 OFFCURVE",
"647 -19 OFFCURVE",
"646 -20 CURVE",
"657 -19 OFFCURVE",
"671 -12 OFFCURVE",
"690 1 CURVE SMOOTH",
"709 14 OFFCURVE",
"724 21 OFFCURVE",
"733 24 CURVE",
"737 18 LINE",
"759 27 OFFCURVE",
"777 36 OFFCURVE",
"790 45 CURVE SMOOTH",
"795 48 OFFCURVE",
"808 53 OFFCURVE",
"828 61 CURVE SMOOTH",
"843 67 OFFCURVE",
"852 72 OFFCURVE",
"856 76 CURVE SMOOTH",
"872 91 OFFCURVE",
"880 105 OFFCURVE",
"880 119 CURVE SMOOTH",
"880 142 OFFCURVE",
"863 161 OFFCURVE",
"828 176 CURVE SMOOTH",
"801 187 OFFCURVE",
"774 192 OFFCURVE",
"747 192 CURVE SMOOTH",
"732 192 OFFCURVE",
"718 190 OFFCURVE",
"706 187 CURVE",
"713 186 OFFCURVE",
"715 184 OFFCURVE",
"713 181 CURVE",
"691 183 OFFCURVE",
"666 179 OFFCURVE",
"637 169 CURVE SMOOTH",
"598 155 OFFCURVE",
"576 148 OFFCURVE",
"571 147 CURVE",
"573 143 OFFCURVE",
"574 140 OFFCURVE",
"574 137 CURVE",
"559 132 OFFCURVE",
"534 118 OFFCURVE",
"499 97 CURVE SMOOTH",
"470 80 OFFCURVE",
"443 69 OFFCURVE",
"418 65 CURVE",
"384 112 OFFCURVE",
"342 144 OFFCURVE",
"293 160 CURVE",
"328 196 OFFCURVE",
"378 228 OFFCURVE",
"448 249 CURVE SMOOTH",
"625 303 LINE",
"629 306 OFFCURVE",
"624 312 OFFCURVE",
"628 316 CURVE",
"613 353 OFFCURVE",
"583 371 OFFCURVE",
"538 371 CURVE SMOOTH",
"526 371 OFFCURVE",
"513 370 OFFCURVE",
"500 367 CURVE",
"506 378 OFFCURVE",
"510 398 OFFCURVE",
"513 426 CURVE SMOOTH",
"516 455 OFFCURVE",
"519 474 OFFCURVE",
"523 485 CURVE",
"553 496 OFFCURVE",
"575 501 OFFCURVE",
"588 502 CURVE",
"651 518 LINE SMOOTH",
"679 525 OFFCURVE",
"692 536 OFFCURVE",
"693 546 CURVE SMOOTH",
"695 559 OFFCURVE",
"677 577 OFFCURVE",
"638 601 CURVE",
"627 611 OFFCURVE",
"619 619 OFFCURVE",
"615 624 CURVE",
"592 629 OFFCURVE",
"575 631 OFFCURVE",
"564 631 CURVE",
"559 633 OFFCURVE",
"553 638 OFFCURVE",
"544 645 CURVE SMOOTH",
"538 650 OFFCURVE",
"533 652 OFFCURVE",
"530 651 CURVE",
"549 626 OFFCURVE",
"563 609 OFFCURVE",
"574 598 CURVE",
"558 592 OFFCURVE",
"542 589 OFFCURVE",
"527 590 CURVE",
"526 595 OFFCURVE",
"525 600 OFFCURVE",
"525 606 CURVE SMOOTH",
"525 617 OFFCURVE",
"529 650 OFFCURVE",
"529 665 CURVE SMOOTH",
"529 693 OFFCURVE",
"520 715 OFFCURVE",
"499 746 CURVE SMOOTH",
"489 761 OFFCURVE",
"481 769 OFFCURVE",
"475 770 CURVE SMOOTH",
"457 772 OFFCURVE",
"444 755 OFFCURVE",
"435 719 CURVE",
"438 652 OFFCURVE",
"438 601 OFFCURVE",
"435 567 CURVE",
"378 558 LINE SMOOTH",
"356 555 OFFCURVE",
"338 548 OFFCURVE",
"323 540 CURVE",
"321 540 OFFCURVE",
"304 541 OFFCURVE",
"271 542 CURVE SMOOTH",
"250 543 OFFCURVE",
"233 540 OFFCURVE",
"221 533 CURVE",
"262 484 OFFCURVE",
"316 460 OFFCURVE",
"381 460 CURVE SMOOTH",
"396 460 OFFCURVE",
"410 462 OFFCURVE",
"425 465 CURVE",
"428 427 OFFCURVE",
"428 398 OFFCURVE",
"425 377 CURVE SMOOTH",
"422 360 OFFCURVE",
"413 348 OFFCURVE",
"396 339 CURVE SMOOTH",
"386 334 OFFCURVE",
"369 328 OFFCURVE",
"344 322 CURVE SMOOTH",
"319 317 OFFCURVE",
"302 311 OFFCURVE",
"293 306 CURVE",
"290 285 OFFCURVE",
"308 274 OFFCURVE",
"320 262 CURVE",
"243 202 OFFCURVE",
"178 160 OFFCURVE",
"127 137 CURVE",
"128 130 OFFCURVE",
"119 127 OFFCURVE",
"120 120 CURVE SMOOTH",
"127 77 OFFCURVE",
"139 48 OFFCURVE",
"157 35 CURVE",
"179 36 OFFCURVE",
"204 49 OFFCURVE",
"232 74 CURVE SMOOTH",
"259 97 OFFCURVE",
"283 108 OFFCURVE",
"306 106 CURVE",
"350 14 OFFCURVE",
"404 -28 OFFCURVE",
"469 -20 CURVE SMOOTH",
"487 -18 OFFCURVE",
"506 -7 OFFCURVE",
"527 12 CURVE SMOOTH",
"550 33 OFFCURVE",
"567 46 OFFCURVE",
"577 49 CURVE",
"583 59 OFFCURVE",
"589 65 OFFCURVE",
"594 68 CURVE",
"588 76 LINE",
"601 77 OFFCURVE",
"620 87 OFFCURVE",
"645 104 CURVE SMOOTH",
"669 119 OFFCURVE",
"689 127 OFFCURVE",
"706 127 CURVE SMOOTH",
"717 127 OFFCURVE",
"728 125 OFFCURVE",
"740 120 CURVE",
"716 95 OFFCURVE",
"684 68 OFFCURVE",
"642 43 CURVE SMOOTH",
"533 -23 LINE"
);
},
{
closed = 1;
nodes = (
"768 555 OFFCURVE",
"794 551 OFFCURVE",
"819 578 CURVE",
"808 642 OFFCURVE",
"746 684 OFFCURVE",
"681 666 CURVE",
"690 639 OFFCURVE",
"715 594 OFFCURVE",
"745 572 CURVE SMOOTH"
);
},
{
closed = 1;
nodes = (
"929 713 OFFCURVE",
"843 730 OFFCURVE",
"791 720 CURVE",
"808 700 OFFCURVE",
"829 662 OFFCURVE",
"854 638 CURVE SMOOTH",
"877 617 OFFCURVE",
"903 608 OFFCURVE",
"935 635 CURVE"
);
}
);
vertWidth = 1000;
width = 1000;
}
);
note = cid00865;
unicode = 3058;
},
{
glyphname = "su-hira";
lastChange = "2020-12-04 08:03:05 +0000";
layers = (
{
hints = (
{
horizontal = 1;
place = "{60, 66}";
type = Stem;
},
{
place = "{472, 9}";
type = Stem;
},
{
place = "{646, 10}";
type = Stem;
},
{
horizontal = 1;
place = "{554, 91}";
type = Stem;
},
{
place = "{461, 88}";
type = Stem;
}
);
layerId = "F065C3D4-A6F6-48F7-ABC0-534A710C84EA";
paths = (
{
closed = 1;
nodes = (
"602 -60 OFFCURVE",
"631 -55 OFFCURVE",
"666 -45 CURVE SMOOTH",
"753 -19 LINE",
"768 -1 OFFCURVE",
"776 16 OFFCURVE",
"777 33 CURVE SMOOTH",
"778 66 OFFCURVE",
"753 91 OFFCURVE",
"703 108 CURVE SMOOTH",
"667 120 OFFCURVE",
"629 126 OFFCURVE",
"588 126 CURVE SMOOTH",
"567 126 OFFCURVE",
"546 124 OFFCURVE",
"527 121 CURVE",
"552 156 OFFCURVE",
"570 183 OFFCURVE",
"583 200 CURVE",
"592 199 OFFCURVE",
"604 202 OFFCURVE",
"619 211 CURVE SMOOTH",
"634 220 OFFCURVE",
"643 227 OFFCURVE",
"646 233 CURVE",
"656 226 LINE",
"655 235 OFFCURVE",
"658 241 OFFCURVE",
"665 244 CURVE",
"699 253 OFFCURVE",
"740 282 OFFCURVE",
"787 330 CURVE",
"787 339 OFFCURVE",
"781 355 OFFCURVE",
"781 362 CURVE SMOOTH",
"781 366 OFFCURVE",
"782 370 OFFCURVE",
"784 374 CURVE",
"763 385 OFFCURVE",
"732 391 OFFCURVE",
"692 392 CURVE",
"674 381 OFFCURVE",
"640 353 OFFCURVE",
"591 308 CURVE SMOOTH",
"551 271 OFFCURVE",
"514 246 OFFCURVE",
"481 233 CURVE",
"482 244 OFFCURVE",
"495 268 OFFCURVE",
"522 305 CURVE SMOOTH",
"553 348 OFFCURVE",
"582 378 OFFCURVE",
"610 395 CURVE",
"608 399 OFFCURVE",
"607 403 OFFCURVE",
"607 407 CURVE SMOOTH",
"607 415 OFFCURVE",
"616 434 OFFCURVE",
"616 445 CURVE SMOOTH",
"616 461 OFFCURVE",
"606 473 OFFCURVE",
"585 481 CURVE SMOOTH",
"556 492 OFFCURVE",
"540 500 OFFCURVE",
"537 503 CURVE",
"544 532 OFFCURVE",
"548 555 OFFCURVE",
"549 572 CURVE",
"603 579 OFFCURVE",
"649 588 OFFCURVE",
"687 598 CURVE",
"692 602 OFFCURVE",
"687 615 OFFCURVE",
"692 622 CURVE",
"652 660 OFFCURVE",
"608 678 OFFCURVE",
"561 677 CURVE",
"548 686 OFFCURVE",
"538 712 OFFCURVE",
"531 754 CURVE SMOOTH",
"525 790 OFFCURVE",
"511 810 OFFCURVE",
"488 813 CURVE",
"473 800 OFFCURVE",
"465 776 OFFCURVE",
"463 739 CURVE SMOOTH",
"460 686 OFFCURVE",
"458 658 OFFCURVE",
"457 654 CURVE",
"446 650 OFFCURVE",
"414 647 OFFCURVE",
"361 645 CURVE SMOOTH",
"322 643 OFFCURVE",
"298 633 OFFCURVE",
"288 615 CURVE",
"327 590 OFFCURVE",
"349 577 OFFCURVE",
"353 575 CURVE SMOOTH",
"380 561 OFFCURVE",
"406 554 OFFCURVE",
"431 554 CURVE SMOOTH",
"441 554 OFFCURVE",
"451 555 OFFCURVE",
"461 557 CURVE",
"464 526 OFFCURVE",
"466 499 OFFCURVE",
"465 478 CURVE",
"388 449 OFFCURVE",
"334 419 OFFCURVE",
"304 388 CURVE SMOOTH",
"301 385 OFFCURVE",
"299 369 OFFCURVE",
"292 366 CURVE",
"291 369 OFFCURVE",
"293 378 OFFCURVE",
"292 381 CURVE",
"292 383 OFFCURVE",
"291 384 OFFCURVE",
"288 384 CURVE",
"287 379 OFFCURVE",
"287 375 OFFCURVE",
"287 371 CURVE SMOOTH",
"287 337 OFFCURVE",
"317 310 OFFCURVE",
"377 290 CURVE",
"358 274 OFFCURVE",
"326 251 OFFCURVE",
"282 221 CURVE SMOOTH",
"238 191 OFFCURVE",
"206 167 OFFCURVE",
"185 150 CURVE",
"188 141 OFFCURVE",
"192 133 OFFCURVE",
"196 124 CURVE SMOOTH",
"201 113 OFFCURVE",
"207 105 OFFCURVE",
"215 100 CURVE",
"294 103 OFFCURVE",
"348 109 OFFCURVE",
"379 116 CURVE",
"400 123 OFFCURVE",
"416 128 OFFCURVE",
"426 132 CURVE",
"402 111 OFFCURVE",
"390 87 OFFCURVE",
"390 60 CURVE SMOOTH",
"390 31 OFFCURVE",
"403 4 OFFCURVE",
"430 -22 CURVE",
"441 -24 OFFCURVE",
"450 -20 OFFCURVE",
"456 -9 CURVE SMOOTH",
"472 20 LINE",
"497 47 OFFCURVE",
"540 60 OFFCURVE",
"602 60 CURVE SMOOTH",
"619 60 OFFCURVE",
"639 59 OFFCURVE",
"661 57 CURVE",
"635 38 OFFCURVE",
"593 14 OFFCURVE",
"535 -13 CURVE SMOOTH",
"511 -24 OFFCURVE",
"485 -36 OFFCURVE",
"457 -48 CURVE",
"464 -46 OFFCURVE",
"472 -45 OFFCURVE",
"481 -45 CURVE SMOOTH",
"492 -45 OFFCURVE",
"508 -47 OFFCURVE",
"529 -52 CURVE SMOOTH",
"550 -57 OFFCURVE",
"567 -60 OFFCURVE",
"578 -60 CURVE SMOOTH"
);
},
{
closed = 1;
nodes = (
"310 187 OFFCURVE",
"323 199 OFFCURVE",
"344 214 CURVE SMOOTH",
"373 235 OFFCURVE",
"399 247 OFFCURVE",
"422 250 CURVE SMOOTH",
"435 252 OFFCURVE",
"452 246 OFFCURVE",
"472 233 CURVE",
"403 206 OFFCURVE",
"347 188 OFFCURVE",
"304 179 CURVE"
);
},
{
closed = 1;
nodes = (
"383 322 OFFCURVE",
"366 336 OFFCURVE",
"357 359 CURVE",
"377 376 OFFCURVE",
"393 388 OFFCURVE",
"404 395 CURVE",
"432 405 OFFCURVE",
"451 413 OFFCURVE",
"462 420 CURVE",
"467 413 OFFCURVE",
"469 405 OFFCURVE",
"469 396 CURVE SMOOTH",
"469 381 OFFCURVE",
"462 366 OFFCURVE",
"448 349 CURVE SMOOTH",
"437 336 OFFCURVE",
"423 325 OFFCURVE",
"408 316 CURVE"
);
}
);
vertWidth = 1000;
width = 1000;
}
);
note = cid00866;
unicode = 3059;
},
{
glyphname = "zu-hira";
lastChange = "2020-12-04 08:03:05 +0000";
layers = (
{
hints = (
{
horizontal = 1;
place = "{60, 66}";
type = Stem;
},
{
horizontal = 1;
place = "{602, 112}";
type = Stem;
},
{
place = "{472, 9}";
type = Stem;
},
{
place = "{646, 10}";
type = Stem;
},
{
horizontal = 1;
place = "{554, 91}";
type = Stem;
},
{
place = "{461, 88}";
type = Stem;
}
);
layerId = "F065C3D4-A6F6-48F7-ABC0-534A710C84EA";
paths = (
{
closed = 1;
nodes = (
"602 -60 OFFCURVE",
"631 -55 OFFCURVE",
"666 -45 CURVE SMOOTH",
"753 -19 LINE",
"768 -1 OFFCURVE",
"776 16 OFFCURVE",
"777 33 CURVE SMOOTH",
"778 66 OFFCURVE",
"753 91 OFFCURVE",
"703 108 CURVE SMOOTH",
"667 120 OFFCURVE",
"629 126 OFFCURVE",
"588 126 CURVE SMOOTH",
"567 126 OFFCURVE",
"546 124 OFFCURVE",
"527 121 CURVE",
"552 156 OFFCURVE",
"570 183 OFFCURVE",
"583 200 CURVE",
"592 199 OFFCURVE",
"604 202 OFFCURVE",
"619 211 CURVE SMOOTH",
"634 220 OFFCURVE",
"643 227 OFFCURVE",
"646 233 CURVE",
"656 226 LINE",
"655 235 OFFCURVE",
"658 241 OFFCURVE",
"665 244 CURVE",
"699 253 OFFCURVE",
"740 282 OFFCURVE",
"787 330 CURVE",
"787 339 OFFCURVE",
"781 355 OFFCURVE",
"781 362 CURVE SMOOTH",
"781 366 OFFCURVE",
"782 370 OFFCURVE",
"784 374 CURVE",
"763 385 OFFCURVE",
"732 391 OFFCURVE",
"692 392 CURVE",
"674 381 OFFCURVE",
"640 353 OFFCURVE",
"591 308 CURVE SMOOTH",
"551 271 OFFCURVE",
"514 246 OFFCURVE",
"481 233 CURVE",
"482 244 OFFCURVE",
"495 268 OFFCURVE",
"522 305 CURVE SMOOTH",
"553 348 OFFCURVE",
"582 378 OFFCURVE",
"610 395 CURVE",
"608 399 OFFCURVE",
"607 403 OFFCURVE",
"607 407 CURVE SMOOTH",
"607 415 OFFCURVE",
"616 434 OFFCURVE",
"616 445 CURVE SMOOTH",
"616 461 OFFCURVE",
"606 473 OFFCURVE",
"585 481 CURVE SMOOTH",
"556 492 OFFCURVE",
"540 500 OFFCURVE",
"537 503 CURVE",
"544 532 OFFCURVE",
"548 555 OFFCURVE",
"549 572 CURVE",
"603 579 OFFCURVE",
"649 588 OFFCURVE",
"687 598 CURVE",
"692 602 OFFCURVE",
"687 615 OFFCURVE",
"692 622 CURVE",
"652 660 OFFCURVE",
"608 678 OFFCURVE",
"561 677 CURVE",
"548 686 OFFCURVE",
"538 712 OFFCURVE",
"531 754 CURVE SMOOTH",
"525 790 OFFCURVE",
"511 810 OFFCURVE",
"488 813 CURVE",
"473 800 OFFCURVE",
"465 776 OFFCURVE",
"463 739 CURVE SMOOTH",
"460 686 OFFCURVE",
"458 658 OFFCURVE",
"457 654 CURVE",
"446 650 OFFCURVE",
"414 647 OFFCURVE",
"361 645 CURVE SMOOTH",
"322 643 OFFCURVE",
"298 633 OFFCURVE",
"288 615 CURVE",
"327 590 OFFCURVE",
"349 577 OFFCURVE",
"353 575 CURVE SMOOTH",
"380 561 OFFCURVE",
"406 554 OFFCURVE",
"431 554 CURVE SMOOTH",
"441 554 OFFCURVE",
"451 555 OFFCURVE",
"461 557 CURVE",
"464 526 OFFCURVE",
"466 499 OFFCURVE",
"465 478 CURVE",
"388 449 OFFCURVE",
"334 419 OFFCURVE",
"304 388 CURVE SMOOTH",
"301 385 OFFCURVE",
"299 369 OFFCURVE",
"292 366 CURVE",
"291 369 OFFCURVE",
"293 378 OFFCURVE",
"292 381 CURVE",
"292 383 OFFCURVE",
"291 384 OFFCURVE",
"288 384 CURVE",
"287 379 OFFCURVE",
"287 375 OFFCURVE",
"287 371 CURVE SMOOTH",
"287 337 OFFCURVE",
"317 310 OFFCURVE",
"377 290 CURVE",
"358 274 OFFCURVE",
"326 251 OFFCURVE",
"282 221 CURVE SMOOTH",
"238 191 OFFCURVE",
"206 167 OFFCURVE",
"185 150 CURVE",
"188 141 OFFCURVE",
"192 133 OFFCURVE",
"196 124 CURVE SMOOTH",
"201 113 OFFCURVE",
"207 105 OFFCURVE",
"215 100 CURVE",
"294 103 OFFCURVE",
"348 109 OFFCURVE",
"379 116 CURVE",
"400 123 OFFCURVE",
"416 128 OFFCURVE",
"426 132 CURVE",
"402 111 OFFCURVE",
"390 87 OFFCURVE",
"390 60 CURVE SMOOTH",
"390 31 OFFCURVE",
"403 4 OFFCURVE",
"430 -22 CURVE",
"441 -24 OFFCURVE",
"450 -20 OFFCURVE",
"456 -9 CURVE SMOOTH",
"472 20 LINE",
"497 47 OFFCURVE",
"540 60 OFFCURVE",
"602 60 CURVE SMOOTH",
"619 60 OFFCURVE",
"639 59 OFFCURVE",
"661 57 CURVE",
"635 38 OFFCURVE",
"593 14 OFFCURVE",
"535 -13 CURVE SMOOTH",
"511 -24 OFFCURVE",
"485 -36 OFFCURVE",
"457 -48 CURVE",
"464 -46 OFFCURVE",
"472 -45 OFFCURVE",
"481 -45 CURVE SMOOTH",
"492 -45 OFFCURVE",
"508 -47 OFFCURVE",
"529 -52 CURVE SMOOTH",
"550 -57 OFFCURVE",
"567 -60 OFFCURVE",
"578 -60 CURVE SMOOTH"
);
},
{
closed = 1;
nodes = (
"310 187 OFFCURVE",
"323 199 OFFCURVE",
"344 214 CURVE SMOOTH",
"373 235 OFFCURVE",
"399 247 OFFCURVE",
"422 250 CURVE SMOOTH",
"435 252 OFFCURVE",
"452 246 OFFCURVE",
"472 233 CURVE",
"403 206 OFFCURVE",
"347 188 OFFCURVE",
"304 179 CURVE"
);
},
{
closed = 1;
nodes = (
"383 322 OFFCURVE",
"366 336 OFFCURVE",
"357 359 CURVE",
"377 376 OFFCURVE",
"393 388 OFFCURVE",
"404 395 CURVE",
"432 405 OFFCURVE",
"451 413 OFFCURVE",
"462 420 CURVE",
"467 413 OFFCURVE",
"469 405 OFFCURVE",
"469 396 CURVE SMOOTH",
"469 381 OFFCURVE",
"462 366 OFFCURVE",
"448 349 CURVE SMOOTH",
"437 336 OFFCURVE",
"423 325 OFFCURVE",
"408 316 CURVE"
);
},
{
closed = 1;
nodes = (
"781 599 OFFCURVE",
"807 595 OFFCURVE",
"832 622 CURVE",
"821 686 OFFCURVE",
"759 728 OFFCURVE",
"694 710 CURVE",
"703 683 OFFCURVE",
"728 638 OFFCURVE",
"758 616 CURVE SMOOTH"
);
},
{
closed = 1;
nodes = (
"942 757 OFFCURVE",
"856 774 OFFCURVE",
"804 764 CURVE",
"821 744 OFFCURVE",
"842 706 OFFCURVE",
"867 682 CURVE SMOOTH",
"890 661 OFFCURVE",
"916 652 OFFCURVE",
"948 679 CURVE"
);
}
);
vertWidth = 1000;
width = 1000;
}
);
note = cid00867;
unicode = 305A;
},
{
glyphname = "se-hira";
lastChange = "2020-12-04 08:03:05 +0000";
layers = (
{
hints = (
{
horizontal = 1;
place = "{-73, 846}";
type = Stem;
},
{
place = "{173, 56}";
type = Stem;
},
{
place = "{331, 68}";
type = Stem;
},
{
place = "{667, 83}";
type = Stem;
}
);
layerId = "F065C3D4-A6F6-48F7-ABC0-534A710C84EA";
paths = (
{
closed = 1;
nodes = (
"695 -52 OFFCURVE",
"750 19 OFFCURVE",
"750 142 CURVE SMOOTH",
"750 171 OFFCURVE",
"746 202 OFFCURVE",
"739 234 CURVE",
"723 249 OFFCURVE",
"707 268 OFFCURVE",
"691 290 CURVE",
"684 295 OFFCURVE",
"670 299 OFFCURVE",
"648 302 CURVE SMOOTH",
"631 304 OFFCURVE",
"621 311 OFFCURVE",
"617 322 CURVE",
"644 327 OFFCURVE",
"678 342 OFFCURVE",
"718 365 CURVE SMOOTH",
"763 392 OFFCURVE",
"798 409 OFFCURVE",
"823 416 CURVE",
"836 431 OFFCURVE",
"842 444 OFFCURVE",
"842 457 CURVE SMOOTH",
"842 470 OFFCURVE",
"836 485 OFFCURVE",
"823 500 CURVE",
"804 513 OFFCURVE",
"775 523 OFFCURVE",
"736 531 CURVE SMOOTH",
"703 537 OFFCURVE",
"669 543 OFFCURVE",
"636 550 CURVE",
"653 581 OFFCURVE",
"667 600 OFFCURVE",
"680 605 CURVE",
"682 611 OFFCURVE",
"697 635 OFFCURVE",
"724 676 CURVE SMOOTH",
"744 707 OFFCURVE",
"749 733 OFFCURVE",
"739 755 CURVE",
"717 760 OFFCURVE",
"701 765 OFFCURVE",
"691 769 CURVE",
"638 748 OFFCURVE",
"586 710 OFFCURVE",
"538 652 CURVE SMOOTH",
"415 503 LINE",
"404 513 OFFCURVE",
"399 526 OFFCURVE",
"399 541 CURVE SMOOTH",
"399 573 OFFCURVE",
"424 600 OFFCURVE",
"456 600 CURVE SMOOTH",
"462 600 OFFCURVE",
"468 599 OFFCURVE",
"474 598 CURVE",
"482 606 OFFCURVE",
"487 616 OFFCURVE",
"489 629 CURVE",
"484 640 OFFCURVE",
"474 651 OFFCURVE",
"458 660 CURVE SMOOTH",
"439 671 OFFCURVE",
"428 679 OFFCURVE",
"423 686 CURVE",
"418 703 OFFCURVE",
"412 719 OFFCURVE",
"406 736 CURVE SMOOTH",
"399 757 OFFCURVE",
"385 770 OFFCURVE",
"364 773 CURVE",
"350 766 OFFCURVE",
"341 756 OFFCURVE",
"338 742 CURVE SMOOTH",
"336 732 OFFCURVE",
"335 717 OFFCURVE",
"337 696 CURVE SMOOTH",
"338 676 OFFCURVE",
"338 661 OFFCURVE",
"335 650 CURVE",
"298 634 OFFCURVE",
"239 619 OFFCURVE",
"158 605 CURVE",
"169 564 OFFCURVE",
"201 544 OFFCURVE",
"255 543 CURVE SMOOTH",
"281 543 OFFCURVE",
"305 549 OFFCURVE",
"327 560 CURVE",
"330 551 OFFCURVE",
"331 544 OFFCURVE",
"331 537 CURVE SMOOTH",
"331 520 OFFCURVE",
"323 508 OFFCURVE",
"308 500 CURVE SMOOTH",
"267 478 OFFCURVE",
"239 460 OFFCURVE",
"221 448 CURVE SMOOTH",
"220 447 OFFCURVE",
"216 448 OFFCURVE",
"210 451 CURVE",
"193 434 OFFCURVE",
"181 422 OFFCURVE",
"173 413 CURVE",
"171 394 OFFCURVE",
"174 378 OFFCURVE",
"179 365 CURVE SMOOTH",
"195 326 LINE",
"212 329 OFFCURVE",
"235 324 OFFCURVE",
"264 311 CURVE",
"243 282 OFFCURVE",
"226 261 OFFCURVE",
"214 248 CURVE",
"222 205 OFFCURVE",
"241 183 OFFCURVE",
"272 182 CURVE",
"310 229 OFFCURVE",
"341 254 OFFCURVE",
"364 255 CURVE",
"371 291 OFFCURVE",
"393 334 OFFCURVE",
"408 339 CURVE",
"408 364 LINE",
"425 364 OFFCURVE",
"444 399 OFFCURVE",
"441 419 CURVE",
"463 444 OFFCURVE",
"478 477 OFFCURVE",
"485 518 CURVE",
"496 517 OFFCURVE",
"492 525 OFFCURVE",
"504 524 CURVE",
"505 529 OFFCURVE",
"496 535 OFFCURVE",
"496 535 CURVE",
"505 541 OFFCURVE",
"511 544 OFFCURVE",
"514 545 CURVE",
"516 557 OFFCURVE",
"520 563 OFFCURVE",
"526 563 CURVE",
"525 566 OFFCURVE",
"525 568 OFFCURVE",
"525 571 CURVE SMOOTH",
"525 579 OFFCURVE",
"541 590 OFFCURVE",
"540 602 CURVE",
"545 601 OFFCURVE",
"555 608 OFFCURVE",
"572 622 CURVE SMOOTH",
"589 637 OFFCURVE",
"601 649 OFFCURVE",
"607 658 CURVE",
"608 657 OFFCURVE",
"610 657 OFFCURVE",
"611 657 CURVE SMOOTH",
"615 657 OFFCURVE",
"620 664 OFFCURVE",
"623 664 CURVE SMOOTH",
"624 664 OFFCURVE",
"626 663 OFFCURVE",
"629 661 CURVE",
"583 590 LINE SMOOTH",
"563 559 OFFCURVE",
"557 533 OFFCURVE",
"562 511 CURVE SMOOTH",
"568 485 OFFCURVE",
"591 468 OFFCURVE",
"631 463 CURVE SMOOTH",
"662 460 OFFCURVE",
"693 459 OFFCURVE",
"724 458 CURVE",
"671 426 OFFCURVE",
"632 402 OFFCURVE",
"607 385 CURVE",
"615 380 OFFCURVE",
"615 376 OFFCURVE",
"607 371 CURVE",
"598 368 OFFCURVE",
"591 378 OFFCURVE",
"588 378 CURVE",
"583 371 OFFCURVE",
"575 363 OFFCURVE",
"565 358 CURVE",
"564 357 OFFCURVE",
"555 352 OFFCURVE",
"536 343 CURVE",
"532 359 OFFCURVE",
"519 375 OFFCURVE",
"496 392 CURVE",
"489 382 OFFCURVE",
"482 368 OFFCURVE",
"479 349 CURVE SMOOTH",
"470 297 LINE",
"392 241 OFFCURVE",
"350 211 OFFCURVE",
"345 206 CURVE",
"344 177 OFFCURVE",
"359 163 OFFCURVE",
"389 163 CURVE SMOOTH",
"416 163 OFFCURVE",
"444 183 OFFCURVE",
"455 192 CURVE",
"417 111 OFFCURVE",
"375 37 OFFCURVE",
"330 -31 CURVE",
"332 -38 OFFCURVE",
"338 -40 OFFCURVE",
"348 -39 CURVE SMOOTH",
"359 -38 OFFCURVE",
"364 -40 OFFCURVE",
"364 -45 CURVE",
"383 -43 OFFCURVE",
"400 -35 OFFCURVE",
"413 -22 CURVE SMOOTH",
"421 -15 OFFCURVE",
"431 -1 OFFCURVE",
"443 18 CURVE SMOOTH",
"456 37 OFFCURVE",
"466 51 OFFCURVE",
"474 59 CURVE",
"490 24 OFFCURVE",
"503 -2 OFFCURVE",
"514 -17 CURVE SMOOTH",
"534 -46 OFFCURVE",
"557 -64 OFFCURVE",
"584 -73 CURVE"
);
},
{
closed = 1;
nodes = (
"281 342 OFFCURVE",
"269 343 OFFCURVE",
"257 346 CURVE",
"229 357 LINE",
"233 373 OFFCURVE",
"246 387 OFFCURVE",
"269 399 CURVE SMOOTH",
"292 411 OFFCURVE",
"305 423 OFFCURVE",
"308 434 CURVE",
"317 429 OFFCURVE",
"322 421 OFFCURVE",
"322 411 CURVE SMOOTH",
"322 402 OFFCURVE",
"318 390 OFFCURVE",
"310 375 CURVE SMOOTH",
"294 343 LINE"
);
},
{
closed = 1;
nodes = (
"563 26 OFFCURVE",
"546 30 OFFCURVE",
"528 41 CURVE SMOOTH",
"508 54 OFFCURVE",
"497 70 OFFCURVE",
"496 91 CURVE SMOOTH",
"495 98 OFFCURVE",
"500 110 OFFCURVE",
"508 126 CURVE SMOOTH",
"529 168 LINE",
"555 232 LINE",
"567 251 OFFCURVE",
"586 260 OFFCURVE",
"611 260 CURVE SMOOTH",
"616 260 OFFCURVE",
"622 260 OFFCURVE",
"629 259 CURVE",
"654 244 OFFCURVE",
"667 212 OFFCURVE",
"667 162 CURVE SMOOTH",
"667 139 OFFCURVE",
"664 119 OFFCURVE",
"658 101 CURVE SMOOTH",
"653 88 OFFCURVE",
"642 74 OFFCURVE",
"624 57 CURVE SMOOTH",
"606 40 OFFCURVE",
"591 31 OFFCURVE",
"580 29 CURVE SMOOTH"
);
}
);
vertWidth = 1000;
width = 1000;
}
);
note = cid00868;
unicode = 305B;
},
{
glyphname = "ze-hira";
lastChange = "2020-12-04 08:03:05 +0000";
layers = (
{
hints = (
{
horizontal = 1;
place = "{524, 112}";
type = Stem;
},
{
place = "{155, 56}";
type = Stem;
},
{
place = "{313, 68}";
type = Stem;
},
{
place = "{649, 83}";
type = Stem;
}
);
layerId = "F065C3D4-A6F6-48F7-ABC0-534A710C84EA";
paths = (
{
closed = 1;
nodes = (
"677 -68 OFFCURVE",
"732 3 OFFCURVE",
"732 126 CURVE SMOOTH",
"732 155 OFFCURVE",
"728 186 OFFCURVE",
"721 218 CURVE",
"705 233 OFFCURVE",
"689 252 OFFCURVE",
"673 274 CURVE",
"666 279 OFFCURVE",
"652 283 OFFCURVE",
"630 286 CURVE SMOOTH",
"613 288 OFFCURVE",
"603 295 OFFCURVE",
"599 306 CURVE",
"626 311 OFFCURVE",
"660 326 OFFCURVE",
"700 349 CURVE SMOOTH",
"745 376 OFFCURVE",
"780 393 OFFCURVE",
"805 400 CURVE",
"818 415 OFFCURVE",
"824 428 OFFCURVE",
"824 441 CURVE SMOOTH",
"824 454 OFFCURVE",
"818 469 OFFCURVE",
"805 484 CURVE",
"786 497 OFFCURVE",
"757 507 OFFCURVE",
"718 515 CURVE SMOOTH",
"685 521 OFFCURVE",
"651 527 OFFCURVE",
"618 534 CURVE",
"635 565 OFFCURVE",
"649 584 OFFCURVE",
"662 589 CURVE",
"664 595 OFFCURVE",
"679 619 OFFCURVE",
"706 660 CURVE SMOOTH",
"726 691 OFFCURVE",
"731 717 OFFCURVE",
"721 739 CURVE",
"699 744 OFFCURVE",
"683 749 OFFCURVE",
"673 753 CURVE",
"620 732 OFFCURVE",
"568 694 OFFCURVE",
"520 636 CURVE SMOOTH",
"397 487 LINE",
"386 497 OFFCURVE",
"381 510 OFFCURVE",
"381 525 CURVE SMOOTH",
"381 557 OFFCURVE",
"406 584 OFFCURVE",
"438 584 CURVE SMOOTH",
"444 584 OFFCURVE",
"450 583 OFFCURVE",
"456 582 CURVE",
"464 590 OFFCURVE",
"469 600 OFFCURVE",
"471 613 CURVE",
"466 624 OFFCURVE",
"456 635 OFFCURVE",
"440 644 CURVE SMOOTH",
"421 655 OFFCURVE",
"410 663 OFFCURVE",
"405 670 CURVE",
"400 687 OFFCURVE",
"394 703 OFFCURVE",
"388 720 CURVE SMOOTH",
"381 741 OFFCURVE",
"367 754 OFFCURVE",
"346 757 CURVE",
"332 750 OFFCURVE",
"323 740 OFFCURVE",
"320 726 CURVE SMOOTH",
"318 716 OFFCURVE",
"317 701 OFFCURVE",
"319 680 CURVE SMOOTH",
"320 660 OFFCURVE",
"320 645 OFFCURVE",
"317 634 CURVE",
"280 618 OFFCURVE",
"221 603 OFFCURVE",
"140 589 CURVE",
"151 548 OFFCURVE",
"183 528 OFFCURVE",
"237 527 CURVE SMOOTH",
"263 527 OFFCURVE",
"287 533 OFFCURVE",
"309 544 CURVE",
"312 535 OFFCURVE",
"313 528 OFFCURVE",
"313 521 CURVE SMOOTH",
"313 504 OFFCURVE",
"305 492 OFFCURVE",
"290 484 CURVE SMOOTH",
"249 462 OFFCURVE",
"221 444 OFFCURVE",
"203 432 CURVE SMOOTH",
"202 431 OFFCURVE",
"198 432 OFFCURVE",
"192 435 CURVE",
"175 418 OFFCURVE",
"163 406 OFFCURVE",
"155 397 CURVE",
"153 378 OFFCURVE",
"156 362 OFFCURVE",
"161 349 CURVE SMOOTH",
"177 310 LINE",
"194 313 OFFCURVE",
"217 308 OFFCURVE",
"246 295 CURVE",
"225 266 OFFCURVE",
"208 245 OFFCURVE",
"196 232 CURVE",
"204 189 OFFCURVE",
"223 167 OFFCURVE",
"254 166 CURVE",
"292 213 OFFCURVE",
"323 238 OFFCURVE",
"346 239 CURVE",
"353 275 OFFCURVE",
"375 318 OFFCURVE",
"390 323 CURVE",
"390 348 LINE",
"407 348 OFFCURVE",
"426 383 OFFCURVE",
"423 403 CURVE",
"445 428 OFFCURVE",
"460 461 OFFCURVE",
"467 502 CURVE",
"478 501 OFFCURVE",
"474 509 OFFCURVE",
"486 508 CURVE",
"487 513 OFFCURVE",
"478 519 OFFCURVE",
"478 519 CURVE",
"487 525 OFFCURVE",
"493 528 OFFCURVE",
"496 529 CURVE",
"498 541 OFFCURVE",
"502 547 OFFCURVE",
"508 547 CURVE",
"507 550 OFFCURVE",
"507 552 OFFCURVE",
"507 555 CURVE SMOOTH",
"507 563 OFFCURVE",
"523 574 OFFCURVE",
"522 586 CURVE",
"527 585 OFFCURVE",
"537 592 OFFCURVE",
"554 606 CURVE SMOOTH",
"571 621 OFFCURVE",
"583 633 OFFCURVE",
"589 642 CURVE",
"590 641 OFFCURVE",
"592 641 OFFCURVE",
"593 641 CURVE SMOOTH",
"597 641 OFFCURVE",
"602 648 OFFCURVE",
"605 648 CURVE SMOOTH",
"606 648 OFFCURVE",
"608 647 OFFCURVE",
"611 645 CURVE",
"565 574 LINE SMOOTH",
"545 543 OFFCURVE",
"539 517 OFFCURVE",
"544 495 CURVE SMOOTH",
"550 469 OFFCURVE",
"573 452 OFFCURVE",
"613 447 CURVE SMOOTH",
"644 444 OFFCURVE",
"675 443 OFFCURVE",
"706 442 CURVE",
"653 410 OFFCURVE",
"614 386 OFFCURVE",
"589 369 CURVE",
"597 364 OFFCURVE",
"597 360 OFFCURVE",
"589 355 CURVE",
"580 352 OFFCURVE",
"573 362 OFFCURVE",
"570 362 CURVE",
"565 355 OFFCURVE",
"557 347 OFFCURVE",
"547 342 CURVE",
"546 341 OFFCURVE",
"537 336 OFFCURVE",
"518 327 CURVE",
"514 343 OFFCURVE",
"501 359 OFFCURVE",
"478 376 CURVE",
"471 366 OFFCURVE",
"464 352 OFFCURVE",
"461 333 CURVE SMOOTH",
"452 281 LINE",
"374 225 OFFCURVE",
"332 195 OFFCURVE",
"327 190 CURVE",
"326 161 OFFCURVE",
"341 147 OFFCURVE",
"371 147 CURVE SMOOTH",
"398 147 OFFCURVE",
"426 167 OFFCURVE",
"437 176 CURVE",
"399 95 OFFCURVE",
"357 21 OFFCURVE",
"312 -47 CURVE",
"314 -54 OFFCURVE",
"320 -56 OFFCURVE",
"330 -55 CURVE SMOOTH",
"341 -54 OFFCURVE",
"346 -56 OFFCURVE",
"346 -61 CURVE",
"365 -59 OFFCURVE",
"382 -51 OFFCURVE",
"395 -38 CURVE SMOOTH",
"403 -31 OFFCURVE",
"413 -17 OFFCURVE",
"425 2 CURVE SMOOTH",
"438 21 OFFCURVE",
"448 35 OFFCURVE",
"456 43 CURVE",
"472 8 OFFCURVE",
"485 -18 OFFCURVE",
"496 -33 CURVE SMOOTH",
"516 -62 OFFCURVE",
"539 -80 OFFCURVE",
"566 -89 CURVE"
);
},
{
closed = 1;
nodes = (
"263 326 OFFCURVE",
"251 327 OFFCURVE",
"239 330 CURVE",
"211 341 LINE",
"215 357 OFFCURVE",
"228 371 OFFCURVE",
"251 383 CURVE SMOOTH",
"274 395 OFFCURVE",
"287 407 OFFCURVE",
"290 418 CURVE",
"299 413 OFFCURVE",
"304 405 OFFCURVE",
"304 395 CURVE SMOOTH",
"304 386 OFFCURVE",
"300 374 OFFCURVE",
"292 359 CURVE SMOOTH",
"276 327 LINE"
);
},
{
closed = 1;
nodes = (
"545 10 OFFCURVE",
"528 14 OFFCURVE",
"510 25 CURVE SMOOTH",
"490 38 OFFCURVE",
"479 54 OFFCURVE",
"478 75 CURVE SMOOTH",
"477 82 OFFCURVE",
"482 94 OFFCURVE",
"490 110 CURVE SMOOTH",
"511 152 LINE",
"537 216 LINE",
"549 235 OFFCURVE",
"568 244 OFFCURVE",
"593 244 CURVE SMOOTH",
"598 244 OFFCURVE",
"604 244 OFFCURVE",
"611 243 CURVE",
"636 228 OFFCURVE",
"649 196 OFFCURVE",
"649 146 CURVE SMOOTH",
"649 123 OFFCURVE",
"646 103 OFFCURVE",
"640 85 CURVE SMOOTH",
"635 72 OFFCURVE",
"624 58 OFFCURVE",
"606 41 CURVE SMOOTH",
"588 24 OFFCURVE",
"573 15 OFFCURVE",
"562 13 CURVE SMOOTH"
);
},
{
closed = 1;
nodes = (
"812 521 OFFCURVE",
"838 517 OFFCURVE",
"863 544 CURVE",
"852 608 OFFCURVE",
"790 650 OFFCURVE",
"725 632 CURVE",
"734 605 OFFCURVE",
"759 560 OFFCURVE",
"789 538 CURVE SMOOTH"
);
},
{
closed = 1;
nodes = (
"973 679 OFFCURVE",
"887 696 OFFCURVE",
"835 686 CURVE",
"852 666 OFFCURVE",
"873 628 OFFCURVE",
"898 604 CURVE SMOOTH",
"921 583 OFFCURVE",
"947 574 OFFCURVE",
"979 601 CURVE"
);
}
);
vertWidth = 1000;
width = 1000;
}
);
note = cid00869;
unicode = 305C;
},
{
glyphname = "so-hira";
lastChange = "2020-12-04 08:03:05 +0000";
layers = (
{
hints = (
{
horizontal = 1;
place = "{144, 35}";
type = Stem;
},
{
horizontal = 1;
place = "{580, 22}";
type = Stem;
},
{
place = "{173, 8}";
type = Stem;
},
{
place = "{339, 55}";
type = Stem;
},
{
place = "{448, 85}";
type = Stem;
},
{
place = "{782, 9}";
type = Stem;
},
{
place = "{560, 76}";
type = Stem;
},
{
place = "{142, 57}";
type = Stem;
},
{
place = "{335, 15}";
type = Stem;
},
{
place = "{301, 70}";
type = Stem;
},
{
place = "{467, 72}";
type = Stem;
},
{
place = "{427, 28}";
type = Stem;
},
{
place = "{750, 7}";
type = Stem;
}
);
layerId = "F065C3D4-A6F6-48F7-ABC0-534A710C84EA";
paths = (
{
closed = 1;
nodes = (
"610 -54 OFFCURVE",
"616 -49 OFFCURVE",
"627 -41 CURVE SMOOTH",
"636 -34 OFFCURVE",
"640 -25 OFFCURVE",
"638 -14 CURVE",
"632 -3 OFFCURVE",
"619 5 OFFCURVE",
"598 12 CURVE SMOOTH",
"566 23 OFFCURVE",
"525 31 OFFCURVE",
"525 51 CURVE SMOOTH",
"525 56 OFFCURVE",
"528 63 OFFCURVE",
"533 70 CURVE",
"533 114 LINE SMOOTH",
"533 131 OFFCURVE",
"532 146 OFFCURVE",
"528 159 CURVE SMOOTH",
"523 176 OFFCURVE",
"510 190 OFFCURVE",
"488 203 CURVE SMOOTH",
"467 216 OFFCURVE",
"456 226 OFFCURVE",
"455 232 CURVE SMOOTH",
"454 243 OFFCURVE",
"458 252 OFFCURVE",
"468 260 CURVE",
"494 275 LINE",
"505 269 OFFCURVE",
"516 266 OFFCURVE",
"527 266 CURVE SMOOTH",
"543 266 OFFCURVE",
"555 273 OFFCURVE",
"564 286 CURVE",
"565 297 OFFCURVE",
"561 306 OFFCURVE",
"552 315 CURVE SMOOTH",
"543 324 OFFCURVE",
"539 332 OFFCURVE",
"539 341 CURVE",
"545 350 OFFCURVE",
"558 356 OFFCURVE",
"577 359 CURVE SMOOTH",
"624 367 LINE",
"627 362 OFFCURVE",
"640 329 OFFCURVE",
"664 268 CURVE SMOOTH",
"681 224 OFFCURVE",
"698 192 OFFCURVE",
"715 172 CURVE",
"716 174 OFFCURVE",
"718 175 OFFCURVE",
"721 175 CURVE SMOOTH",
"724 175 OFFCURVE",
"725 174 OFFCURVE",
"726 172 CURVE",
"723 168 OFFCURVE",
"722 164 OFFCURVE",
"722 160 CURVE SMOOTH",
"722 151 OFFCURVE",
"730 142 OFFCURVE",
"746 131 CURVE SMOOTH",
"769 116 OFFCURVE",
"782 107 OFFCURVE",
"786 103 CURVE",
"801 103 OFFCURVE",
"813 109 OFFCURVE",
"820 122 CURVE SMOOTH",
"823 129 OFFCURVE",
"825 137 OFFCURVE",
"828 145 CURVE",
"819 142 OFFCURVE",
"814 143 OFFCURVE",
"814 148 CURVE",
"820 150 OFFCURVE",
"823 156 OFFCURVE",
"823 167 CURVE SMOOTH",
"823 175 OFFCURVE",
"820 190 OFFCURVE",
"814 211 CURVE",
"813 212 OFFCURVE",
"811 212 OFFCURVE",
"810 212 CURVE SMOOTH",
"806 212 OFFCURVE",
"799 208 OFFCURVE",
"798 208 CURVE SMOOTH",
"797 208 OFFCURVE",
"796 209 OFFCURVE",
"796 211 CURVE",
"799 217 OFFCURVE",
"800 225 OFFCURVE",
"800 234 CURVE SMOOTH",
"800 243 OFFCURVE",
"798 254 OFFCURVE",
"795 268 CURVE SMOOTH",
"792 282 OFFCURVE",
"791 290 OFFCURVE",
"792 292 CURVE",
"794 300 OFFCURVE",
"795 310 OFFCURVE",
"795 323 CURVE SMOOTH",
"795 334 OFFCURVE",
"794 354 OFFCURVE",
"791 381 CURVE SMOOTH",
"789 406 OFFCURVE",
"788 423 OFFCURVE",
"789 433 CURVE",
"795 437 OFFCURVE",
"809 440 OFFCURVE",
"830 442 CURVE SMOOTH",
"849 443 OFFCURVE",
"862 447 OFFCURVE",
"867 454 CURVE",
"867 455 OFFCURVE",
"866 461 OFFCURVE",
"865 472 CURVE SMOOTH",
"865 479 OFFCURVE",
"863 485 OFFCURVE",
"859 489 CURVE SMOOTH",
"844 501 OFFCURVE",
"827 507 OFFCURVE",
"809 506 CURVE SMOOTH",
"792 506 OFFCURVE",
"772 500 OFFCURVE",
"747 488 CURVE SMOOTH",
"684 458 LINE",
"675 476 OFFCURVE",
"670 500 OFFCURVE",
"669 531 CURVE",
"739 566 LINE",
"762 575 OFFCURVE",
"777 580 OFFCURVE",
"783 580 CURVE SMOOTH",
"786 580 OFFCURVE",
"789 579 OFFCURVE",
"792 578 CURVE",
"784 597 OFFCURVE",
"778 609 OFFCURVE",
"775 615 CURVE",
"743 628 LINE SMOOTH",
"728 634 OFFCURVE",
"717 636 OFFCURVE",
"709 636 CURVE SMOOTH",
"698 636 OFFCURVE",
"691 632 OFFCURVE",
"687 623 CURVE",
"684 624 OFFCURVE",
"683 627 OFFCURVE",
"684 633 CURVE",
"652 629 OFFCURVE",
"636 657 OFFCURVE",
"636 686 CURVE SMOOTH",
"636 695 OFFCURVE",
"638 702 OFFCURVE",
"641 707 CURVE",
"639 719 OFFCURVE",
"630 731 OFFCURVE",
"613 744 CURVE SMOOTH",
"596 757 OFFCURVE",
"588 763 OFFCURVE",
"588 764 CURVE",
"569 753 OFFCURVE",
"560 733 OFFCURVE",
"560 702 CURVE SMOOTH",
"560 685 OFFCURVE",
"563 663 OFFCURVE",
"569 636 CURVE SMOOTH",
"573 617 OFFCURVE",
"577 597 OFFCURVE",
"582 578 CURVE",
"569 571 OFFCURVE",
"555 565 OFFCURVE",
"541 558 CURVE SMOOTH",
"524 549 OFFCURVE",
"516 540 OFFCURVE",
"515 531 CURVE",
"512 530 OFFCURVE",
"511 532 OFFCURVE",
"512 539 CURVE",
"497 534 OFFCURVE",
"479 525 OFFCURVE",
"458 512 CURVE SMOOTH",
"433 497 OFFCURVE",
"416 487 OFFCURVE",
"406 482 CURVE",
"401 522 OFFCURVE",
"415 544 OFFCURVE",
"448 549 CURVE",
"457 552 OFFCURVE",
"463 559 OFFCURVE",
"465 570 CURVE",
"464 573 OFFCURVE",
"464 577 OFFCURVE",
"465 584 CURVE SMOOTH",
"466 593 OFFCURVE",
"467 599 OFFCURVE",
"467 602 CURVE SMOOTH",
"467 611 OFFCURVE",
"463 617 OFFCURVE",
"455 620 CURVE",
"454 622 OFFCURVE",
"449 624 OFFCURVE",
"440 625 CURVE",
"434 627 OFFCURVE",
"431 631 OFFCURVE",
"431 636 CURVE",
"411 633 OFFCURVE",
"399 641 OFFCURVE",
"394 659 CURVE",
"393 667 OFFCURVE",
"392 680 OFFCURVE",
"393 697 CURVE SMOOTH",
"394 714 OFFCURVE",
"394 727 OFFCURVE",
"392 735 CURVE",
"384 738 OFFCURVE",
"362 760 OFFCURVE",
"350 760 CURVE SMOOTH",
"345 760 OFFCURVE",
"340 758 OFFCURVE",
"335 753 CURVE",
"330 712 OFFCURVE",
"331 663 OFFCURVE",
"339 605 CURVE",
"255 570 OFFCURVE",
"203 545 OFFCURVE",
"184 528 CURVE",
"188 519 OFFCURVE",
"191 513 OFFCURVE",
"194 510 CURVE",
"214 499 OFFCURVE",
"236 494 OFFCURVE",
"259 497 CURVE",
"262 492 OFFCURVE",
"267 490 OFFCURVE",
"274 490 CURVE SMOOTH",
"281 490 OFFCURVE",
"292 493 OFFCURVE",
"307 498 CURVE SMOOTH",
"322 503 OFFCURVE",
"333 506 OFFCURVE",
"339 507 CURVE",
"344 458 OFFCURVE",
"332 417 OFFCURVE",
"298 390 CURVE SMOOTH",
"244 348 LINE SMOOTH",
"224 332 OFFCURVE",
"211 315 OFFCURVE",
"205 296 CURVE",
"196 297 OFFCURVE",
"190 294 OFFCURVE",
"187 286 CURVE SMOOTH",
"184 278 OFFCURVE",
"181 274 OFFCURVE",
"178 275 CURVE",
"175 270 OFFCURVE",
"185 262 OFFCURVE",
"185 261 CURVE SMOOTH",
"185 260 OFFCURVE",
"184 258 OFFCURVE",
"181 257 CURVE",
"178 264 OFFCURVE",
"176 267 OFFCURVE",
"173 268 CURVE",
"164 253 OFFCURVE",
"159 237 OFFCURVE",
"155 218 CURVE SMOOTH",
"153 205 OFFCURVE",
"147 197 OFFCURVE",
"139 194 CURVE",
"144 184 OFFCURVE",
"143 179 OFFCURVE",
"136 179 CURVE SMOOTH",
"135 179 OFFCURVE",
"133 179 OFFCURVE",
"131 180 CURVE",
"130 163 OFFCURVE",
"137 144 OFFCURVE",
"148 144 CURVE SMOOTH",
"151 144 OFFCURVE",
"153 145 OFFCURVE",
"156 148 CURVE",
"163 138 LINE",
"158 138 OFFCURVE",
"156 137 OFFCURVE",
"156 135 CURVE",
"164 132 OFFCURVE",
"171 126 OFFCURVE",
"177 117 CURVE SMOOTH",
"188 96 LINE",
"199 99 OFFCURVE",
"207 99 OFFCURVE",
"210 96 CURVE",
"224 92 OFFCURVE",
"247 100 OFFCURVE",
"280 121 CURVE",
"302 139 OFFCURVE",
"314 149 OFFCURVE",
"316 152 CURVE",
"327 163 OFFCURVE",
"334 176 OFFCURVE",
"335 190 CURVE",
"342 187 OFFCURVE",
"347 189 OFFCURVE",
"350 194 CURVE",
"349 201 OFFCURVE",
"352 212 OFFCURVE",
"359 229 CURVE SMOOTH",
"366 246 OFFCURVE",
"370 259 OFFCURVE",
"371 268 CURVE",
"368 317 OFFCURVE",
"382 357 OFFCURVE",
"415 388 CURVE SMOOTH",
"429 401 OFFCURVE",
"468 425 OFFCURVE",
"528 461 CURVE SMOOTH",
"552 475 OFFCURVE",
"577 497 OFFCURVE",
"592 497 CURVE",
"599 470 OFFCURVE",
"603 445 OFFCURVE",
"606 422 CURVE",
"569 401 OFFCURVE",
"532 377 OFFCURVE",
"483 373 CURVE",
"480 364 OFFCURVE",
"480 352 OFFCURVE",
"465 352 CURVE",
"466 345 OFFCURVE",
"467 339 OFFCURVE",
"467 332 CURVE SMOOTH",
"467 316 OFFCURVE",
"461 295 OFFCURVE",
"450 268 CURVE SMOOTH",
"437 239 OFFCURVE",
"429 217 OFFCURVE",
"427 201 CURVE",
"441 186 OFFCURVE",
"448 161 OFFCURVE",
"448 124 CURVE SMOOTH",
"448 106 OFFCURVE",
"446 79 OFFCURVE",
"441 43 CURVE",
"465 4 OFFCURVE",
"496 -23 OFFCURVE",
"533 -38 CURVE SMOOTH",
"547 -44 OFFCURVE",
"555 -49 OFFCURVE",
"557 -52 CURVE",
"560 -51 OFFCURVE",
"563 -50 OFFCURVE",
"567 -50 CURVE SMOOTH",
"575 -50 OFFCURVE",
"600 -57 OFFCURVE",
"609 -56 CURVE"
);
},
{
closed = 1;
nodes = (
"196 145 OFFCURVE",
"186 150 OFFCURVE",
"178 151 CURVE",
"177 156 OFFCURVE",
"184 165 OFFCURVE",
"199 180 CURVE",
"197 187 OFFCURVE",
"193 192 OFFCURVE",
"188 194 CURVE",
"189 196 OFFCURVE",
"191 197 OFFCURVE",
"192 198 CURVE",
"195 198 OFFCURVE",
"201 186 OFFCURVE",
"205 187 CURVE",
"211 190 OFFCURVE",
"212 197 OFFCURVE",
"209 208 CURVE",
"218 208 OFFCURVE",
"224 211 OFFCURVE",
"227 216 CURVE SMOOTH",
"236 229 LINE",
"235 233 OFFCURVE",
"230 228 OFFCURVE",
"230 232 CURVE",
"238 235 OFFCURVE",
"250 246 OFFCURVE",
"266 263 CURVE SMOOTH",
"282 281 OFFCURVE",
"294 292 OFFCURVE",
"301 296 CURVE",
"304 271 OFFCURVE",
"295 239 OFFCURVE",
"272 200 CURVE SMOOTH",
"249 161 OFFCURVE",
"228 140 OFFCURVE",
"209 135 CURVE"
);
},
{
closed = 1;
nodes = (
"728 285 OFFCURVE",
"705 336 OFFCURVE",
"697 404 CURVE",
"727 417 OFFCURVE",
"754 426 OFFCURVE",
"778 430 CURVE",
"781 412 OFFCURVE",
"782 394 OFFCURVE",
"782 377 CURVE SMOOTH",
"782 358 OFFCURVE",
"776 315 OFFCURVE",
"765 250 CURVE"
);
},
{
closed = 1;
nodes = (
"732 610 OFFCURVE",
"749 607 OFFCURVE",
"750 612 CURVE",
"753 609 OFFCURVE",
"755 608 OFFCURVE",
"756 609 CURVE",
"757 609 OFFCURVE",
"758 611 OFFCURVE",
"757 615 CURVE",
"761 615 OFFCURVE",
"761 611 OFFCURVE",
"757 602 CURVE",
"751 605 OFFCURVE",
"743 605 OFFCURVE",
"733 602 CURVE"
);
}
);
vertWidth = 1000;
width = 1000;
}
);
note = cid00870;
unicode = 305D;
},
{
glyphname = "zo-hira";
lastChange = "2020-12-04 08:03:05 +0000";
layers = (
{
hints = (
{
horizontal = 1;
place = "{130, 35}";
type = Stem;
},
{
horizontal = 1;
place = "{566, 22}";
type = Stem;
},
{
horizontal = 1;
place = "{640, 112}";
type = Stem;
},
{
place = "{171, 8}";
type = Stem;
},
{
place = "{337, 55}";
type = Stem;
},
{
place = "{446, 85}";
type = Stem;
},
{
place = "{780, 9}";
type = Stem;
},
{
place = "{558, 76}";
type = Stem;
},
{
place = "{140, 57}";
type = Stem;
},
{
place = "{333, 15}";
type = Stem;
},
{
place = "{299, 70}";
type = Stem;
},
{
place = "{465, 72}";
type = Stem;
},
{
place = "{425, 28}";
type = Stem;
},
{
place = "{748, 7}";
type = Stem;
}
);
layerId = "F065C3D4-A6F6-48F7-ABC0-534A710C84EA";
paths = (
{
closed = 1;
nodes = (
"608 -68 OFFCURVE",
"614 -63 OFFCURVE",
"625 -55 CURVE SMOOTH",
"634 -48 OFFCURVE",
"638 -39 OFFCURVE",
"636 -28 CURVE",
"630 -17 OFFCURVE",
"617 -9 OFFCURVE",
"596 -2 CURVE SMOOTH",
"564 9 OFFCURVE",
"523 17 OFFCURVE",
"523 37 CURVE SMOOTH",
"523 42 OFFCURVE",
"526 49 OFFCURVE",
"531 56 CURVE",
"531 100 LINE SMOOTH",
"531 117 OFFCURVE",
"530 132 OFFCURVE",
"526 145 CURVE SMOOTH",
"521 162 OFFCURVE",
"508 176 OFFCURVE",
"486 189 CURVE SMOOTH",
"465 202 OFFCURVE",
"454 212 OFFCURVE",
"453 218 CURVE SMOOTH",
"452 229 OFFCURVE",
"456 238 OFFCURVE",
"466 246 CURVE",
"492 261 LINE",
"503 255 OFFCURVE",
"514 252 OFFCURVE",
"525 252 CURVE SMOOTH",
"541 252 OFFCURVE",
"553 259 OFFCURVE",
"562 272 CURVE",
"563 283 OFFCURVE",
"559 292 OFFCURVE",
"550 301 CURVE SMOOTH",
"541 310 OFFCURVE",
"537 318 OFFCURVE",
"537 327 CURVE",
"543 336 OFFCURVE",
"556 342 OFFCURVE",
"575 345 CURVE SMOOTH",
"622 353 LINE",
"625 348 OFFCURVE",
"638 315 OFFCURVE",
"662 254 CURVE SMOOTH",
"679 210 OFFCURVE",
"696 178 OFFCURVE",
"713 158 CURVE",
"714 160 OFFCURVE",
"716 161 OFFCURVE",
"719 161 CURVE SMOOTH",
"722 161 OFFCURVE",
"723 160 OFFCURVE",
"724 158 CURVE",
"721 154 OFFCURVE",
"720 150 OFFCURVE",
"720 146 CURVE SMOOTH",
"720 137 OFFCURVE",
"728 128 OFFCURVE",
"744 117 CURVE SMOOTH",
"767 102 OFFCURVE",
"780 93 OFFCURVE",
"784 89 CURVE",
"799 89 OFFCURVE",
"811 95 OFFCURVE",
"818 108 CURVE SMOOTH",
"821 115 OFFCURVE",
"823 123 OFFCURVE",
"826 131 CURVE",
"817 128 OFFCURVE",
"812 129 OFFCURVE",
"812 134 CURVE",
"818 136 OFFCURVE",
"821 142 OFFCURVE",
"821 153 CURVE SMOOTH",
"821 161 OFFCURVE",
"818 176 OFFCURVE",
"812 197 CURVE",
"811 198 OFFCURVE",
"809 198 OFFCURVE",
"808 198 CURVE SMOOTH",
"804 198 OFFCURVE",
"797 194 OFFCURVE",
"796 194 CURVE SMOOTH",
"795 194 OFFCURVE",
"794 195 OFFCURVE",
"794 197 CURVE",
"797 203 OFFCURVE",
"798 211 OFFCURVE",
"798 220 CURVE SMOOTH",
"798 229 OFFCURVE",
"796 240 OFFCURVE",
"793 254 CURVE SMOOTH",
"790 268 OFFCURVE",
"789 276 OFFCURVE",
"790 278 CURVE",
"792 286 OFFCURVE",
"793 296 OFFCURVE",
"793 309 CURVE SMOOTH",
"793 320 OFFCURVE",
"792 340 OFFCURVE",
"789 367 CURVE SMOOTH",
"787 392 OFFCURVE",
"786 409 OFFCURVE",
"787 419 CURVE",
"793 423 OFFCURVE",
"807 426 OFFCURVE",
"828 428 CURVE SMOOTH",
"847 429 OFFCURVE",
"860 433 OFFCURVE",
"865 440 CURVE",
"865 441 OFFCURVE",
"864 447 OFFCURVE",
"863 458 CURVE SMOOTH",
"863 465 OFFCURVE",
"861 471 OFFCURVE",
"857 475 CURVE SMOOTH",
"842 487 OFFCURVE",
"825 493 OFFCURVE",
"807 492 CURVE SMOOTH",
"790 492 OFFCURVE",
"770 486 OFFCURVE",
"745 474 CURVE SMOOTH",
"682 444 LINE",
"673 462 OFFCURVE",
"668 486 OFFCURVE",
"667 517 CURVE",
"737 552 LINE",
"760 561 OFFCURVE",
"775 566 OFFCURVE",
"781 566 CURVE SMOOTH",
"784 566 OFFCURVE",
"787 565 OFFCURVE",
"790 564 CURVE",
"782 583 OFFCURVE",
"776 595 OFFCURVE",
"773 601 CURVE",
"741 614 LINE SMOOTH",
"726 620 OFFCURVE",
"715 622 OFFCURVE",
"707 622 CURVE SMOOTH",
"696 622 OFFCURVE",
"689 618 OFFCURVE",
"685 609 CURVE",
"682 610 OFFCURVE",
"681 613 OFFCURVE",
"682 619 CURVE",
"650 615 OFFCURVE",
"634 643 OFFCURVE",
"634 672 CURVE SMOOTH",
"634 681 OFFCURVE",
"636 688 OFFCURVE",
"639 693 CURVE",
"637 705 OFFCURVE",
"628 717 OFFCURVE",
"611 730 CURVE SMOOTH",
"594 743 OFFCURVE",
"586 749 OFFCURVE",
"586 750 CURVE",
"567 739 OFFCURVE",
"558 719 OFFCURVE",
"558 688 CURVE SMOOTH",
"558 671 OFFCURVE",
"561 649 OFFCURVE",
"567 622 CURVE SMOOTH",
"571 603 OFFCURVE",
"575 583 OFFCURVE",
"580 564 CURVE",
"567 557 OFFCURVE",
"553 551 OFFCURVE",
"539 544 CURVE SMOOTH",
"522 535 OFFCURVE",
"514 526 OFFCURVE",
"513 517 CURVE",
"510 516 OFFCURVE",
"509 518 OFFCURVE",
"510 525 CURVE",
"495 520 OFFCURVE",
"477 511 OFFCURVE",
"456 498 CURVE SMOOTH",
"431 483 OFFCURVE",
"414 473 OFFCURVE",
"404 468 CURVE",
"399 508 OFFCURVE",
"413 530 OFFCURVE",
"446 535 CURVE",
"455 538 OFFCURVE",
"461 545 OFFCURVE",
"463 556 CURVE",
"462 559 OFFCURVE",
"462 563 OFFCURVE",
"463 570 CURVE SMOOTH",
"464 579 OFFCURVE",
"465 585 OFFCURVE",
"465 588 CURVE SMOOTH",
"465 597 OFFCURVE",
"461 603 OFFCURVE",
"453 606 CURVE",
"452 608 OFFCURVE",
"447 610 OFFCURVE",
"438 611 CURVE",
"432 613 OFFCURVE",
"429 617 OFFCURVE",
"429 622 CURVE",
"409 619 OFFCURVE",
"397 627 OFFCURVE",
"392 645 CURVE",
"391 653 OFFCURVE",
"390 666 OFFCURVE",
"391 683 CURVE SMOOTH",
"392 700 OFFCURVE",
"392 713 OFFCURVE",
"390 721 CURVE",
"382 724 OFFCURVE",
"360 746 OFFCURVE",
"348 746 CURVE SMOOTH",
"343 746 OFFCURVE",
"338 744 OFFCURVE",
"333 739 CURVE",
"328 698 OFFCURVE",
"329 649 OFFCURVE",
"337 591 CURVE",
"253 556 OFFCURVE",
"201 531 OFFCURVE",
"182 514 CURVE",
"186 505 OFFCURVE",
"189 499 OFFCURVE",
"192 496 CURVE",
"212 485 OFFCURVE",
"234 480 OFFCURVE",
"257 483 CURVE",
"260 478 OFFCURVE",
"265 476 OFFCURVE",
"272 476 CURVE SMOOTH",
"279 476 OFFCURVE",
"290 479 OFFCURVE",
"305 484 CURVE SMOOTH",
"320 489 OFFCURVE",
"331 492 OFFCURVE",
"337 493 CURVE",
"342 444 OFFCURVE",
"330 403 OFFCURVE",
"296 376 CURVE SMOOTH",
"242 334 LINE SMOOTH",
"222 318 OFFCURVE",
"209 301 OFFCURVE",
"203 282 CURVE",
"194 283 OFFCURVE",
"188 280 OFFCURVE",
"185 272 CURVE SMOOTH",
"182 264 OFFCURVE",
"179 260 OFFCURVE",
"176 261 CURVE",
"173 256 OFFCURVE",
"183 248 OFFCURVE",
"183 247 CURVE SMOOTH",
"183 246 OFFCURVE",
"182 244 OFFCURVE",
"179 243 CURVE",
"176 250 OFFCURVE",
"174 253 OFFCURVE",
"171 254 CURVE",
"162 239 OFFCURVE",
"157 223 OFFCURVE",
"153 204 CURVE SMOOTH",
"151 191 OFFCURVE",
"145 183 OFFCURVE",
"137 180 CURVE",
"142 170 OFFCURVE",
"141 165 OFFCURVE",
"134 165 CURVE SMOOTH",
"133 165 OFFCURVE",
"131 165 OFFCURVE",
"129 166 CURVE",
"128 149 OFFCURVE",
"135 130 OFFCURVE",
"146 130 CURVE SMOOTH",
"149 130 OFFCURVE",
"151 131 OFFCURVE",
"154 134 CURVE",
"161 124 LINE",
"156 124 OFFCURVE",
"154 123 OFFCURVE",
"154 121 CURVE",
"162 118 OFFCURVE",
"169 112 OFFCURVE",
"175 103 CURVE SMOOTH",
"186 82 LINE",
"197 85 OFFCURVE",
"205 85 OFFCURVE",
"208 82 CURVE",
"222 78 OFFCURVE",
"245 86 OFFCURVE",
"278 107 CURVE",
"300 125 OFFCURVE",
"312 135 OFFCURVE",
"314 138 CURVE",
"325 149 OFFCURVE",
"332 162 OFFCURVE",
"333 176 CURVE",
"340 173 OFFCURVE",
"345 175 OFFCURVE",
"348 180 CURVE",
"347 187 OFFCURVE",
"350 198 OFFCURVE",
"357 215 CURVE SMOOTH",
"364 232 OFFCURVE",
"368 245 OFFCURVE",
"369 254 CURVE",
"366 303 OFFCURVE",
"380 343 OFFCURVE",
"413 374 CURVE SMOOTH",
"427 387 OFFCURVE",
"466 411 OFFCURVE",
"526 447 CURVE SMOOTH",
"550 461 OFFCURVE",
"575 483 OFFCURVE",
"590 483 CURVE",
"597 456 OFFCURVE",
"601 431 OFFCURVE",
"604 408 CURVE",
"567 387 OFFCURVE",
"530 363 OFFCURVE",
"481 359 CURVE",
"478 350 OFFCURVE",
"478 338 OFFCURVE",
"463 338 CURVE",
"464 331 OFFCURVE",
"465 325 OFFCURVE",
"465 318 CURVE SMOOTH",
"465 302 OFFCURVE",
"459 281 OFFCURVE",
"448 254 CURVE SMOOTH",
"435 225 OFFCURVE",
"427 203 OFFCURVE",
"425 187 CURVE",
"439 172 OFFCURVE",
"446 147 OFFCURVE",
"446 110 CURVE SMOOTH",
"446 92 OFFCURVE",
"444 65 OFFCURVE",
"439 29 CURVE",
"463 -10 OFFCURVE",
"494 -37 OFFCURVE",
"531 -52 CURVE SMOOTH",
"545 -58 OFFCURVE",
"553 -63 OFFCURVE",
"555 -66 CURVE",
"558 -65 OFFCURVE",
"561 -64 OFFCURVE",
"565 -64 CURVE SMOOTH",
"573 -64 OFFCURVE",
"598 -71 OFFCURVE",
"607 -70 CURVE"
);
},
{
closed = 1;
nodes = (
"194 131 OFFCURVE",
"184 136 OFFCURVE",
"176 137 CURVE",
"175 142 OFFCURVE",
"182 151 OFFCURVE",
"197 166 CURVE",
"195 173 OFFCURVE",
"191 178 OFFCURVE",
"186 180 CURVE",
"187 182 OFFCURVE",
"189 183 OFFCURVE",
"190 184 CURVE",
"193 184 OFFCURVE",
"199 172 OFFCURVE",
"203 173 CURVE",
"209 176 OFFCURVE",
"210 183 OFFCURVE",
"207 194 CURVE",
"216 194 OFFCURVE",
"222 197 OFFCURVE",
"225 202 CURVE SMOOTH",
"234 215 LINE",
"233 219 OFFCURVE",
"228 214 OFFCURVE",
"228 218 CURVE",
"236 221 OFFCURVE",
"248 232 OFFCURVE",
"264 249 CURVE SMOOTH",
"280 267 OFFCURVE",
"292 278 OFFCURVE",
"299 282 CURVE",
"302 257 OFFCURVE",
"293 225 OFFCURVE",
"270 186 CURVE SMOOTH",
"247 147 OFFCURVE",
"226 126 OFFCURVE",
"207 121 CURVE"
);
},
{
closed = 1;
nodes = (
"726 271 OFFCURVE",
"703 322 OFFCURVE",
"695 390 CURVE",
"725 403 OFFCURVE",
"752 412 OFFCURVE",
"776 416 CURVE",
"779 398 OFFCURVE",
"780 380 OFFCURVE",
"780 363 CURVE SMOOTH",
"780 344 OFFCURVE",
"774 301 OFFCURVE",
"763 236 CURVE"
);
},
{
closed = 1;
nodes = (
"730 596 OFFCURVE",
"747 593 OFFCURVE",
"748 598 CURVE",
"751 595 OFFCURVE",
"753 594 OFFCURVE",
"754 595 CURVE",
"755 595 OFFCURVE",
"756 597 OFFCURVE",
"755 601 CURVE",
"759 601 OFFCURVE",
"759 597 OFFCURVE",
"755 588 CURVE",
"749 591 OFFCURVE",
"741 591 OFFCURVE",
"731 588 CURVE"
);
},
{
closed = 1;
nodes = (
"779 637 OFFCURVE",
"805 633 OFFCURVE",
"830 660 CURVE",
"819 724 OFFCURVE",
"757 766 OFFCURVE",
"692 748 CURVE",
"701 721 OFFCURVE",
"726 676 OFFCURVE",
"756 654 CURVE SMOOTH"
);
},
{
closed = 1;
nodes = (
"940 795 OFFCURVE",
"854 812 OFFCURVE",
"802 802 CURVE",
"819 782 OFFCURVE",
"840 744 OFFCURVE",
"865 720 CURVE SMOOTH",
"888 699 OFFCURVE",
"914 690 OFFCURVE",
"946 717 CURVE"
);
}
);
vertWidth = 1000;
width = 1000;
}
);
note = cid00871;
unicode = 305E;
},
{
glyphname = "ta-hira";
lastChange = "2020-12-04 08:03:05 +0000";
layers = (
{
hints = (
{
horizontal = 1;
place = "{6, 68}";
type = Stem;
},
{
horizontal = 1;
place = "{119, 67}";
type = Stem;
},
{
place = "{600, 77}";
type = Stem;
}
);
layerId = "F065C3D4-A6F6-48F7-ABC0-534A710C84EA";
paths = (
{
closed = 1;
nodes = (
"637 -30 OFFCURVE",
"660 -32 OFFCURVE",
"663 -28 CURVE",
"661 -25 OFFCURVE",
"660 -22 OFFCURVE",
"660 -19 CURVE SMOOTH",
"660 -16 OFFCURVE",
"666 -10 OFFCURVE",
"666 -5 CURVE SMOOTH",
"665 5 OFFCURVE",
"659 17 OFFCURVE",
"647 30 CURVE SMOOTH",
"635 44 OFFCURVE",
"629 55 OFFCURVE",
"628 62 CURVE SMOOTH",
"628 68 OFFCURVE",
"631 75 OFFCURVE",
"636 83 CURVE SMOOTH",
"650 104 LINE",
"668 143 OFFCURVE",
"677 185 OFFCURVE",
"677 230 CURVE SMOOTH",
"677 247 OFFCURVE",
"676 263 OFFCURVE",
"673 278 CURVE SMOOTH",
"668 306 OFFCURVE",
"658 340 OFFCURVE",
"643 379 CURVE SMOOTH",
"635 400 OFFCURVE",
"620 435 OFFCURVE",
"599 482 CURVE SMOOTH",
"561 567 OFFCURVE",
"535 632 OFFCURVE",
"521 678 CURVE",
"516 682 OFFCURVE",
"508 697 OFFCURVE",
"495 723 CURVE SMOOTH",
"485 745 OFFCURVE",
"476 756 OFFCURVE",
"469 756 CURVE",
"460 736 OFFCURVE",
"455 711 OFFCURVE",
"455 682 CURVE SMOOTH",
"455 633 OFFCURVE",
"464 581 OFFCURVE",
"486 530 CURVE SMOOTH",
"508 479 OFFCURVE",
"533 430 OFFCURVE",
"557 380 CURVE SMOOTH",
"586 317 OFFCURVE",
"600 266 OFFCURVE",
"600 226 CURVE SMOOTH",
"600 185 OFFCURVE",
"587 150 OFFCURVE",
"560 120 CURVE",
"506 164 OFFCURVE",
"439 186 OFFCURVE",
"358 186 CURVE SMOOTH",
"313 186 OFFCURVE",
"273 178 OFFCURVE",
"237 162 CURVE",
"240 150 OFFCURVE",
"230 129 OFFCURVE",
"230 125 CURVE SMOOTH",
"230 117 OFFCURVE",
"241 105 OFFCURVE",
"262 88 CURVE SMOOTH",
"283 71 OFFCURVE",
"296 55 OFFCURVE",
"299 40 CURVE",
"335 17 OFFCURVE",
"383 6 OFFCURVE",
"444 6 CURVE SMOOTH",
"471 6 OFFCURVE",
"507 9 OFFCURVE",
"550 14 CURVE",
"559 11 OFFCURVE",
"572 0 OFFCURVE",
"590 -17 CURVE SMOOTH",
"605 -31 OFFCURVE",
"621 -39 OFFCURVE",
"637 -41 CURVE"
);
},
{
closed = 1;
nodes = (
"402 74 OFFCURVE",
"366 84 OFFCURVE",
"331 104 CURVE",
"346 114 OFFCURVE",
"365 119 OFFCURVE",
"388 119 CURVE SMOOTH",
"429 119 OFFCURVE",
"462 108 OFFCURVE",
"489 85 CURVE",
"476 78 OFFCURVE",
"459 74 OFFCURVE",
"439 74 CURVE SMOOTH"
);
}
);
vertWidth = 1000;
width = 1000;
}
);
note = cid00872;
unicode = 305F;
},
{
glyphname = "da-hira";
lastChange = "2020-12-04 08:03:05 +0000";
layers = (
{
hints = (
{
horizontal = 1;
place = "{6, 68}";
type = Stem;
},
{
horizontal = 1;
place = "{119, 67}";
type = Stem;
},
{
horizontal = 1;
place = "{490, 112}";
type = Stem;
},
{
place = "{578, 77}";
type = Stem;
}
);
layerId = "F065C3D4-A6F6-48F7-ABC0-534A710C84EA";
paths = (
{
closed = 1;
nodes = (
"615 -30 OFFCURVE",
"638 -32 OFFCURVE",
"641 -28 CURVE",
"639 -25 OFFCURVE",
"638 -22 OFFCURVE",
"638 -19 CURVE SMOOTH",
"638 -16 OFFCURVE",
"644 -10 OFFCURVE",
"644 -5 CURVE SMOOTH",
"643 5 OFFCURVE",
"637 17 OFFCURVE",
"625 30 CURVE SMOOTH",
"613 44 OFFCURVE",
"607 55 OFFCURVE",
"606 62 CURVE SMOOTH",
"606 68 OFFCURVE",
"609 75 OFFCURVE",
"614 83 CURVE SMOOTH",
"628 104 LINE",
"646 143 OFFCURVE",
"655 185 OFFCURVE",
"655 230 CURVE SMOOTH",
"655 247 OFFCURVE",
"654 263 OFFCURVE",
"651 278 CURVE SMOOTH",
"646 306 OFFCURVE",
"636 340 OFFCURVE",
"621 379 CURVE SMOOTH",
"613 400 OFFCURVE",
"598 435 OFFCURVE",
"577 482 CURVE SMOOTH",
"539 567 OFFCURVE",
"513 632 OFFCURVE",
"499 678 CURVE",
"494 682 OFFCURVE",
"486 697 OFFCURVE",
"473 723 CURVE SMOOTH",
"463 745 OFFCURVE",
"454 756 OFFCURVE",
"447 756 CURVE",
"438 736 OFFCURVE",
"433 711 OFFCURVE",
"433 682 CURVE SMOOTH",
"433 633 OFFCURVE",
"442 581 OFFCURVE",
"464 530 CURVE SMOOTH",
"486 479 OFFCURVE",
"511 430 OFFCURVE",
"535 380 CURVE SMOOTH",
"564 317 OFFCURVE",
"578 266 OFFCURVE",
"578 226 CURVE SMOOTH",
"578 185 OFFCURVE",
"565 150 OFFCURVE",
"538 120 CURVE",
"484 164 OFFCURVE",
"417 186 OFFCURVE",
"336 186 CURVE SMOOTH",
"291 186 OFFCURVE",
"251 178 OFFCURVE",
"215 162 CURVE",
"218 150 OFFCURVE",
"208 129 OFFCURVE",
"208 125 CURVE SMOOTH",
"208 117 OFFCURVE",
"219 105 OFFCURVE",
"240 88 CURVE SMOOTH",
"261 71 OFFCURVE",
"274 55 OFFCURVE",
"277 40 CURVE",
"313 17 OFFCURVE",
"361 6 OFFCURVE",
"422 6 CURVE SMOOTH",
"449 6 OFFCURVE",
"485 9 OFFCURVE",
"528 14 CURVE",
"537 11 OFFCURVE",
"550 0 OFFCURVE",
"568 -17 CURVE SMOOTH",
"583 -31 OFFCURVE",
"599 -39 OFFCURVE",
"615 -41 CURVE"
);
},
{
closed = 1;
nodes = (
"380 74 OFFCURVE",
"344 84 OFFCURVE",
"309 104 CURVE",
"324 114 OFFCURVE",
"343 119 OFFCURVE",
"366 119 CURVE SMOOTH",
"407 119 OFFCURVE",
"440 108 OFFCURVE",
"467 85 CURVE",
"454 78 OFFCURVE",
"437 74 OFFCURVE",
"417 74 CURVE SMOOTH"
);
},
{
closed = 1;
nodes = (
"701 487 OFFCURVE",
"727 483 OFFCURVE",
"752 510 CURVE",
"741 574 OFFCURVE",
"679 616 OFFCURVE",
"614 598 CURVE",
"623 571 OFFCURVE",
"648 526 OFFCURVE",
"678 504 CURVE SMOOTH"
);
},
{
closed = 1;
nodes = (
"862 645 OFFCURVE",
"776 662 OFFCURVE",
"724 652 CURVE",
"741 632 OFFCURVE",
"762 594 OFFCURVE",
"787 570 CURVE SMOOTH",
"810 549 OFFCURVE",
"836 540 OFFCURVE",
"868 567 CURVE"
);
}
);
vertWidth = 1000;
width = 1000;
}
);
note = cid00873;
unicode = 3060;
},
{
glyphname = "ti-hira";
lastChange = "2020-12-04 08:03:05 +0000";
layers = (
{
hints = (
{
horizontal = 1;
place = "{132, 14}";
type = Stem;
},
{
horizontal = 1;
place = "{227, 87}";
type = Stem;
},
{
place = "{493, 86}";
type = Stem;
},
{
place = "{787, 41}";
type = Stem;
}
);
layerId = "F065C3D4-A6F6-48F7-ABC0-534A710C84EA";
paths = (
{
closed = 1;
nodes = (
"538 -9 OFFCURVE",
"553 12 OFFCURVE",
"570 21 CURVE",
"575 51 OFFCURVE",
"577 85 OFFCURVE",
"578 123 CURVE SMOOTH",
"580 224 LINE",
"593 226 OFFCURVE",
"607 227 OFFCURVE",
"620 227 CURVE SMOOTH",
"673 227 OFFCURVE",
"711 215 OFFCURVE",
"734 192 CURVE",
"723 182 LINE",
"731 180 OFFCURVE",
"737 176 OFFCURVE",
"741 170 CURVE SMOOTH",
"743 167 OFFCURVE",
"746 159 OFFCURVE",
"751 146 CURVE",
"735 143 OFFCURVE",
"717 126 OFFCURVE",
"706 125 CURVE",
"709 122 OFFCURVE",
"712 120 OFFCURVE",
"717 120 CURVE SMOOTH",
"725 120 OFFCURVE",
"748 132 OFFCURVE",
"755 132 CURVE SMOOTH",
"758 132 OFFCURVE",
"760 131 OFFCURVE",
"762 129 CURVE",
"755 125 OFFCURVE",
"745 122 OFFCURVE",
"748 111 CURVE",
"763 108 OFFCURVE",
"774 128 OFFCURVE",
"781 128 CURVE SMOOTH",
"784 128 OFFCURVE",
"787 127 OFFCURVE",
"790 125 CURVE",
"785 118 OFFCURVE",
"786 115 OFFCURVE",
"793 115 CURVE",
"800 119 OFFCURVE",
"805 128 OFFCURVE",
"809 142 CURVE SMOOTH",
"814 157 OFFCURVE",
"820 166 OFFCURVE",
"828 171 CURVE",
"825 214 OFFCURVE",
"798 249 OFFCURVE",
"748 275 CURVE SMOOTH",
"701 300 OFFCURVE",
"643 313 OFFCURVE",
"573 314 CURVE",
"564 401 OFFCURVE",
"544 458 OFFCURVE",
"514 485 CURVE SMOOTH",
"501 496 OFFCURVE",
"486 504 OFFCURVE",
"486 517 CURVE",
"520 550 OFFCURVE",
"545 575 OFFCURVE",
"562 593 CURVE",
"599 604 OFFCURVE",
"634 635 OFFCURVE",
"667 688 CURVE",
"645 738 OFFCURVE",
"614 772 OFFCURVE",
"573 790 CURVE",
"562 757 OFFCURVE",
"539 720 OFFCURVE",
"504 677 CURVE SMOOTH",
"466 630 OFFCURVE",
"441 594 OFFCURVE",
"430 569 CURVE",
"420 566 OFFCURVE",
"410 557 OFFCURVE",
"401 542 CURVE SMOOTH",
"392 527 OFFCURVE",
"385 518 OFFCURVE",
"378 514 CURVE",
"377 483 OFFCURVE",
"384 464 OFFCURVE",
"399 458 CURVE",
"397 455 OFFCURVE",
"396 452 OFFCURVE",
"396 449 CURVE SMOOTH",
"396 437 OFFCURVE",
"408 426 OFFCURVE",
"420 427 CURVE",
"424 429 OFFCURVE",
"431 436 OFFCURVE",
"440 448 CURVE SMOOTH",
"448 458 OFFCURVE",
"457 463 OFFCURVE",
"466 464 CURVE",
"473 443 OFFCURVE",
"479 417 OFFCURVE",
"483 388 CURVE SMOOTH",
"485 377 OFFCURVE",
"488 349 OFFCURVE",
"493 304 CURVE",
"402 283 OFFCURVE",
"344 269 OFFCURVE",
"319 259 CURVE SMOOTH",
"256 235 OFFCURVE",
"214 200 OFFCURVE",
"193 157 CURVE",
"222 122 OFFCURVE",
"244 102 OFFCURVE",
"257 98 CURVE",
"256 101 OFFCURVE",
"257 103 OFFCURVE",
"259 104 CURVE",
"266 103 OFFCURVE",
"273 99 OFFCURVE",
"280 91 CURVE SMOOTH",
"291 78 OFFCURVE",
"298 71 OFFCURVE",
"301 69 CURVE SMOOTH",
"324 57 LINE SMOOTH",
"335 51 OFFCURVE",
"341 45 OFFCURVE",
"341 40 CURVE SMOOTH",
"341 39 OFFCURVE",
"340 37 OFFCURVE",
"339 35 CURVE",
"353 30 OFFCURVE",
"383 15 OFFCURVE",
"429 -11 CURVE SMOOTH",
"465 -31 OFFCURVE",
"497 -41 OFFCURVE",
"525 -42 CURVE"
);
},
{
closed = 1;
nodes = (
"425 83 OFFCURVE",
"369 101 OFFCURVE",
"304 136 CURVE",
"321 158 OFFCURVE",
"350 176 OFFCURVE",
"389 189 CURVE SMOOTH",
"402 194 OFFCURVE",
"436 203 OFFCURVE",
"493 216 CURVE",
"489 168 OFFCURVE",
"485 116 OFFCURVE",
"472 83 CURVE"
);
}
);
vertWidth = 1000;
width = 1000;
}
);
note = cid00874;
unicode = 3061;
},
{
glyphname = "di-hira";
lastChange = "2020-12-04 08:03:05 +0000";
layers = (
{
hints = (
{
horizontal = 1;
place = "{126, 14}";
type = Stem;
},
{
horizontal = 1;
place = "{221, 87}";
type = Stem;
},
{
horizontal = 1;
place = "{446, 112}";
type = Stem;
},
{
place = "{481, 86}";
type = Stem;
},
{
place = "{775, 41}";
type = Stem;
}
);
layerId = "F065C3D4-A6F6-48F7-ABC0-534A710C84EA";
paths = (
{
closed = 1;
nodes = (
"526 -15 OFFCURVE",
"541 6 OFFCURVE",
"558 15 CURVE",
"563 45 OFFCURVE",
"565 79 OFFCURVE",
"566 117 CURVE SMOOTH",
"568 218 LINE",
"581 220 OFFCURVE",
"595 221 OFFCURVE",
"608 221 CURVE SMOOTH",
"661 221 OFFCURVE",
"699 209 OFFCURVE",
"722 186 CURVE",
"711 176 LINE",
"719 174 OFFCURVE",
"725 170 OFFCURVE",
"729 164 CURVE SMOOTH",
"731 161 OFFCURVE",
"734 153 OFFCURVE",
"739 140 CURVE",
"723 137 OFFCURVE",
"705 120 OFFCURVE",
"694 119 CURVE",
"697 116 OFFCURVE",
"700 114 OFFCURVE",
"705 114 CURVE SMOOTH",
"713 114 OFFCURVE",
"736 126 OFFCURVE",
"743 126 CURVE SMOOTH",
"746 126 OFFCURVE",
"748 125 OFFCURVE",
"750 123 CURVE",
"743 119 OFFCURVE",
"733 116 OFFCURVE",
"736 105 CURVE",
"751 102 OFFCURVE",
"762 122 OFFCURVE",
"769 122 CURVE SMOOTH",
"772 122 OFFCURVE",
"775 121 OFFCURVE",
"778 119 CURVE",
"773 112 OFFCURVE",
"774 109 OFFCURVE",
"781 109 CURVE",
"788 113 OFFCURVE",
"793 122 OFFCURVE",
"797 136 CURVE SMOOTH",
"802 151 OFFCURVE",
"808 160 OFFCURVE",
"816 165 CURVE",
"813 208 OFFCURVE",
"786 243 OFFCURVE",
"736 269 CURVE SMOOTH",
"689 294 OFFCURVE",
"631 307 OFFCURVE",
"561 308 CURVE",
"552 395 OFFCURVE",
"532 452 OFFCURVE",
"502 479 CURVE SMOOTH",
"489 490 OFFCURVE",
"474 498 OFFCURVE",
"474 511 CURVE",
"508 544 OFFCURVE",
"533 569 OFFCURVE",
"550 587 CURVE",
"587 598 OFFCURVE",
"622 629 OFFCURVE",
"655 682 CURVE",
"633 732 OFFCURVE",
"602 766 OFFCURVE",
"561 784 CURVE",
"550 751 OFFCURVE",
"527 714 OFFCURVE",
"492 671 CURVE SMOOTH",
"454 624 OFFCURVE",
"429 588 OFFCURVE",
"418 563 CURVE",
"408 560 OFFCURVE",
"398 551 OFFCURVE",
"389 536 CURVE SMOOTH",
"380 521 OFFCURVE",
"373 512 OFFCURVE",
"366 508 CURVE",
"365 477 OFFCURVE",
"372 458 OFFCURVE",
"387 452 CURVE",
"385 449 OFFCURVE",
"384 446 OFFCURVE",
"384 443 CURVE SMOOTH",
"384 431 OFFCURVE",
"396 420 OFFCURVE",
"408 421 CURVE",
"412 423 OFFCURVE",
"419 430 OFFCURVE",
"428 442 CURVE SMOOTH",
"436 452 OFFCURVE",
"445 457 OFFCURVE",
"454 458 CURVE",
"461 437 OFFCURVE",
"467 411 OFFCURVE",
"471 382 CURVE SMOOTH",
"473 371 OFFCURVE",
"476 343 OFFCURVE",
"481 298 CURVE",
"390 277 OFFCURVE",
"332 263 OFFCURVE",
"307 253 CURVE SMOOTH",
"244 229 OFFCURVE",
"202 194 OFFCURVE",
"181 151 CURVE",
"210 116 OFFCURVE",
"232 96 OFFCURVE",
"245 92 CURVE",
"244 95 OFFCURVE",
"245 97 OFFCURVE",
"247 98 CURVE",
"254 97 OFFCURVE",
"261 93 OFFCURVE",
"268 85 CURVE SMOOTH",
"279 72 OFFCURVE",
"286 65 OFFCURVE",
"289 63 CURVE SMOOTH",
"312 51 LINE SMOOTH",
"323 45 OFFCURVE",
"329 39 OFFCURVE",
"329 34 CURVE SMOOTH",
"329 33 OFFCURVE",
"328 31 OFFCURVE",
"327 29 CURVE",
"341 24 OFFCURVE",
"371 9 OFFCURVE",
"417 -17 CURVE SMOOTH",
"453 -37 OFFCURVE",
"485 -47 OFFCURVE",
"513 -48 CURVE"
);
},
{
closed = 1;
nodes = (
"413 77 OFFCURVE",
"357 95 OFFCURVE",
"292 130 CURVE",
"309 152 OFFCURVE",
"338 170 OFFCURVE",
"377 183 CURVE SMOOTH",
"390 188 OFFCURVE",
"424 197 OFFCURVE",
"481 210 CURVE",
"477 162 OFFCURVE",
"473 110 OFFCURVE",
"460 77 CURVE"
);
},
{
closed = 1;
nodes = (
"704 443 OFFCURVE",
"730 439 OFFCURVE",
"755 466 CURVE",
"744 530 OFFCURVE",
"682 572 OFFCURVE",
"617 554 CURVE",
"626 527 OFFCURVE",
"651 482 OFFCURVE",
"681 460 CURVE SMOOTH"
);
},
{
closed = 1;
nodes = (
"865 601 OFFCURVE",
"779 618 OFFCURVE",
"727 608 CURVE",
"744 588 OFFCURVE",
"765 550 OFFCURVE",
"790 526 CURVE SMOOTH",
"813 505 OFFCURVE",
"839 496 OFFCURVE",
"871 523 CURVE"
);
}
);
vertWidth = 1000;
width = 1000;
}
);
note = cid00875;
unicode = 3062;
},
{
glyphname = "tu-hira";
lastChange = "2020-12-04 08:03:05 +0000";
layers = (
{
hints = (
{
horizontal = 1;
place = "{316, 83}";
type = Stem;
},
{
horizontal = 1;
place = "{500, 86}";
type = Stem;
},
{
place = "{202, 86}";
type = Stem;
},
{
place = "{614, 72}";
type = Stem;
},
{
place = "{569, 99}";
type = Stem;
},
{
place = "{216, 63}";
type = Stem;
}
);
layerId = "F065C3D4-A6F6-48F7-ABC0-534A710C84EA";
paths = (
{
closed = 1;
nodes = (
"727 -34 OFFCURVE",
"738 -28 OFFCURVE",
"738 -20 CURVE SMOOTH",
"738 -17 OFFCURVE",
"737 -15 OFFCURVE",
"736 -12 CURVE",
"702 24 OFFCURVE",
"685 78 OFFCURVE",
"686 149 CURVE SMOOTH",
"687 224 OFFCURVE",
"707 277 OFFCURVE",
"746 309 CURVE",
"799 332 LINE SMOOTH",
"820 341 OFFCURVE",
"834 353 OFFCURVE",
"843 365 CURVE",
"837 378 OFFCURVE",
"826 389 OFFCURVE",
"809 400 CURVE SMOOTH",
"767 427 LINE",
"764 422 OFFCURVE",
"757 421 OFFCURVE",
"746 423 CURVE",
"727 414 OFFCURVE",
"713 409 OFFCURVE",
"704 409 CURVE SMOOTH",
"697 409 OFFCURVE",
"691 410 OFFCURVE",
"684 413 CURVE",
"683 404 OFFCURVE",
"677 399 OFFCURVE",
"665 399 CURVE SMOOTH",
"635 399 LINE",
"638 392 OFFCURVE",
"636 388 OFFCURVE",
"628 386 CURVE",
"624 389 OFFCURVE",
"620 391 OFFCURVE",
"615 391 CURVE SMOOTH",
"608 391 OFFCURVE",
"592 380 OFFCURVE",
"584 380 CURVE SMOOTH",
"581 380 OFFCURVE",
"579 381 OFFCURVE",
"576 382 CURVE",
"587 402 OFFCURVE",
"599 422 OFFCURVE",
"610 443 CURVE SMOOTH",
"623 466 OFFCURVE",
"638 483 OFFCURVE",
"653 493 CURVE",
"664 498 OFFCURVE",
"693 501 OFFCURVE",
"741 500 CURVE SMOOTH",
"784 499 OFFCURVE",
"813 506 OFFCURVE",
"826 521 CURVE",
"823 534 OFFCURVE",
"814 546 OFFCURVE",
"798 555 CURVE SMOOTH",
"763 576 OFFCURVE",
"721 586 OFFCURVE",
"674 586 CURVE",
"670 593 OFFCURVE",
"666 598 OFFCURVE",
"663 600 CURVE",
"666 613 OFFCURVE",
"668 626 OFFCURVE",
"668 639 CURVE SMOOTH",
"668 698 OFFCURVE",
"636 739 OFFCURVE",
"580 746 CURVE",
"572 729 OFFCURVE",
"568 705 OFFCURVE",
"568 674 CURVE SMOOTH",
"568 650 LINE SMOOTH",
"569 639 OFFCURVE",
"569 630 OFFCURVE",
"569 625 CURVE SMOOTH",
"569 602 OFFCURVE",
"567 584 OFFCURVE",
"562 569 CURVE",
"530 565 OFFCURVE",
"498 561 OFFCURVE",
"467 558 CURVE SMOOTH",
"424 553 OFFCURVE",
"397 540 OFFCURVE",
"386 521 CURVE",
"433 499 OFFCURVE",
"464 487 OFFCURVE",
"479 486 CURVE SMOOTH",
"486 485 OFFCURVE",
"494 485 OFFCURVE",
"505 486 CURVE SMOOTH",
"518 487 OFFCURVE",
"525 488 OFFCURVE",
"528 488 CURVE SMOOTH",
"539 488 OFFCURVE",
"547 485 OFFCURVE",
"552 479 CURVE",
"540 452 OFFCURVE",
"529 424 OFFCURVE",
"515 397 CURVE SMOOTH",
"499 366 OFFCURVE",
"474 351 OFFCURVE",
"445 354 CURVE",
"443 345 OFFCURVE",
"436 338 OFFCURVE",
"423 334 CURVE SMOOTH",
"410 330 OFFCURVE",
"404 322 OFFCURVE",
"403 309 CURVE SMOOTH",
"401 284 OFFCURVE",
"414 268 OFFCURVE",
"442 261 CURVE SMOOTH",
"462 256 OFFCURVE",
"486 256 OFFCURVE",
"514 261 CURVE SMOOTH",
"529 264 OFFCURVE",
"538 267 OFFCURVE",
"541 268 CURVE SMOOTH",
"548 271 OFFCURVE",
"564 280 OFFCURVE",
"591 296 CURVE SMOOTH",
"612 309 OFFCURVE",
"628 315 OFFCURVE",
"639 316 CURVE",
"640 304 OFFCURVE",
"638 288 OFFCURVE",
"632 269 CURVE SMOOTH",
"617 222 LINE SMOOTH",
"609 197 OFFCURVE",
"610 182 OFFCURVE",
"618 175 CURVE",
"615 160 OFFCURVE",
"614 145 OFFCURVE",
"614 130 CURVE SMOOTH",
"614 92 OFFCURVE",
"622 56 OFFCURVE",
"638 22 CURVE SMOOTH",
"658 -21 OFFCURVE",
"685 -42 OFFCURVE",
"719 -41 CURVE"
);
},
{
closed = 1;
nodes = (
"290 26 OFFCURVE",
"296 45 OFFCURVE",
"296 70 CURVE SMOOTH",
"296 133 LINE",
"287 132 OFFCURVE",
"284 137 OFFCURVE",
"285 146 CURVE SMOOTH",
"288 161 OFFCURVE",
"289 191 OFFCURVE",
"288 234 CURVE SMOOTH",
"287 281 OFFCURVE",
"284 310 OFFCURVE",
"279 323 CURVE",
"283 338 OFFCURVE",
"288 376 OFFCURVE",
"294 438 CURVE SMOOTH",
"299 488 OFFCURVE",
"308 526 OFFCURVE",
"320 551 CURVE",
"307 570 OFFCURVE",
"295 589 OFFCURVE",
"283 608 CURVE SMOOTH",
"268 631 OFFCURVE",
"252 645 OFFCURVE",
"237 649 CURVE",
"236 645 OFFCURVE",
"234 644 OFFCURVE",
"230 645 CURVE SMOOTH",
"226 647 OFFCURVE",
"224 647 OFFCURVE",
"223 645 CURVE",
"216 570 OFFCURVE",
"212 517 OFFCURVE",
"212 486 CURVE SMOOTH",
"212 451 OFFCURVE",
"215 415 OFFCURVE",
"220 378 CURVE",
"213 378 OFFCURVE",
"208 375 OFFCURVE",
"205 368 CURVE",
"212 363 OFFCURVE",
"215 360 OFFCURVE",
"216 357 CURVE",
"217 324 OFFCURVE",
"216 294 OFFCURVE",
"213 268 CURVE",
"209 257 OFFCURVE",
"206 249 OFFCURVE",
"205 244 CURVE SMOOTH",
"204 237 OFFCURVE",
"203 214 OFFCURVE",
"202 175 CURVE SMOOTH",
"202 148 OFFCURVE",
"196 125 OFFCURVE",
"185 108 CURVE",
"184 90 OFFCURVE",
"190 72 OFFCURVE",
"207 55 CURVE SMOOTH",
"221 41 OFFCURVE",
"235 28 OFFCURVE",
"250 15 CURVE",
"266 16 OFFCURVE",
"276 15 OFFCURVE",
"279 12 CURVE"
);
}
);
vertWidth = 1000;
width = 1000;
}
);
note = cid00877;
unicode = 3064;
},
{
glyphname = "du-hira";
lastChange = "2020-12-04 08:03:05 +0000";
layers = (
{
hints = (
{
horizontal = 1;
place = "{304, 83}";
type = Stem;
},
{
horizontal = 1;
place = "{590, 112}";
type = Stem;
},
{
place = "{192, 86}";
type = Stem;
},
{
place = "{604, 72}";
type = Stem;
},
{
horizontal = 1;
place = "{488, 86}";
type = Stem;
},
{
place = "{559, 99}";
type = Stem;
},
{
place = "{206, 63}";
type = Stem;
}
);
layerId = "F065C3D4-A6F6-48F7-ABC0-534A710C84EA";
paths = (
{
closed = 1;
nodes = (
"717 -46 OFFCURVE",
"728 -40 OFFCURVE",
"728 -32 CURVE SMOOTH",
"728 -29 OFFCURVE",
"727 -27 OFFCURVE",
"726 -24 CURVE",
"692 12 OFFCURVE",
"675 66 OFFCURVE",
"676 137 CURVE SMOOTH",
"677 212 OFFCURVE",
"697 265 OFFCURVE",
"736 297 CURVE",
"789 320 LINE SMOOTH",
"810 329 OFFCURVE",
"824 341 OFFCURVE",
"833 353 CURVE",
"827 366 OFFCURVE",
"816 377 OFFCURVE",
"799 388 CURVE SMOOTH",
"757 415 LINE",
"754 410 OFFCURVE",
"747 409 OFFCURVE",
"736 411 CURVE",
"717 402 OFFCURVE",
"703 397 OFFCURVE",
"694 397 CURVE SMOOTH",
"687 397 OFFCURVE",
"681 398 OFFCURVE",
"674 401 CURVE",
"673 392 OFFCURVE",
"667 387 OFFCURVE",
"655 387 CURVE SMOOTH",
"625 387 LINE",
"628 380 OFFCURVE",
"626 376 OFFCURVE",
"618 374 CURVE",
"614 377 OFFCURVE",
"610 379 OFFCURVE",
"605 379 CURVE SMOOTH",
"598 379 OFFCURVE",
"582 368 OFFCURVE",
"574 368 CURVE SMOOTH",
"571 368 OFFCURVE",
"569 369 OFFCURVE",
"566 370 CURVE",
"577 390 OFFCURVE",
"589 410 OFFCURVE",
"600 431 CURVE SMOOTH",
"613 454 OFFCURVE",
"628 471 OFFCURVE",
"643 481 CURVE",
"654 486 OFFCURVE",
"683 489 OFFCURVE",
"731 488 CURVE SMOOTH",
"774 487 OFFCURVE",
"803 494 OFFCURVE",
"816 509 CURVE",
"813 522 OFFCURVE",
"804 534 OFFCURVE",
"788 543 CURVE SMOOTH",
"753 564 OFFCURVE",
"711 574 OFFCURVE",
"664 574 CURVE",
"660 581 OFFCURVE",
"656 586 OFFCURVE",
"653 588 CURVE",
"656 601 OFFCURVE",
"658 614 OFFCURVE",
"658 627 CURVE SMOOTH",
"658 686 OFFCURVE",
"626 727 OFFCURVE",
"570 734 CURVE",
"562 717 OFFCURVE",
"558 693 OFFCURVE",
"558 662 CURVE SMOOTH",
"558 638 LINE SMOOTH",
"559 627 OFFCURVE",
"559 618 OFFCURVE",
"559 613 CURVE SMOOTH",
"559 590 OFFCURVE",
"557 572 OFFCURVE",
"552 557 CURVE",
"520 553 OFFCURVE",
"488 549 OFFCURVE",
"457 546 CURVE SMOOTH",
"414 541 OFFCURVE",
"387 528 OFFCURVE",
"376 509 CURVE",
"423 487 OFFCURVE",
"454 475 OFFCURVE",
"469 474 CURVE SMOOTH",
"476 473 OFFCURVE",
"484 473 OFFCURVE",
"495 474 CURVE SMOOTH",
"508 475 OFFCURVE",
"515 476 OFFCURVE",
"518 476 CURVE SMOOTH",
"529 476 OFFCURVE",
"537 473 OFFCURVE",
"542 467 CURVE",
"530 440 OFFCURVE",
"519 412 OFFCURVE",
"505 385 CURVE SMOOTH",
"489 354 OFFCURVE",
"464 339 OFFCURVE",
"435 342 CURVE",
"433 333 OFFCURVE",
"426 326 OFFCURVE",
"413 322 CURVE SMOOTH",
"400 318 OFFCURVE",
"394 310 OFFCURVE",
"393 297 CURVE SMOOTH",
"391 272 OFFCURVE",
"404 256 OFFCURVE",
"432 249 CURVE SMOOTH",
"452 244 OFFCURVE",
"476 244 OFFCURVE",
"504 249 CURVE SMOOTH",
"519 252 OFFCURVE",
"528 255 OFFCURVE",
"531 256 CURVE SMOOTH",
"538 259 OFFCURVE",
"554 268 OFFCURVE",
"581 284 CURVE SMOOTH",
"602 297 OFFCURVE",
"618 303 OFFCURVE",
"629 304 CURVE",
"630 292 OFFCURVE",
"628 276 OFFCURVE",
"622 257 CURVE SMOOTH",
"607 210 LINE SMOOTH",
"599 185 OFFCURVE",
"600 170 OFFCURVE",
"608 163 CURVE",
"605 148 OFFCURVE",
"604 133 OFFCURVE",
"604 118 CURVE SMOOTH",
"604 80 OFFCURVE",
"612 44 OFFCURVE",
"628 10 CURVE SMOOTH",
"648 -33 OFFCURVE",
"675 -54 OFFCURVE",
"709 -53 CURVE"
);
},
{
closed = 1;
nodes = (
"280 14 OFFCURVE",
"286 33 OFFCURVE",
"286 58 CURVE SMOOTH",
"286 121 LINE",
"277 120 OFFCURVE",
"274 125 OFFCURVE",
"275 134 CURVE SMOOTH",
"278 149 OFFCURVE",
"279 179 OFFCURVE",
"278 222 CURVE SMOOTH",
"277 269 OFFCURVE",
"274 298 OFFCURVE",
"269 311 CURVE",
"273 326 OFFCURVE",
"278 364 OFFCURVE",
"284 426 CURVE SMOOTH",
"289 476 OFFCURVE",
"298 514 OFFCURVE",
"310 539 CURVE",
"297 558 OFFCURVE",
"285 577 OFFCURVE",
"273 596 CURVE SMOOTH",
"258 619 OFFCURVE",
"242 633 OFFCURVE",
"227 637 CURVE",
"226 633 OFFCURVE",
"224 632 OFFCURVE",
"220 633 CURVE SMOOTH",
"216 635 OFFCURVE",
"214 635 OFFCURVE",
"213 633 CURVE",
"206 558 OFFCURVE",
"202 505 OFFCURVE",
"202 474 CURVE SMOOTH",
"202 439 OFFCURVE",
"205 403 OFFCURVE",
"210 366 CURVE",
"203 366 OFFCURVE",
"198 363 OFFCURVE",
"195 356 CURVE",
"202 351 OFFCURVE",
"205 348 OFFCURVE",
"206 345 CURVE",
"207 312 OFFCURVE",
"206 282 OFFCURVE",
"203 256 CURVE",
"199 245 OFFCURVE",
"196 237 OFFCURVE",
"195 232 CURVE SMOOTH",
"194 225 OFFCURVE",
"193 202 OFFCURVE",
"192 163 CURVE SMOOTH",
"192 136 OFFCURVE",
"186 113 OFFCURVE",
"175 96 CURVE",
"174 78 OFFCURVE",
"180 60 OFFCURVE",
"197 43 CURVE SMOOTH",
"211 29 OFFCURVE",
"225 16 OFFCURVE",
"240 3 CURVE",
"256 4 OFFCURVE",
"266 3 OFFCURVE",
"269 0 CURVE"
);
},
{
closed = 1;
nodes = (
"792 587 OFFCURVE",
"818 583 OFFCURVE",
"843 610 CURVE",
"832 674 OFFCURVE",
"770 716 OFFCURVE",
"705 698 CURVE",
"714 671 OFFCURVE",
"739 626 OFFCURVE",
"769 604 CURVE SMOOTH"
);
},
{
closed = 1;
nodes = (
"953 745 OFFCURVE",
"867 762 OFFCURVE",
"815 752 CURVE",
"832 732 OFFCURVE",
"853 694 OFFCURVE",
"878 670 CURVE SMOOTH",
"901 649 OFFCURVE",
"927 640 OFFCURVE",
"959 667 CURVE"
);
}
);
vertWidth = 1000;
width = 1000;
}
);
note = cid00878;
unicode = 3065;
},
{
glyphname = "te-hira";
lastChange = "2020-12-04 08:03:05 +0000";
layers = (
{
hints = (
{
horizontal = 1;
place = "{101, 59}";
type = Stem;
},
{
horizontal = 1;
place = "{550, 72}";
type = Stem;
},
{
horizontal = 1;
place = "{672, 16}";
type = Stem;
},
{
place = "{344, 10}";
type = Stem;
},
{
place = "{562, 90}";
type = Stem;
},
{
horizontal = 1;
place = "{229, 100}";
type = Stem;
},
{
place = "{648, 71}";
type = Stem;
}
);
layerId = "F065C3D4-A6F6-48F7-ABC0-534A710C84EA";
paths = (
{
closed = 1;
nodes = (
"384 -75 OFFCURVE",
"414 -68 OFFCURVE",
"444 -62 CURVE SMOOTH",
"480 -54 OFFCURVE",
"506 -42 OFFCURVE",
"523 -23 CURVE",
"528 -27 OFFCURVE",
"532 -27 OFFCURVE",
"533 -23 CURVE SMOOTH",
"534 -14 OFFCURVE",
"544 -11 OFFCURVE",
"562 -12 CURVE",
"564 -11 OFFCURVE",
"565 -9 OFFCURVE",
"566 -8 CURVE",
"566 -7 OFFCURVE",
"561 -2 OFFCURVE",
"561 -1 CURVE SMOOTH",
"561 0 OFFCURVE",
"561 1 OFFCURVE",
"562 2 CURVE",
"566 -2 OFFCURVE",
"573 -4 OFFCURVE",
"582 -3 CURVE",
"615 27 OFFCURVE",
"633 65 OFFCURVE",
"634 112 CURVE",
"669 139 OFFCURVE",
"695 158 OFFCURVE",
"713 171 CURVE",
"717 184 OFFCURVE",
"719 199 OFFCURVE",
"719 214 CURVE SMOOTH",
"719 271 OFFCURVE",
"689 329 OFFCURVE",
"648 357 CURVE",
"651 367 OFFCURVE",
"652 376 OFFCURVE",
"652 385 CURVE SMOOTH",
"652 411 OFFCURVE",
"640 432 OFFCURVE",
"615 449 CURVE SMOOTH",
"604 456 OFFCURVE",
"581 467 OFFCURVE",
"544 482 CURVE",
"557 488 OFFCURVE",
"565 497 OFFCURVE",
"568 509 CURVE",
"626 533 LINE SMOOTH",
"650 543 OFFCURVE",
"670 549 OFFCURVE",
"686 550 CURVE",
"673 544 OFFCURVE",
"667 540 OFFCURVE",
"667 537 CURVE",
"667 537 OFFCURVE",
"667 537 OFFCURVE",
"668 536 CURVE",
"707 559 OFFCURVE",
"743 587 OFFCURVE",
"790 584 CURVE",
"801 601 OFFCURVE",
"807 615 OFFCURVE",
"807 624 CURVE SMOOTH",
"807 631 OFFCURVE",
"804 637 OFFCURVE",
"799 640 CURVE",
"752 661 LINE SMOOTH",
"733 669 OFFCURVE",
"716 674 OFFCURVE",
"699 675 CURVE",
"698 666 OFFCURVE",
"693 659 OFFCURVE",
"682 654 CURVE SMOOTH",
"669 648 OFFCURVE",
"661 643 OFFCURVE",
"658 640 CURVE",
"654 651 LINE",
"643 645 OFFCURVE",
"621 639 OFFCURVE",
"586 634 CURVE SMOOTH",
"551 629 OFFCURVE",
"527 623 OFFCURVE",
"514 616 CURVE",
"511 621 OFFCURVE",
"504 623 OFFCURVE",
"493 622 CURVE SMOOTH",
"355 603 OFFCURVE",
"246 587 OFFCURVE",
"165 574 CURVE",
"195 527 OFFCURVE",
"245 504 OFFCURVE",
"314 503 CURVE SMOOTH",
"362 502 OFFCURVE",
"404 513 OFFCURVE",
"441 536 CURVE",
"474 535 OFFCURVE",
"495 542 OFFCURVE",
"506 557 CURVE",
"509 553 OFFCURVE",
"512 551 OFFCURVE",
"515 552 CURVE SMOOTH",
"522 553 OFFCURVE",
"526 554 OFFCURVE",
"527 554 CURVE",
"525 548 LINE SMOOTH",
"524 546 OFFCURVE",
"524 544 OFFCURVE",
"527 543 CURVE",
"532 551 OFFCURVE",
"541 553 OFFCURVE",
"554 550 CURVE",
"533 535 OFFCURVE",
"512 519 OFFCURVE",
"491 503 CURVE SMOOTH",
"468 484 OFFCURVE",
"456 461 OFFCURVE",
"456 436 CURVE SMOOTH",
"456 427 OFFCURVE",
"458 416 OFFCURVE",
"461 405 CURVE",
"470 400 OFFCURVE",
"486 397 OFFCURVE",
"509 396 CURVE SMOOTH",
"536 395 OFFCURVE",
"555 393 OFFCURVE",
"565 391 CURVE",
"563 384 OFFCURVE",
"562 377 OFFCURVE",
"562 371 CURVE SMOOTH",
"562 350 OFFCURVE",
"577 326 OFFCURVE",
"606 303 CURVE SMOOTH",
"636 279 OFFCURVE",
"650 261 OFFCURVE",
"648 246 CURVE SMOOTH",
"647 235 OFFCURVE",
"635 224 OFFCURVE",
"613 212 CURVE",
"545 288 LINE",
"516 315 OFFCURVE",
"486 329 OFFCURVE",
"456 329 CURVE SMOOTH",
"448 329 OFFCURVE",
"440 328 OFFCURVE",
"431 326 CURVE",
"430 321 OFFCURVE",
"420 314 OFFCURVE",
"400 304 CURVE SMOOTH",
"380 295 OFFCURVE",
"372 283 OFFCURVE",
"375 270 CURVE",
"378 269 OFFCURVE",
"382 273 OFFCURVE",
"388 283 CURVE SMOOTH",
"394 293 OFFCURVE",
"399 297 OFFCURVE",
"402 295 CURVE",
"402 287 OFFCURVE",
"390 277 OFFCURVE",
"393 270 CURVE",
"386 266 OFFCURVE",
"378 264 OFFCURVE",
"369 264 CURVE",
"370 261 OFFCURVE",
"365 251 OFFCURVE",
"355 236 CURVE SMOOTH",
"346 221 OFFCURVE",
"342 208 OFFCURVE",
"344 198 CURVE",
"348 207 OFFCURVE",
"351 211 OFFCURVE",
"354 212 CURVE",
"355 210 OFFCURVE",
"356 208 OFFCURVE",
"356 206 CURVE SMOOTH",
"356 203 OFFCURVE",
"350 196 OFFCURVE",
"337 187 CURVE SMOOTH",
"336 186 OFFCURVE",
"336 184 OFFCURVE",
"336 182 CURVE SMOOTH",
"336 170 OFFCURVE",
"352 151 OFFCURVE",
"369 147 CURVE",
"389 116 OFFCURVE",
"417 101 OFFCURVE",
"453 101 CURVE SMOOTH",
"465 101 OFFCURVE",
"476 104 OFFCURVE",
"485 109 CURVE",
"489 100 OFFCURVE",
"510 98 OFFCURVE",
"547 105 CURVE",
"551 104 OFFCURVE",
"552 100 OFFCURVE",
"551 94 CURVE",
"528 50 OFFCURVE",
"476 1 OFFCURVE",
"394 -54 CURVE SMOOTH",
"354 -81 LINE"
);
},
{
closed = 1;
nodes = (
"458 160 OFFCURVE",
"443 165 OFFCURVE",
"434 171 CURVE",
"431 192 OFFCURVE",
"440 209 OFFCURVE",
"447 225 CURVE",
"456 228 OFFCURVE",
"465 229 OFFCURVE",
"474 229 CURVE SMOOTH",
"503 229 OFFCURVE",
"529 214 OFFCURVE",
"554 184 CURVE",
"547 173 OFFCURVE",
"535 165 OFFCURVE",
"520 160 CURVE",
"478 160 LINE SMOOTH"
);
},
{
closed = 1;
nodes = (
"436 663 OFFCURVE",
"454 672 OFFCURVE",
"477 672 CURVE SMOOTH",
"485 672 OFFCURVE",
"498 670 OFFCURVE",
"515 667 CURVE SMOOTH",
"532 664 OFFCURVE",
"545 663 OFFCURVE",
"554 663 CURVE SMOOTH",
"573 663 OFFCURVE",
"590 668 OFFCURVE",
"603 678 CURVE",
"607 722 OFFCURVE",
"579 753 OFFCURVE",
"520 771 CURVE",
"510 765 OFFCURVE",
"489 761 OFFCURVE",
"456 758 CURVE SMOOTH",
"424 756 OFFCURVE",
"403 751 OFFCURVE",
"393 743 CURVE",
"420 717 OFFCURVE",
"442 699 OFFCURVE",
"458 688 CURVE",
"431 669 OFFCURVE",
"419 655 OFFCURVE",
"423 646 CURVE"
);
}
);
vertWidth = 1000;
width = 1000;
}
);
note = cid00879;
unicode = 3066;
},
{
glyphname = "de-hira";
lastChange = "2020-12-04 08:03:05 +0000";
layers = (
{
hints = (
{
horizontal = 1;
place = "{93, 59}";
type = Stem;
},
{
horizontal = 1;
place = "{221, 100}";
type = Stem;
},
{
horizontal = 1;
place = "{390, 112}";
type = Stem;
},
{
horizontal = 1;
place = "{542, 72}";
type = Stem;
},
{
horizontal = 1;
place = "{664, 16}";
type = Stem;
},
{
place = "{330, 10}";
type = Stem;
},
{
place = "{548, 90}";
type = Stem;
},
{
place = "{634, 71}";
type = Stem;
}
);
layerId = "F065C3D4-A6F6-48F7-ABC0-534A710C84EA";
paths = (
{
closed = 1;
nodes = (
"370 -83 OFFCURVE",
"400 -76 OFFCURVE",
"430 -70 CURVE SMOOTH",
"466 -62 OFFCURVE",
"492 -50 OFFCURVE",
"509 -31 CURVE",
"514 -35 OFFCURVE",
"518 -35 OFFCURVE",
"519 -31 CURVE SMOOTH",
"520 -22 OFFCURVE",
"530 -19 OFFCURVE",
"548 -20 CURVE",
"550 -19 OFFCURVE",
"551 -17 OFFCURVE",
"552 -16 CURVE",
"552 -15 OFFCURVE",
"547 -10 OFFCURVE",
"547 -9 CURVE SMOOTH",
"547 -8 OFFCURVE",
"547 -7 OFFCURVE",
"548 -6 CURVE",
"552 -10 OFFCURVE",
"559 -12 OFFCURVE",
"568 -11 CURVE",
"601 19 OFFCURVE",
"619 57 OFFCURVE",
"620 104 CURVE",
"655 131 OFFCURVE",
"681 150 OFFCURVE",
"699 163 CURVE",
"703 176 OFFCURVE",
"705 191 OFFCURVE",
"705 206 CURVE SMOOTH",
"705 263 OFFCURVE",
"675 321 OFFCURVE",
"634 349 CURVE",
"637 359 OFFCURVE",
"638 368 OFFCURVE",
"638 377 CURVE SMOOTH",
"638 403 OFFCURVE",
"626 424 OFFCURVE",
"601 441 CURVE SMOOTH",
"590 448 OFFCURVE",
"567 459 OFFCURVE",
"530 474 CURVE",
"543 480 OFFCURVE",
"551 489 OFFCURVE",
"554 501 CURVE",
"612 525 LINE SMOOTH",
"636 535 OFFCURVE",
"656 541 OFFCURVE",
"672 542 CURVE",
"659 536 OFFCURVE",
"653 532 OFFCURVE",
"653 529 CURVE",
"654 528 LINE",
"693 551 OFFCURVE",
"729 579 OFFCURVE",
"776 576 CURVE",
"787 593 OFFCURVE",
"793 607 OFFCURVE",
"793 616 CURVE SMOOTH",
"793 623 OFFCURVE",
"790 629 OFFCURVE",
"785 632 CURVE",
"738 653 LINE SMOOTH",
"719 661 OFFCURVE",
"702 666 OFFCURVE",
"685 667 CURVE",
"684 658 OFFCURVE",
"679 651 OFFCURVE",
"668 646 CURVE SMOOTH",
"655 640 OFFCURVE",
"647 635 OFFCURVE",
"644 632 CURVE",
"640 643 LINE",
"629 637 OFFCURVE",
"607 631 OFFCURVE",
"572 626 CURVE SMOOTH",
"537 621 OFFCURVE",
"513 615 OFFCURVE",
"500 608 CURVE",
"497 613 OFFCURVE",
"490 615 OFFCURVE",
"479 614 CURVE SMOOTH",
"341 595 OFFCURVE",
"232 579 OFFCURVE",
"151 566 CURVE",
"181 519 OFFCURVE",
"231 496 OFFCURVE",
"300 495 CURVE SMOOTH",
"348 494 OFFCURVE",
"390 505 OFFCURVE",
"427 528 CURVE",
"460 527 OFFCURVE",
"481 534 OFFCURVE",
"492 549 CURVE",
"495 545 OFFCURVE",
"498 543 OFFCURVE",
"501 544 CURVE SMOOTH",
"508 545 OFFCURVE",
"512 546 OFFCURVE",
"513 546 CURVE",
"511 540 LINE SMOOTH",
"510 538 OFFCURVE",
"510 536 OFFCURVE",
"513 535 CURVE",
"518 543 OFFCURVE",
"527 545 OFFCURVE",
"540 542 CURVE",
"519 527 OFFCURVE",
"498 511 OFFCURVE",
"477 495 CURVE SMOOTH",
"454 476 OFFCURVE",
"442 453 OFFCURVE",
"442 428 CURVE SMOOTH",
"442 419 OFFCURVE",
"444 408 OFFCURVE",
"447 397 CURVE",
"456 392 OFFCURVE",
"472 389 OFFCURVE",
"495 388 CURVE SMOOTH",
"522 387 OFFCURVE",
"541 385 OFFCURVE",
"551 383 CURVE",
"549 376 OFFCURVE",
"548 369 OFFCURVE",
"548 363 CURVE SMOOTH",
"548 342 OFFCURVE",
"563 318 OFFCURVE",
"592 295 CURVE SMOOTH",
"622 271 OFFCURVE",
"636 253 OFFCURVE",
"634 238 CURVE SMOOTH",
"633 227 OFFCURVE",
"621 216 OFFCURVE",
"599 204 CURVE",
"531 280 LINE",
"502 307 OFFCURVE",
"472 321 OFFCURVE",
"442 321 CURVE SMOOTH",
"434 321 OFFCURVE",
"426 320 OFFCURVE",
"417 318 CURVE",
"416 313 OFFCURVE",
"406 306 OFFCURVE",
"386 296 CURVE SMOOTH",
"366 287 OFFCURVE",
"358 275 OFFCURVE",
"361 262 CURVE",
"364 261 OFFCURVE",
"368 265 OFFCURVE",
"374 275 CURVE SMOOTH",
"380 285 OFFCURVE",
"385 289 OFFCURVE",
"388 287 CURVE",
"388 279 OFFCURVE",
"376 269 OFFCURVE",
"379 262 CURVE",
"372 258 OFFCURVE",
"364 256 OFFCURVE",
"355 256 CURVE",
"356 253 OFFCURVE",
"351 243 OFFCURVE",
"341 228 CURVE SMOOTH",
"332 213 OFFCURVE",
"328 200 OFFCURVE",
"330 190 CURVE",
"334 199 OFFCURVE",
"337 203 OFFCURVE",
"340 204 CURVE",
"341 202 OFFCURVE",
"342 200 OFFCURVE",
"342 198 CURVE SMOOTH",
"342 195 OFFCURVE",
"336 188 OFFCURVE",
"323 179 CURVE SMOOTH",
"322 178 OFFCURVE",
"322 176 OFFCURVE",
"322 174 CURVE SMOOTH",
"322 162 OFFCURVE",
"338 143 OFFCURVE",
"355 139 CURVE",
"375 108 OFFCURVE",
"403 93 OFFCURVE",
"439 93 CURVE SMOOTH",
"451 93 OFFCURVE",
"462 96 OFFCURVE",
"471 101 CURVE",
"475 92 OFFCURVE",
"496 90 OFFCURVE",
"533 97 CURVE",
"537 96 OFFCURVE",
"538 92 OFFCURVE",
"537 86 CURVE",
"514 42 OFFCURVE",
"462 -7 OFFCURVE",
"380 -62 CURVE SMOOTH",
"340 -89 LINE"
);
},
{
closed = 1;
nodes = (
"444 152 OFFCURVE",
"429 157 OFFCURVE",
"420 163 CURVE",
"417 184 OFFCURVE",
"426 201 OFFCURVE",
"433 217 CURVE",
"442 220 OFFCURVE",
"451 221 OFFCURVE",
"460 221 CURVE SMOOTH",
"489 221 OFFCURVE",
"515 206 OFFCURVE",
"540 176 CURVE",
"533 165 OFFCURVE",
"521 157 OFFCURVE",
"506 152 CURVE",
"464 152 LINE SMOOTH"
);
},
{
closed = 1;
nodes = (
"422 655 OFFCURVE",
"440 664 OFFCURVE",
"463 664 CURVE SMOOTH",
"471 664 OFFCURVE",
"484 662 OFFCURVE",
"501 659 CURVE SMOOTH",
"518 656 OFFCURVE",
"531 655 OFFCURVE",
"540 655 CURVE SMOOTH",
"559 655 OFFCURVE",
"576 660 OFFCURVE",
"589 670 CURVE",
"593 714 OFFCURVE",
"565 745 OFFCURVE",
"506 763 CURVE",
"496 757 OFFCURVE",
"475 753 OFFCURVE",
"442 750 CURVE SMOOTH",
"410 748 OFFCURVE",
"389 743 OFFCURVE",
"379 735 CURVE",
"406 709 OFFCURVE",
"428 691 OFFCURVE",
"444 680 CURVE",
"417 661 OFFCURVE",
"405 647 OFFCURVE",
"409 638 CURVE"
);
},
{
closed = 1;
nodes = (
"786 387 OFFCURVE",
"812 383 OFFCURVE",
"837 410 CURVE",
"826 474 OFFCURVE",
"764 516 OFFCURVE",
"699 498 CURVE",
"708 471 OFFCURVE",
"733 426 OFFCURVE",
"763 404 CURVE SMOOTH"
);
},
{
closed = 1;
nodes = (
"947 545 OFFCURVE",
"861 562 OFFCURVE",
"809 552 CURVE",
"826 532 OFFCURVE",
"847 494 OFFCURVE",
"872 470 CURVE SMOOTH",
"895 449 OFFCURVE",
"921 440 OFFCURVE",
"953 467 CURVE"
);
}
);
vertWidth = 1000;
width = 1000;
}
);
note = cid00880;
unicode = 3067;
},
{
glyphname = "to-hira";
lastChange = "2020-12-04 08:03:05 +0000";
layers = (
{
hints = (
{
horizontal = 1;
place = "{150, 7}";
type = Stem;
},
{
horizontal = 1;
place = "{240, 68}";
type = Stem;
},
{
place = "{516, 73}";
type = Stem;
},
{
horizontal = 1;
place = "{241, 7}";
type = Stem;
}
);
layerId = "F065C3D4-A6F6-48F7-ABC0-534A710C84EA";
paths = (
{
closed = 1;
nodes = (
"573 -9 OFFCURVE",
"577 -6 OFFCURVE",
"582 -7 CURVE",
"587 20 OFFCURVE",
"590 51 OFFCURVE",
"591 84 CURVE SMOOTH",
"592 108 OFFCURVE",
"592 139 OFFCURVE",
"591 178 CURVE SMOOTH",
"590 232 OFFCURVE",
"589 265 OFFCURVE",
"589 276 CURVE",
"592 281 OFFCURVE",
"608 292 OFFCURVE",
"637 310 CURVE SMOOTH",
"657 323 OFFCURVE",
"667 337 OFFCURVE",
"666 352 CURVE SMOOTH",
"665 368 OFFCURVE",
"649 385 OFFCURVE",
"616 403 CURVE SMOOTH",
"579 424 OFFCURVE",
"558 438 OFFCURVE",
"554 443 CURVE",
"535 424 OFFCURVE",
"524 387 OFFCURVE",
"523 334 CURVE",
"505 323 OFFCURVE",
"483 315 OFFCURVE",
"458 308 CURVE SMOOTH",
"431 301 OFFCURVE",
"408 298 OFFCURVE",
"391 300 CURVE",
"470 443 LINE",
"510 520 LINE SMOOTH",
"526 550 OFFCURVE",
"542 571 OFFCURVE",
"557 582 CURVE",
"602 602 OFFCURVE",
"639 617 OFFCURVE",
"670 627 CURVE SMOOTH",
"681 630 OFFCURVE",
"691 634 OFFCURVE",
"701 638 CURVE SMOOTH",
"714 643 OFFCURVE",
"720 651 OFFCURVE",
"720 661 CURVE SMOOTH",
"720 676 OFFCURVE",
"711 692 OFFCURVE",
"694 708 CURVE",
"681 712 OFFCURVE",
"666 719 OFFCURVE",
"647 730 CURVE SMOOTH",
"628 741 OFFCURVE",
"614 747 OFFCURVE",
"603 750 CURVE",
"592 739 OFFCURVE",
"565 711 OFFCURVE",
"523 666 CURVE",
"506 655 OFFCURVE",
"463 644 OFFCURVE",
"394 632 CURVE SMOOTH",
"333 622 OFFCURVE",
"295 608 OFFCURVE",
"278 590 CURVE",
"336 563 OFFCURVE",
"381 549 OFFCURVE",
"412 549 CURVE SMOOTH",
"420 549 OFFCURVE",
"428 550 OFFCURVE",
"436 551 CURVE",
"405 503 OFFCURVE",
"381 465 OFFCURVE",
"362 436 CURVE SMOOTH",
"339 401 OFFCURVE",
"324 380 OFFCURVE",
"320 373 CURVE SMOOTH",
"305 346 OFFCURVE",
"298 325 OFFCURVE",
"299 310 CURVE SMOOTH",
"301 286 OFFCURVE",
"323 260 OFFCURVE",
"365 231 CURVE",
"384 236 OFFCURVE",
"406 240 OFFCURVE",
"431 240 CURVE SMOOTH",
"450 240 LINE SMOOTH",
"473 240 OFFCURVE",
"494 242 OFFCURVE",
"512 247 CURVE",
"515 232 OFFCURVE",
"516 206 OFFCURVE",
"516 169 CURVE SMOOTH",
"516 128 OFFCURVE",
"514 101 OFFCURVE",
"509 87 CURVE",
"492 83 OFFCURVE",
"474 81 OFFCURVE",
"456 81 CURVE SMOOTH",
"419 81 OFFCURVE",
"370 92 OFFCURVE",
"310 115 CURVE",
"310 112 OFFCURVE",
"315 106 OFFCURVE",
"324 97 CURVE SMOOTH",
"334 88 OFFCURVE",
"339 80 OFFCURVE",
"338 73 CURVE",
"403 25 OFFCURVE",
"480 -5 OFFCURVE",
"568 -17 CURVE"
);
},
{
closed = 1;
nodes = (
"269 23 OFFCURVE",
"287 42 OFFCURVE",
"299 80 CURVE",
"293 84 OFFCURVE",
"291 91 OFFCURVE",
"293 101 CURVE",
"282 108 OFFCURVE",
"277 119 OFFCURVE",
"277 132 CURVE SMOOTH",
"277 147 OFFCURVE",
"282 163 OFFCURVE",
"293 181 CURVE",
"270 159 OFFCURVE",
"243 141 OFFCURVE",
"212 126 CURVE",
"195 147 OFFCURVE",
"176 157 OFFCURVE",
"156 157 CURVE SMOOTH",
"149 157 OFFCURVE",
"142 155 OFFCURVE",
"135 150 CURVE",
"136 129 OFFCURVE",
"147 105 OFFCURVE",
"169 76 CURVE SMOOTH",
"189 49 OFFCURVE",
"206 33 OFFCURVE",
"219 28 CURVE SMOOTH",
"228 25 OFFCURVE",
"236 23 OFFCURVE",
"244 23 CURVE SMOOTH"
);
},
{
closed = 1;
nodes = (
"855 59 OFFCURVE",
"868 80 OFFCURVE",
"876 84 CURVE",
"878 119 OFFCURVE",
"863 155 OFFCURVE",
"830 192 CURVE SMOOTH",
"797 229 OFFCURVE",
"763 248 OFFCURVE",
"727 248 CURVE SMOOTH",
"716 248 OFFCURVE",
"706 246 OFFCURVE",
"697 241 CURVE",
"757 138 LINE SMOOTH",
"781 97 OFFCURVE",
"811 71 OFFCURVE",
"844 56 CURVE"
);
}
);
vertWidth = 1000;
width = 1000;
}
);
note = cid00881;
unicode = 3068;
},
{
glyphname = "do-hira";
lastChange = "2020-12-04 08:03:05 +0000";
layers = (
{
hints = (
{
horizontal = 1;
place = "{150, 7}";
type = Stem;
},
{
horizontal = 1;
place = "{240, 68}";
type = Stem;
},
{
horizontal = 1;
place = "{406, 112}";
type = Stem;
},
{
place = "{516, 73}";
type = Stem;
},
{
horizontal = 1;
place = "{241, 7}";
type = Stem;
}
);
layerId = "F065C3D4-A6F6-48F7-ABC0-534A710C84EA";
paths = (
{
closed = 1;
nodes = (
"573 -9 OFFCURVE",
"577 -6 OFFCURVE",
"582 -7 CURVE",
"587 20 OFFCURVE",
"590 51 OFFCURVE",
"591 84 CURVE SMOOTH",
"592 108 OFFCURVE",
"592 139 OFFCURVE",
"591 178 CURVE SMOOTH",
"590 232 OFFCURVE",
"589 265 OFFCURVE",
"589 276 CURVE",
"592 281 OFFCURVE",
"608 292 OFFCURVE",
"637 310 CURVE SMOOTH",
"657 323 OFFCURVE",
"667 337 OFFCURVE",
"666 352 CURVE SMOOTH",
"665 368 OFFCURVE",
"649 385 OFFCURVE",
"616 403 CURVE SMOOTH",
"579 424 OFFCURVE",
"558 438 OFFCURVE",
"554 443 CURVE",
"535 424 OFFCURVE",
"524 387 OFFCURVE",
"523 334 CURVE",
"505 323 OFFCURVE",
"483 315 OFFCURVE",
"458 308 CURVE SMOOTH",
"431 301 OFFCURVE",
"408 298 OFFCURVE",
"391 300 CURVE",
"470 443 LINE",
"510 520 LINE SMOOTH",
"526 550 OFFCURVE",
"542 571 OFFCURVE",
"557 582 CURVE",
"602 602 OFFCURVE",
"639 617 OFFCURVE",
"670 627 CURVE SMOOTH",
"681 630 OFFCURVE",
"691 634 OFFCURVE",
"701 638 CURVE SMOOTH",
"714 643 OFFCURVE",
"720 651 OFFCURVE",
"720 661 CURVE SMOOTH",
"720 676 OFFCURVE",
"711 692 OFFCURVE",
"694 708 CURVE",
"681 712 OFFCURVE",
"666 719 OFFCURVE",
"647 730 CURVE SMOOTH",
"628 741 OFFCURVE",
"614 747 OFFCURVE",
"603 750 CURVE",
"592 739 OFFCURVE",
"565 711 OFFCURVE",
"523 666 CURVE",
"506 655 OFFCURVE",
"463 644 OFFCURVE",
"394 632 CURVE SMOOTH",
"333 622 OFFCURVE",
"295 608 OFFCURVE",
"278 590 CURVE",
"336 563 OFFCURVE",
"381 549 OFFCURVE",
"412 549 CURVE SMOOTH",
"420 549 OFFCURVE",
"428 550 OFFCURVE",
"436 551 CURVE",
"405 503 OFFCURVE",
"381 465 OFFCURVE",
"362 436 CURVE SMOOTH",
"339 401 OFFCURVE",
"324 380 OFFCURVE",
"320 373 CURVE SMOOTH",
"305 346 OFFCURVE",
"298 325 OFFCURVE",
"299 310 CURVE SMOOTH",
"301 286 OFFCURVE",
"323 260 OFFCURVE",
"365 231 CURVE",
"384 236 OFFCURVE",
"406 240 OFFCURVE",
"431 240 CURVE SMOOTH",
"450 240 LINE SMOOTH",
"473 240 OFFCURVE",
"494 242 OFFCURVE",
"512 247 CURVE",
"515 232 OFFCURVE",
"516 206 OFFCURVE",
"516 169 CURVE SMOOTH",
"516 128 OFFCURVE",
"514 101 OFFCURVE",
"509 87 CURVE",
"492 83 OFFCURVE",
"474 81 OFFCURVE",
"456 81 CURVE SMOOTH",
"419 81 OFFCURVE",
"370 92 OFFCURVE",
"310 115 CURVE",
"310 112 OFFCURVE",
"315 106 OFFCURVE",
"324 97 CURVE SMOOTH",
"334 88 OFFCURVE",
"339 80 OFFCURVE",
"338 73 CURVE",
"403 25 OFFCURVE",
"480 -5 OFFCURVE",
"568 -17 CURVE"
);
},
{
closed = 1;
nodes = (
"269 23 OFFCURVE",
"287 42 OFFCURVE",
"299 80 CURVE",
"293 84 OFFCURVE",
"291 91 OFFCURVE",
"293 101 CURVE",
"282 108 OFFCURVE",
"277 119 OFFCURVE",
"277 132 CURVE SMOOTH",
"277 147 OFFCURVE",
"282 163 OFFCURVE",
"293 181 CURVE",
"270 159 OFFCURVE",
"243 141 OFFCURVE",
"212 126 CURVE",
"195 147 OFFCURVE",
"176 157 OFFCURVE",
"156 157 CURVE SMOOTH",
"149 157 OFFCURVE",
"142 155 OFFCURVE",
"135 150 CURVE",
"136 129 OFFCURVE",
"147 105 OFFCURVE",
"169 76 CURVE SMOOTH",
"189 49 OFFCURVE",
"206 33 OFFCURVE",
"219 28 CURVE SMOOTH",
"228 25 OFFCURVE",
"236 23 OFFCURVE",
"244 23 CURVE SMOOTH"
);
},
{
closed = 1;
nodes = (
"855 59 OFFCURVE",
"868 80 OFFCURVE",
"876 84 CURVE",
"878 119 OFFCURVE",
"863 155 OFFCURVE",
"830 192 CURVE SMOOTH",
"797 229 OFFCURVE",
"763 248 OFFCURVE",
"727 248 CURVE SMOOTH",
"716 248 OFFCURVE",
"706 246 OFFCURVE",
"697 241 CURVE",
"757 138 LINE SMOOTH",
"781 97 OFFCURVE",
"811 71 OFFCURVE",
"844 56 CURVE"
);
},
{
closed = 1;
nodes = (
"760 403 OFFCURVE",
"786 399 OFFCURVE",
"811 426 CURVE",
"800 490 OFFCURVE",
"738 532 OFFCURVE",
"673 514 CURVE",
"682 487 OFFCURVE",
"707 442 OFFCURVE",
"737 420 CURVE SMOOTH"
);
},
{
closed = 1;
nodes = (
"921 561 OFFCURVE",
"835 578 OFFCURVE",
"783 568 CURVE",
"800 548 OFFCURVE",
"821 510 OFFCURVE",
"846 486 CURVE SMOOTH",
"869 465 OFFCURVE",
"895 456 OFFCURVE",
"927 483 CURVE"
);
}
);
vertWidth = 1000;
width = 1000;
}
);
note = cid00882;
unicode = 3069;
},
{
glyphname = "na-hira";
lastChange = "2020-12-04 08:03:05 +0000";
layers = (
{
hints = (
{
horizontal = 1;
place = "{-5, 719}";
type = Stem;
},
{
place = "{217, 65}";
type = Stem;
},
{
place = "{369, 77}";
type = Stem;
},
{
place = "{695, 63}";
type = Stem;
},
{
place = "{371, 62}";
type = Stem;
},
{
place = "{306, 32}";
type = Stem;
},
{
place = "{198, 88}";
type = Stem;
}
);
layerId = "F065C3D4-A6F6-48F7-ABC0-534A710C84EA";
paths = (
{
closed = 1;
nodes = (
"372 -4 OFFCURVE",
"383 4 OFFCURVE",
"394 18 CURVE SMOOTH",
"406 33 OFFCURVE",
"416 40 OFFCURVE",
"423 40 CURVE",
"430 68 OFFCURVE",
"437 94 OFFCURVE",
"446 117 CURVE",
"443 121 OFFCURVE",
"441 123 OFFCURVE",
"439 124 CURVE",
"444 200 OFFCURVE",
"446 254 OFFCURVE",
"446 285 CURVE SMOOTH",
"446 338 OFFCURVE",
"488 385 OFFCURVE",
"520 430 CURVE SMOOTH",
"588 525 OFFCURVE",
"647 592 OFFCURVE",
"700 630 CURVE",
"697 525 OFFCURVE",
"695 466 OFFCURVE",
"695 452 CURVE SMOOTH",
"695 390 OFFCURVE",
"699 336 OFFCURVE",
"705 291 CURVE SMOOTH",
"719 197 OFFCURVE",
"747 127 OFFCURVE",
"791 82 CURVE",
"794 81 OFFCURVE",
"801 86 OFFCURVE",
"802 86 CURVE SMOOTH",
"803 86 OFFCURVE",
"803 85 OFFCURVE",
"804 82 CURVE",
"802 79 OFFCURVE",
"806 73 OFFCURVE",
"817 65 CURVE SMOOTH",
"828 58 OFFCURVE",
"839 54 OFFCURVE",
"850 54 CURVE SMOOTH",
"856 54 OFFCURVE",
"861 56 OFFCURVE",
"865 59 CURVE",
"866 62 OFFCURVE",
"866 66 OFFCURVE",
"866 70 CURVE SMOOTH",
"866 85 OFFCURVE",
"859 100 OFFCURVE",
"842 117 CURVE SMOOTH",
"834 125 LINE SMOOTH",
"801 158 OFFCURVE",
"782 190 OFFCURVE",
"775 221 CURVE SMOOTH",
"764 268 OFFCURVE",
"758 323 OFFCURVE",
"758 384 CURVE SMOOTH",
"758 475 OFFCURVE",
"768 570 OFFCURVE",
"788 669 CURVE",
"770 680 OFFCURVE",
"760 692 OFFCURVE",
"759 705 CURVE",
"746 705 OFFCURVE",
"734 708 OFFCURVE",
"723 714 CURVE",
"720 707 OFFCURVE",
"713 699 OFFCURVE",
"701 689 CURVE SMOOTH",
"689 680 OFFCURVE",
"682 672 OFFCURVE",
"681 666 CURVE",
"676 667 OFFCURVE",
"670 665 OFFCURVE",
"665 660 CURVE SMOOTH",
"656 649 OFFCURVE",
"652 643 OFFCURVE",
"652 643 CURVE",
"622 621 LINE SMOOTH",
"609 611 OFFCURVE",
"603 601 OFFCURVE",
"604 592 CURVE",
"596 592 OFFCURVE",
"592 590 OFFCURVE",
"591 585 CURVE",
"591 576 LINE",
"575 576 LINE",
"546 530 OFFCURVE",
"515 491 OFFCURVE",
"481 459 CURVE",
"482 452 OFFCURVE",
"478 445 OFFCURVE",
"469 440 CURVE SMOOTH",
"457 432 OFFCURVE",
"449 426 OFFCURVE",
"446 421 CURVE",
"449 446 LINE",
"442 437 OFFCURVE",
"437 434 OFFCURVE",
"433 437 CURVE",
"430 482 OFFCURVE",
"402 508 OFFCURVE",
"349 517 CURVE",
"337 508 OFFCURVE",
"326 498 OFFCURVE",
"317 485 CURVE",
"325 486 OFFCURVE",
"329 485 OFFCURVE",
"330 482 CURVE",
"319 479 OFFCURVE",
"308 470 OFFCURVE",
"299 456 CURVE SMOOTH",
"288 439 OFFCURVE",
"280 428 OFFCURVE",
"275 424 CURVE",
"280 456 OFFCURVE",
"282 487 OFFCURVE",
"282 518 CURVE SMOOTH",
"281 578 OFFCURVE",
"271 633 OFFCURVE",
"252 682 CURVE",
"237 667 OFFCURVE",
"224 641 OFFCURVE",
"221 604 CURVE SMOOTH",
"213 505 LINE SMOOTH",
"212 496 OFFCURVE",
"206 466 OFFCURVE",
"206 455 CURVE SMOOTH",
"206 446 OFFCURVE",
"208 439 OFFCURVE",
"213 434 CURVE",
"206 427 OFFCURVE",
"202 411 OFFCURVE",
"202 385 CURVE SMOOTH",
"202 377 OFFCURVE",
"202 364 OFFCURVE",
"203 347 CURVE SMOOTH",
"204 330 OFFCURVE",
"205 319 OFFCURVE",
"205 313 CURVE SMOOTH",
"205 300 OFFCURVE",
"204 291 OFFCURVE",
"201 288 CURVE",
"197 298 LINE",
"196 291 OFFCURVE",
"197 277 OFFCURVE",
"198 256 CURVE SMOOTH",
"199 237 OFFCURVE",
"199 222 OFFCURVE",
"197 211 CURVE SMOOTH",
"196 208 OFFCURVE",
"194 200 OFFCURVE",
"189 187 CURVE SMOOTH",
"185 174 OFFCURVE",
"183 164 OFFCURVE",
"183 157 CURVE SMOOTH",
"183 153 OFFCURVE",
"183 150 OFFCURVE",
"184 147 CURVE SMOOTH",
"186 140 OFFCURVE",
"190 135 OFFCURVE",
"195 132 CURVE SMOOTH",
"210 124 LINE",
"211 119 OFFCURVE",
"211 115 OFFCURVE",
"210 111 CURVE",
"223 108 LINE",
"243 89 LINE SMOOTH",
"251 81 OFFCURVE",
"259 78 OFFCURVE",
"268 79 CURVE",
"277 91 OFFCURVE",
"271 114 OFFCURVE",
"275 121 CURVE",
"296 102 OFFCURVE",
"306 78 OFFCURVE",
"306 51 CURVE SMOOTH",
"306 44 OFFCURVE",
"305 37 OFFCURVE",
"304 30 CURVE",
"312 23 OFFCURVE",
"319 14 OFFCURVE",
"326 1 CURVE",
"329 2 OFFCURVE",
"331 2 OFFCURVE",
"334 2 CURVE SMOOTH",
"341 2 OFFCURVE",
"355 -6 OFFCURVE",
"362 -5 CURVE SMOOTH"
);
},
{
closed = 1;
nodes = (
"339 88 OFFCURVE",
"338 95 OFFCURVE",
"338 102 CURVE SMOOTH",
"338 114 OFFCURVE",
"342 129 OFFCURVE",
"351 148 CURVE SMOOTH",
"361 171 OFFCURVE",
"367 186 OFFCURVE",
"368 192 CURVE",
"369 187 OFFCURVE",
"369 182 OFFCURVE",
"369 175 CURVE SMOOTH",
"369 128 OFFCURVE",
"360 97 OFFCURVE",
"342 82 CURVE"
);
},
{
closed = 1;
nodes = (
"289 177 OFFCURVE",
"296 194 OFFCURVE",
"313 223 CURVE SMOOTH",
"330 252 OFFCURVE",
"336 271 OFFCURVE",
"333 279 CURVE",
"318 254 OFFCURVE",
"305 232 OFFCURVE",
"294 211 CURVE",
"283 227 OFFCURVE",
"283 238 OFFCURVE",
"294 243 CURVE",
"292 317 OFFCURVE",
"318 389 OFFCURVE",
"371 459 CURVE",
"379 428 OFFCURVE",
"382 398 OFFCURVE",
"381 369 CURVE SMOOTH",
"380 340 OFFCURVE",
"373 321 OFFCURVE",
"362 311 CURVE",
"365 298 LINE",
"353 292 OFFCURVE",
"344 279 OFFCURVE",
"338 259 CURVE SMOOTH",
"329 232 OFFCURVE",
"323 216 OFFCURVE",
"320 211 CURVE SMOOTH",
"309 195 OFFCURVE",
"300 182 OFFCURVE",
"291 172 CURVE"
);
}
);
vertWidth = 1000;
width = 1000;
}
);
note = cid00883;
unicode = 306A;
},
{
glyphname = "ni-hira";
lastChange = "2020-12-04 08:03:05 +0000";
layers = (
{
hints = (
{
horizontal = 1;
place = "{-105, 847}";
type = Stem;
},
{
place = "{599, 74}";
type = Stem;
}
);
layerId = "F065C3D4-A6F6-48F7-ABC0-534A710C84EA";
paths = (
{
closed = 1;
nodes = (
"579 -99 OFFCURVE",
"595 -86 OFFCURVE",
"606 -64 CURVE SMOOTH",
"635 -6 LINE",
"637 7 OFFCURVE",
"646 39 OFFCURVE",
"661 92 CURVE SMOOTH",
"672 129 OFFCURVE",
"676 160 OFFCURVE",
"673 187 CURVE SMOOTH",
"672 194 OFFCURVE",
"672 226 OFFCURVE",
"673 281 CURVE SMOOTH",
"674 333 OFFCURVE",
"667 378 OFFCURVE",
"652 417 CURVE",
"637 441 OFFCURVE",
"616 453 OFFCURVE",
"589 454 CURVE SMOOTH",
"560 455 OFFCURVE",
"531 443 OFFCURVE",
"500 420 CURVE",
"499 425 OFFCURVE",
"509 433 OFFCURVE",
"509 438 CURVE SMOOTH",
"509 440 OFFCURVE",
"508 442 OFFCURVE",
"507 444 CURVE",
"524 460 OFFCURVE",
"550 489 OFFCURVE",
"585 532 CURVE SMOOTH",
"616 569 OFFCURVE",
"642 595 OFFCURVE",
"663 611 CURVE SMOOTH",
"695 635 OFFCURVE",
"732 649 OFFCURVE",
"774 654 CURVE",
"779 661 OFFCURVE",
"782 669 OFFCURVE",
"782 676 CURVE SMOOTH",
"782 701 OFFCURVE",
"753 723 OFFCURVE",
"696 742 CURVE",
"631 717 OFFCURVE",
"550 695 OFFCURVE",
"453 683 CURVE SMOOTH",
"192 651 LINE",
"246 608 OFFCURVE",
"306 587 OFFCURVE",
"373 587 CURVE SMOOTH",
"387 587 OFFCURVE",
"401 588 OFFCURVE",
"415 590 CURVE SMOOTH",
"422 591 OFFCURVE",
"443 595 OFFCURVE",
"480 605 CURVE SMOOTH",
"505 611 OFFCURVE",
"526 614 OFFCURVE",
"541 613 CURVE",
"512 571 OFFCURVE",
"484 529 OFFCURVE",
"456 487 CURVE SMOOTH",
"413 423 OFFCURVE",
"390 379 OFFCURVE",
"388 356 CURVE",
"392 362 OFFCURVE",
"395 364 OFFCURVE",
"398 363 CURVE",
"398 356 OFFCURVE",
"394 349 OFFCURVE",
"385 344 CURVE SMOOTH",
"373 336 OFFCURVE",
"366 331 OFFCURVE",
"364 328 CURVE SMOOTH",
"357 314 OFFCURVE",
"353 303 OFFCURVE",
"351 295 CURVE",
"346 294 OFFCURVE",
"341 294 OFFCURVE",
"337 295 CURVE",
"330 286 OFFCURVE",
"325 280 OFFCURVE",
"323 275 CURVE",
"310 268 OFFCURVE",
"305 257 OFFCURVE",
"307 244 CURVE",
"331 210 OFFCURVE",
"350 185 OFFCURVE",
"364 170 CURVE",
"372 171 OFFCURVE",
"380 178 OFFCURVE",
"387 190 CURVE SMOOTH",
"395 202 OFFCURVE",
"403 209 OFFCURVE",
"412 210 CURVE",
"427 251 OFFCURVE",
"452 289 OFFCURVE",
"488 324 CURVE SMOOTH",
"519 354 OFFCURVE",
"552 377 OFFCURVE",
"588 394 CURVE",
"595 351 OFFCURVE",
"598 311 OFFCURVE",
"599 272 CURVE SMOOTH",
"600 220 OFFCURVE",
"595 157 OFFCURVE",
"586 84 CURVE SMOOTH",
"578 21 OFFCURVE",
"570 -42 OFFCURVE",
"561 -105 CURVE"
);
}
);
vertWidth = 1000;
width = 1000;
}
);
note = cid00884;
unicode = 306B;
},
{
glyphname = "nu-hira";
lastChange = "2020-12-04 08:03:05 +0000";
layers = (
{
hints = (
{
horizontal = 1;
place = "{-56, 84}";
type = Stem;
},
{
horizontal = 1;
place = "{282, 53}";
type = Stem;
},
{
horizontal = 1;
place = "{496, 69}";
type = Stem;
},
{
horizontal = 1;
place = "{667, 62}";
type = Stem;
},
{
place = "{247, 79}";
type = Stem;
},
{
place = "{647, 84}";
type = Stem;
},
{
place = "{756, 70}";
type = Stem;
},
{
horizontal = 1;
place = "{340, 67}";
type = Stem;
}
);
layerId = "F065C3D4-A6F6-48F7-ABC0-534A710C84EA";
paths = (
{
closed = 1;
nodes = (
"608 -56 OFFCURVE",
"632 -46 OFFCURVE",
"652 -25 CURVE SMOOTH",
"679 3 OFFCURVE",
"701 44 OFFCURVE",
"717 97 CURVE SMOOTH",
"732 148 OFFCURVE",
"736 194 OFFCURVE",
"731 235 CURVE SMOOTH",
"728 260 OFFCURVE",
"714 279 OFFCURVE",
"690 292 CURVE",
"620 322 LINE",
"637 335 OFFCURVE",
"666 349 OFFCURVE",
"707 363 CURVE SMOOTH",
"752 378 OFFCURVE",
"783 391 OFFCURVE",
"799 401 CURVE SMOOTH",
"830 420 OFFCURVE",
"849 444 OFFCURVE",
"856 475 CURVE",
"831 504 OFFCURVE",
"810 524 OFFCURVE",
"795 536 CURVE",
"816 567 OFFCURVE",
"826 599 OFFCURVE",
"826 631 CURVE SMOOTH",
"826 658 OFFCURVE",
"818 681 OFFCURVE",
"802 701 CURVE",
"775 720 OFFCURVE",
"738 729 OFFCURVE",
"692 729 CURVE SMOOTH",
"634 729 OFFCURVE",
"582 717 OFFCURVE",
"537 694 CURVE",
"521 740 OFFCURVE",
"498 766 OFFCURVE",
"469 772 CURVE",
"462 724 OFFCURVE",
"457 671 OFFCURVE",
"438 636 CURVE",
"387 610 OFFCURVE",
"350 590 OFFCURVE",
"326 575 CURVE",
"319 631 OFFCURVE",
"304 671 OFFCURVE",
"283 694 CURVE",
"260 689 OFFCURVE",
"248 667 OFFCURVE",
"247 628 CURVE SMOOTH",
"246 594 OFFCURVE",
"252 559 OFFCURVE",
"266 522 CURVE",
"226 489 OFFCURVE",
"191 462 OFFCURVE",
"163 438 CURVE SMOOTH",
"132 412 OFFCURVE",
"118 384 OFFCURVE",
"118 357 CURVE SMOOTH",
"118 349 OFFCURVE",
"116 342 OFFCURVE",
"131 319 CURVE SMOOTH",
"139 308 OFFCURVE",
"143 298 OFFCURVE",
"144 289 CURVE",
"180 284 OFFCURVE",
"203 282 OFFCURVE",
"214 282 CURVE SMOOTH",
"235 282 OFFCURVE",
"253 287 OFFCURVE",
"266 296 CURVE",
"275 299 OFFCURVE",
"281 300 OFFCURVE",
"286 300 CURVE SMOOTH",
"291 300 OFFCURVE",
"299 306 OFFCURVE",
"311 317 CURVE SMOOTH",
"324 329 OFFCURVE",
"334 336 OFFCURVE",
"341 339 CURVE SMOOTH",
"355 344 OFFCURVE",
"367 350 OFFCURVE",
"377 357 CURVE",
"390 346 OFFCURVE",
"403 340 OFFCURVE",
"416 340 CURVE SMOOTH",
"440 340 OFFCURVE",
"458 363 OFFCURVE",
"458 391 CURVE SMOOTH",
"458 400 OFFCURVE",
"456 409 OFFCURVE",
"452 418 CURVE",
"446 421 OFFCURVE",
"440 420 OFFCURVE",
"433 413 CURVE SMOOTH",
"427 407 OFFCURVE",
"420 405 OFFCURVE",
"412 407 CURVE",
"465 489 OFFCURVE",
"498 556 OFFCURVE",
"513 608 CURVE",
"588 647 OFFCURVE",
"645 667 OFFCURVE",
"684 667 CURVE SMOOTH",
"703 667 OFFCURVE",
"722 664 OFFCURVE",
"741 658 CURVE",
"751 650 OFFCURVE",
"756 638 OFFCURVE",
"756 623 CURVE SMOOTH",
"756 608 OFFCURVE",
"753 594 OFFCURVE",
"744 580 CURVE SMOOTH",
"734 565 OFFCURVE",
"722 557 OFFCURVE",
"709 557 CURVE SMOOTH",
"698 557 OFFCURVE",
"665 565 OFFCURVE",
"652 565 CURVE SMOOTH",
"565 566 OFFCURVE",
"516 543 OFFCURVE",
"506 497 CURVE",
"508 495 OFFCURVE",
"509 493 OFFCURVE",
"509 491 CURVE SMOOTH",
"509 483 OFFCURVE",
"491 465 OFFCURVE",
"491 458 CURVE",
"496 453 OFFCURVE",
"505 440 OFFCURVE",
"516 419 CURVE SMOOTH",
"525 401 OFFCURVE",
"535 389 OFFCURVE",
"545 383 CURVE",
"649 421 LINE SMOOTH",
"693 437 OFFCURVE",
"723 460 OFFCURVE",
"744 483 CURVE",
"761 481 OFFCURVE",
"770 475 OFFCURVE",
"773 465 CURVE",
"656 410 OFFCURVE",
"569 367 OFFCURVE",
"513 336 CURVE",
"499 353 OFFCURVE",
"486 361 OFFCURVE",
"473 361 CURVE",
"468 351 OFFCURVE",
"466 336 OFFCURVE",
"466 315 CURVE",
"409 278 OFFCURVE",
"365 258 OFFCURVE",
"334 254 CURVE",
"321 235 OFFCURVE",
"315 214 OFFCURVE",
"316 192 CURVE SMOOTH",
"317 169 OFFCURVE",
"326 156 OFFCURVE",
"344 154 CURVE SMOOTH",
"355 152 OFFCURVE",
"370 159 OFFCURVE",
"388 172 CURVE SMOOTH",
"409 187 OFFCURVE",
"423 196 OFFCURVE",
"432 197 CURVE",
"425 166 OFFCURVE",
"414 140 OFFCURVE",
"398 121 CURVE",
"400 127 OFFCURVE",
"399 131 OFFCURVE",
"394 132 CURVE",
"390 91 OFFCURVE",
"384 61 OFFCURVE",
"375 41 CURVE SMOOTH",
"364 16 OFFCURVE",
"344 -6 OFFCURVE",
"316 -25 CURVE",
"319 -30 OFFCURVE",
"327 -35 OFFCURVE",
"338 -40 CURVE",
"339 -34 OFFCURVE",
"344 -31 OFFCURVE",
"354 -31 CURVE SMOOTH",
"361 -31 OFFCURVE",
"372 -33 OFFCURVE",
"387 -37 CURVE",
"396 -34 OFFCURVE",
"404 -27 OFFCURVE",
"412 -17 CURVE SMOOTH",
"433 7 LINE",
"444 1 OFFCURVE",
"454 -1 OFFCURVE",
"462 0 CURVE",
"475 -13 OFFCURVE",
"485 -24 OFFCURVE",
"491 -32 CURVE",
"506 -41 OFFCURVE",
"530 -49 OFFCURVE",
"562 -54 CURVE SMOOTH",
"568 -55 OFFCURVE",
"574 -56 OFFCURVE",
"580 -56 CURVE SMOOTH"
);
},
{
closed = 1;
nodes = (
"185 335 OFFCURVE",
"179 335 OFFCURVE",
"173 336 CURVE",
"180 358 OFFCURVE",
"198 381 OFFCURVE",
"226 404 CURVE SMOOTH",
"239 415 OFFCURVE",
"262 430 OFFCURVE",
"294 451 CURVE",
"296 438 OFFCURVE",
"305 424 OFFCURVE",
"322 408 CURVE",
"303 368 OFFCURVE",
"246 335 OFFCURVE",
"191 335 CURVE SMOOTH"
);
},
{
closed = 1;
nodes = (
"505 7 OFFCURVE",
"500 8 OFFCURVE",
"494 11 CURVE",
"494 15 OFFCURVE",
"501 17 OFFCURVE",
"498 21 CURVE",
"471 28 OFFCURVE",
"459 40 OFFCURVE",
"460 59 CURVE",
"469 90 OFFCURVE",
"478 113 OFFCURVE",
"487 128 CURVE",
"498 137 OFFCURVE",
"506 152 OFFCURVE",
"512 173 CURVE SMOOTH",
"527 228 LINE",
"554 247 OFFCURVE",
"584 256 OFFCURVE",
"615 256 CURVE SMOOTH",
"624 256 OFFCURVE",
"632 255 OFFCURVE",
"641 254 CURVE",
"645 235 OFFCURVE",
"647 216 OFFCURVE",
"647 195 CURVE SMOOTH",
"647 152 OFFCURVE",
"639 116 OFFCURVE",
"623 86 CURVE SMOOTH",
"602 49 OFFCURVE",
"573 29 OFFCURVE",
"534 28 CURVE",
"535 25 OFFCURVE",
"537 24 OFFCURVE",
"540 24 CURVE SMOOTH",
"543 24 OFFCURVE",
"554 29 OFFCURVE",
"559 28 CURVE",
"554 23 OFFCURVE",
"547 20 OFFCURVE",
"537 21 CURVE SMOOTH",
"513 24 LINE",
"513 19 OFFCURVE",
"517 16 OFFCURVE",
"525 15 CURVE SMOOTH",
"534 14 OFFCURVE",
"538 13 OFFCURVE",
"537 11 CURVE",
"529 14 OFFCURVE",
"517 7 OFFCURVE",
"510 7 CURVE SMOOTH"
);
},
{
closed = 1;
nodes = (
"351 470 OFFCURVE",
"348 482 OFFCURVE",
"351 493 CURVE SMOOTH",
"356 514 OFFCURVE",
"378 535 OFFCURVE",
"417 556 CURVE",
"418 554 OFFCURVE",
"419 551 OFFCURVE",
"419 548 CURVE SMOOTH",
"419 538 OFFCURVE",
"414 524 OFFCURVE",
"405 506 CURVE SMOOTH",
"396 488 OFFCURVE",
"386 474 OFFCURVE",
"377 465 CURVE",
"374 455 OFFCURVE",
"369 453 OFFCURVE",
"362 458 CURVE"
);
},
{
closed = 1;
nodes = (
"572 450 OFFCURVE",
"565 456 OFFCURVE",
"562 465 CURVE",
"576 486 OFFCURVE",
"606 496 OFFCURVE",
"652 496 CURVE SMOOTH",
"658 496 OFFCURVE",
"663 496 OFFCURVE",
"668 495 CURVE",
"653 472 OFFCURVE",
"624 456 OFFCURVE",
"581 447 CURVE"
);
}
);
vertWidth = 1000;
width = 1000;
}
);
note = cid00885;
unicode = 306C;
},
{
glyphname = "ne-hira";
lastChange = "2020-12-04 08:03:05 +0000";
layers = (
{
hints = (
{
horizontal = 1;
place = "{-43, 68}";
type = Stem;
},
{
horizontal = 1;
place = "{114, 68.5}";
type = Stem;
},
{
place = "{457, 78}";
type = Stem;
},
{
place = "{570, 77}";
type = Stem;
},
{
horizontal = 1;
place = "{113, 67}";
type = Stem;
}
);
layerId = "F065C3D4-A6F6-48F7-ABC0-534A710C84EA";
paths = (
{
closed = 1;
nodes = (
"580 -42 OFFCURVE",
"599 -35 OFFCURVE",
"616 -21 CURVE",
"619 -13 OFFCURVE",
"606 -14 OFFCURVE",
"609 -6 CURVE",
"618 -6 OFFCURVE",
"623 -5 OFFCURVE",
"626 -3 CURVE",
"636 48 OFFCURVE",
"644 86 OFFCURVE",
"651 113 CURVE",
"722 115 LINE SMOOTH",
"751 116 OFFCURVE",
"771 123 OFFCURVE",
"782 134 CURVE",
"779 157 OFFCURVE",
"760 171 OFFCURVE",
"726 178 CURVE",
"647 187 LINE",
"644 257 OFFCURVE",
"630 341 OFFCURVE",
"605 438 CURVE",
"614 437 OFFCURVE",
"619 440 OFFCURVE",
"621 445 CURVE SMOOTH",
"623 450 OFFCURVE",
"627 452 OFFCURVE",
"634 451 CURVE",
"632 458 OFFCURVE",
"633 470 OFFCURVE",
"637 487 CURVE",
"627 489 OFFCURVE",
"616 498 OFFCURVE",
"603 513 CURVE SMOOTH",
"591 528 OFFCURVE",
"578 536 OFFCURVE",
"563 536 CURVE",
"558 547 OFFCURVE",
"532 570 OFFCURVE",
"528 586 CURVE",
"574 641 OFFCURVE",
"628 682 OFFCURVE",
"689 709 CURVE",
"685 761 OFFCURVE",
"653 805 OFFCURVE",
"613 805 CURVE SMOOTH",
"609 805 OFFCURVE",
"605 805 OFFCURVE",
"601 804 CURVE",
"529 698 LINE SMOOTH",
"500 656 OFFCURVE",
"481 619 OFFCURVE",
"468 589 CURVE",
"490 554 LINE SMOOTH",
"499 540 OFFCURVE",
"503 525 OFFCURVE",
"504 511 CURVE",
"503 510 OFFCURVE",
"497 508 OFFCURVE",
"485 503 CURVE SMOOTH",
"478 500 OFFCURVE",
"474 496 OFFCURVE",
"475 493 CURVE",
"455 489 OFFCURVE",
"430 477 OFFCURVE",
"400 457 CURVE SMOOTH",
"359 430 OFFCURVE",
"337 415 OFFCURVE",
"333 413 CURVE",
"322 390 OFFCURVE",
"309 381 OFFCURVE",
"296 384 CURVE",
"297 387 OFFCURVE",
"309 396 OFFCURVE",
"331 412 CURVE SMOOTH",
"350 426 OFFCURVE",
"358 438 OFFCURVE",
"355 448 CURVE",
"327 423 OFFCURVE",
"299 399 OFFCURVE",
"272 374 CURVE SMOOTH",
"241 344 OFFCURVE",
"218 314 OFFCURVE",
"203 285 CURVE",
"218 269 OFFCURVE",
"235 242 OFFCURVE",
"253 205 CURVE SMOOTH",
"272 164 OFFCURVE",
"288 136 OFFCURVE",
"299 121 CURVE",
"302 121 OFFCURVE",
"306 122 OFFCURVE",
"309 124 CURVE",
"311 110 OFFCURVE",
"323 90 OFFCURVE",
"345 64 CURVE SMOOTH",
"365 41 OFFCURVE",
"380 24 OFFCURVE",
"390 15 CURVE SMOOTH",
"405 2 OFFCURVE",
"431 -6 OFFCURVE",
"454 -14 CURVE SMOOTH",
"507 -33 OFFCURVE",
"542 -43 OFFCURVE",
"559 -43 CURVE SMOOTH"
);
},
{
closed = 1;
nodes = (
"470 26 OFFCURVE",
"395 60 OFFCURVE",
"327 127 CURVE SMOOTH",
"284 169 OFFCURVE",
"264 204 OFFCURVE",
"267 233 CURVE SMOOTH",
"268 246 OFFCURVE",
"280 265 OFFCURVE",
"303 288 CURVE SMOOTH",
"308 293 OFFCURVE",
"327 311 OFFCURVE",
"360 340 CURVE SMOOTH",
"393 370 OFFCURVE",
"433 398 OFFCURVE",
"478 423 CURVE",
"481 415 OFFCURVE",
"475 402 OFFCURVE",
"461 385 CURVE SMOOTH",
"444 365 OFFCURVE",
"434 351 OFFCURVE",
"432 342 CURVE",
"432 332 OFFCURVE",
"436 320 OFFCURVE",
"443 307 CURVE SMOOTH",
"451 291 OFFCURVE",
"456 278 OFFCURVE",
"457 269 CURVE SMOOTH",
"458 258 OFFCURVE",
"457 243 OFFCURVE",
"454 224 CURVE SMOOTH",
"451 203 OFFCURVE",
"449 189 OFFCURVE",
"449 183 CURVE SMOOTH",
"449 140 OFFCURVE",
"488 117 OFFCURVE",
"567 113 CURVE",
"568 108 OFFCURVE",
"568 102 OFFCURVE",
"568 96 CURVE SMOOTH",
"568 88 OFFCURVE",
"563 64 OFFCURVE",
"553 25 CURVE"
);
},
{
closed = 1;
nodes = (
"547 180 OFFCURVE",
"532 184 OFFCURVE",
"525 191 CURVE",
"532 208 OFFCURVE",
"535 227 OFFCURVE",
"535 247 CURVE SMOOTH",
"535 260 OFFCURVE",
"533 290 OFFCURVE",
"533 302 CURVE SMOOTH",
"533 315 OFFCURVE",
"535 328 OFFCURVE",
"538 339 CURVE",
"545 340 OFFCURVE",
"549 339 OFFCURVE",
"549 335 CURVE",
"563 273 OFFCURVE",
"570 221 OFFCURVE",
"570 180 CURVE"
);
}
);
vertWidth = 1000;
width = 1000;
}
);
note = cid00886;
unicode = 306D;
},
{
glyphname = "no-hira";
lastChange = "2020-12-04 08:03:05 +0000";
layers = (
{
hints = (
{
horizontal = 1;
place = "{5, 703}";
type = Stem;
},
{
place = "{141, 79}";
type = Stem;
},
{
place = "{317, 73}";
type = Stem;
},
{
place = "{636, 10}";
type = Stem;
},
{
place = "{656, 56}";
type = Stem;
},
{
horizontal = 1;
place = "{218, 38}";
type = Stem;
},
{
place = "{385, 8}";
type = Stem;
}
);
layerId = "F065C3D4-A6F6-48F7-ABC0-534A710C84EA";
paths = (
{
closed = 1;
nodes = (
"851 14 OFFCURVE",
"847 22 OFFCURVE",
"838 31 CURVE SMOOTH",
"830 40 OFFCURVE",
"826 50 OFFCURVE",
"827 60 CURVE",
"755 105 OFFCURVE",
"716 170 OFFCURVE",
"710 253 CURVE SMOOTH",
"710 256 OFFCURVE",
"711 264 OFFCURVE",
"713 277 CURVE SMOOTH",
"714 288 OFFCURVE",
"713 296 OFFCURVE",
"710 302 CURVE",
"715 299 OFFCURVE",
"719 299 OFFCURVE",
"720 302 CURVE",
"719 307 OFFCURVE",
"708 316 OFFCURVE",
"707 324 CURVE",
"714 328 OFFCURVE",
"718 333 OFFCURVE",
"717 340 CURVE SMOOTH",
"712 377 OFFCURVE",
"709 408 OFFCURVE",
"709 433 CURVE SMOOTH",
"709 459 OFFCURVE",
"712 486 OFFCURVE",
"717 514 CURVE",
"740 519 OFFCURVE",
"764 525 OFFCURVE",
"787 531 CURVE SMOOTH",
"820 540 OFFCURVE",
"841 554 OFFCURVE",
"849 573 CURVE",
"824 583 OFFCURVE",
"799 601 OFFCURVE",
"781 630 CURVE SMOOTH",
"733 708 LINE",
"698 711 OFFCURVE",
"676 695 OFFCURVE",
"666 661 CURVE SMOOTH",
"665 656 OFFCURVE",
"661 626 OFFCURVE",
"656 569 CURVE",
"637 563 OFFCURVE",
"592 551 OFFCURVE",
"520 532 CURVE SMOOTH",
"464 517 OFFCURVE",
"420 504 OFFCURVE",
"388 492 CURVE",
"385 573 OFFCURVE",
"362 638 OFFCURVE",
"320 685 CURVE",
"316 662 OFFCURVE",
"314 637 OFFCURVE",
"314 610 CURVE SMOOTH",
"314 591 OFFCURVE",
"315 563 OFFCURVE",
"318 527 CURVE SMOOTH",
"321 488 OFFCURVE",
"322 460 OFFCURVE",
"323 443 CURVE",
"288 418 OFFCURVE",
"244 377 OFFCURVE",
"191 318 CURVE",
"190 320 OFFCURVE",
"193 326 OFFCURVE",
"199 337 CURVE SMOOTH",
"206 348 OFFCURVE",
"208 356 OFFCURVE",
"207 363 CURVE",
"163 294 OFFCURVE",
"141 234 OFFCURVE",
"141 181 CURVE SMOOTH",
"141 160 OFFCURVE",
"141 145 OFFCURVE",
"158 108 CURVE SMOOTH",
"167 89 OFFCURVE",
"171 74 OFFCURVE",
"172 63 CURVE",
"180 56 OFFCURVE",
"186 48 OFFCURVE",
"191 37 CURVE SMOOTH",
"194 32 OFFCURVE",
"199 27 OFFCURVE",
"206 24 CURVE SMOOTH",
"220 19 OFFCURVE",
"228 15 OFFCURVE",
"230 14 CURVE",
"253 19 OFFCURVE",
"267 18 OFFCURVE",
"272 11 CURVE",
"295 16 OFFCURVE",
"313 24 OFFCURVE",
"326 37 CURVE SMOOTH",
"337 46 OFFCURVE",
"348 62 OFFCURVE",
"359 85 CURVE",
"359 92 OFFCURVE",
"350 85 OFFCURVE",
"349 92 CURVE",
"354 92 OFFCURVE",
"358 91 OFFCURVE",
"362 89 CURVE",
"366 107 OFFCURVE",
"368 115 OFFCURVE",
"368 113 CURVE SMOOTH",
"368 118 OFFCURVE",
"365 122 OFFCURVE",
"359 124 CURVE",
"365 133 OFFCURVE",
"370 147 OFFCURVE",
"373 168 CURVE SMOOTH",
"381 218 LINE",
"384 218 OFFCURVE",
"387 217 OFFCURVE",
"391 214 CURVE",
"390 219 OFFCURVE",
"390 226 OFFCURVE",
"391 234 CURVE SMOOTH",
"392 244 OFFCURVE",
"393 249 OFFCURVE",
"393 250 CURVE SMOOTH",
"393 255 OFFCURVE",
"390 257 OFFCURVE",
"385 256 CURVE",
"391 292 LINE SMOOTH",
"392 300 OFFCURVE",
"391 320 OFFCURVE",
"390 351 CURVE SMOOTH",
"389 377 OFFCURVE",
"389 392 OFFCURVE",
"391 395 CURVE SMOOTH",
"394 401 OFFCURVE",
"408 410 OFFCURVE",
"433 421 CURVE SMOOTH",
"479 442 OFFCURVE",
"548 467 OFFCURVE",
"640 495 CURVE",
"636 470 OFFCURVE",
"638 451 OFFCURVE",
"646 440 CURVE SMOOTH",
"643 444 OFFCURVE",
"641 446 OFFCURVE",
"639 446 CURVE SMOOTH",
"637 446 OFFCURVE",
"636 444 OFFCURVE",
"636 440 CURVE SMOOTH",
"634 361 OFFCURVE",
"642 287 OFFCURVE",
"659 216 CURVE SMOOTH",
"680 127 OFFCURVE",
"714 68 OFFCURVE",
"759 40 CURVE",
"771 39 OFFCURVE",
"787 32 OFFCURVE",
"806 21 CURVE SMOOTH",
"823 11 OFFCURVE",
"839 6 OFFCURVE",
"852 5 CURVE"
);
},
{
closed = 1;
nodes = (
"230 84 OFFCURVE",
"220 102 OFFCURVE",
"220 131 CURVE SMOOTH",
"221 174 OFFCURVE",
"230 217 OFFCURVE",
"247 258 CURVE SMOOTH",
"266 302 OFFCURVE",
"289 332 OFFCURVE",
"317 347 CURVE",
"313 236 OFFCURVE",
"290 146 OFFCURVE",
"249 79 CURVE"
);
},
{
closed = 1;
nodes = (
"714 588 OFFCURVE",
"712 596 OFFCURVE",
"712 606 CURVE SMOOTH",
"712 621 OFFCURVE",
"716 640 OFFCURVE",
"723 663 CURVE",
"742 633 OFFCURVE",
"755 609 OFFCURVE",
"762 592 CURVE",
"748 591 OFFCURVE",
"733 587 OFFCURVE",
"717 582 CURVE"
);
}
);
vertWidth = 1000;
width = 1000;
}
);
note = cid00887;
unicode = 306E;
},
{
glyphname = "ha-hira";
lastChange = "2020-12-04 08:03:05 +0000";
layers = (
{
hints = (
{
horizontal = 1;
place = "{-26, 768}";
type = Stem;
},
{
place = "{428, 85}";
type = Stem;
},
{
place = "{536, 161}";
type = Stem;
}
);
layerId = "F065C3D4-A6F6-48F7-ABC0-534A710C84EA";
paths = (
{
closed = 1;
nodes = (
"509 -27 OFFCURVE",
"526 -26 OFFCURVE",
"545 -21 CURVE SMOOTH",
"565 -16 OFFCURVE",
"579 -14 OFFCURVE",
"586 -14 CURVE SMOOTH",
"592 -14 OFFCURVE",
"598 -15 OFFCURVE",
"604 -17 CURVE",
"603 -10 OFFCURVE",
"604 -7 OFFCURVE",
"607 -6 CURVE",
"617 -8 OFFCURVE",
"632 -3 OFFCURVE",
"651 8 CURVE SMOOTH",
"667 18 OFFCURVE",
"681 29 OFFCURVE",
"692 41 CURVE",
"699 61 OFFCURVE",
"699 77 OFFCURVE",
"692 88 CURVE",
"676 105 OFFCURVE",
"651 118 OFFCURVE",
"616 126 CURVE SMOOTH",
"598 130 OFFCURVE",
"565 135 OFFCURVE",
"516 140 CURVE",
"507 153 OFFCURVE",
"503 167 OFFCURVE",
"503 184 CURVE SMOOTH",
"503 196 OFFCURVE",
"507 215 OFFCURVE",
"513 241 CURVE SMOOTH",
"519 264 OFFCURVE",
"520 281 OFFCURVE",
"519 292 CURVE SMOOTH",
"516 312 OFFCURVE",
"507 330 OFFCURVE",
"491 345 CURVE SMOOTH",
"485 351 OFFCURVE",
"468 364 OFFCURVE",
"441 383 CURVE",
"444 405 OFFCURVE",
"457 429 OFFCURVE",
"478 456 CURVE SMOOTH",
"530 522 LINE",
"581 535 OFFCURVE",
"640 546 OFFCURVE",
"709 556 CURVE",
"720 567 OFFCURVE",
"725 577 OFFCURVE",
"725 588 CURVE SMOOTH",
"725 607 OFFCURVE",
"710 623 OFFCURVE",
"680 638 CURVE SMOOTH",
"655 650 OFFCURVE",
"632 656 OFFCURVE",
"610 657 CURVE",
"608 656 OFFCURVE",
"607 654 OFFCURVE",
"607 651 CURVE SMOOTH",
"607 648 OFFCURVE",
"613 634 OFFCURVE",
"612 627 CURVE",
"590 620 OFFCURVE",
"579 617 OFFCURVE",
"580 617 CURVE SMOOTH",
"577 617 OFFCURVE",
"575 618 OFFCURVE",
"574 619 CURVE",
"589 634 OFFCURVE",
"596 651 OFFCURVE",
"597 670 CURVE SMOOTH",
"598 706 OFFCURVE",
"577 739 OFFCURVE",
"552 742 CURVE SMOOTH",
"538 743 OFFCURVE",
"524 736 OFFCURVE",
"513 718 CURVE SMOOTH",
"484 672 OFFCURVE",
"464 633 OFFCURVE",
"449 604 CURVE",
"428 599 OFFCURVE",
"399 594 OFFCURVE",
"362 592 CURVE SMOOTH",
"334 590 OFFCURVE",
"306 589 OFFCURVE",
"279 587 CURVE",
"290 571 OFFCURVE",
"310 556 OFFCURVE",
"339 541 CURVE",
"360 533 OFFCURVE",
"380 525 OFFCURVE",
"400 516 CURVE",
"381 464 OFFCURVE",
"368 423 OFFCURVE",
"360 394 CURVE",
"377 341 OFFCURVE",
"402 313 OFFCURVE",
"435 312 CURVE",
"430 290 OFFCURVE",
"428 268 OFFCURVE",
"428 245 CURVE SMOOTH",
"428 200 OFFCURVE",
"437 161 OFFCURVE",
"455 130 CURVE SMOOTH",
"474 95 OFFCURVE",
"501 75 OFFCURVE",
"536 68 CURVE",
"535 58 OFFCURVE",
"533 51 OFFCURVE",
"530 48 CURVE",
"511 43 OFFCURVE",
"487 30 OFFCURVE",
"458 9 CURVE SMOOTH",
"446 0 OFFCURVE",
"434 -9 OFFCURVE",
"421 -20 CURVE",
"434 -18 OFFCURVE",
"448 -17 OFFCURVE",
"464 -20 CURVE SMOOTH",
"496 -26 LINE"
);
}
);
vertWidth = 1000;
width = 1000;
}
);
note = cid00888;
unicode = 306F;
},
{
glyphname = "ba-hira";
lastChange = "2020-12-04 08:03:05 +0000";
layers = (
{
hints = (
{
horizontal = 1;
place = "{331, 112}";
type = Stem;
},
{
place = "{428, 85}";
type = Stem;
},
{
place = "{536, 161}";
type = Stem;
}
);
layerId = "F065C3D4-A6F6-48F7-ABC0-534A710C84EA";
paths = (
{
closed = 1;
nodes = (
"509 -27 OFFCURVE",
"526 -26 OFFCURVE",
"545 -21 CURVE SMOOTH",
"565 -16 OFFCURVE",
"579 -14 OFFCURVE",
"586 -14 CURVE SMOOTH",
"592 -14 OFFCURVE",
"598 -15 OFFCURVE",
"604 -17 CURVE",
"603 -10 OFFCURVE",
"604 -7 OFFCURVE",
"607 -6 CURVE",
"617 -8 OFFCURVE",
"632 -3 OFFCURVE",
"651 8 CURVE SMOOTH",
"667 18 OFFCURVE",
"681 29 OFFCURVE",
"692 41 CURVE",
"699 61 OFFCURVE",
"699 77 OFFCURVE",
"692 88 CURVE",
"676 105 OFFCURVE",
"651 118 OFFCURVE",
"616 126 CURVE SMOOTH",
"598 130 OFFCURVE",
"565 135 OFFCURVE",
"516 140 CURVE",
"507 153 OFFCURVE",
"503 167 OFFCURVE",
"503 184 CURVE SMOOTH",
"503 196 OFFCURVE",
"507 215 OFFCURVE",
"513 241 CURVE SMOOTH",
"519 264 OFFCURVE",
"520 281 OFFCURVE",
"519 292 CURVE SMOOTH",
"516 312 OFFCURVE",
"507 330 OFFCURVE",
"491 345 CURVE SMOOTH",
"485 351 OFFCURVE",
"468 364 OFFCURVE",
"441 383 CURVE",
"444 405 OFFCURVE",
"457 429 OFFCURVE",
"478 456 CURVE SMOOTH",
"530 522 LINE",
"581 535 OFFCURVE",
"640 546 OFFCURVE",
"709 556 CURVE",
"720 567 OFFCURVE",
"725 577 OFFCURVE",
"725 588 CURVE SMOOTH",
"725 607 OFFCURVE",
"710 623 OFFCURVE",
"680 638 CURVE SMOOTH",
"655 650 OFFCURVE",
"632 656 OFFCURVE",
"610 657 CURVE",
"608 656 OFFCURVE",
"607 654 OFFCURVE",
"607 651 CURVE SMOOTH",
"607 648 OFFCURVE",
"613 634 OFFCURVE",
"612 627 CURVE",
"590 620 OFFCURVE",
"579 617 OFFCURVE",
"580 617 CURVE SMOOTH",
"577 617 OFFCURVE",
"575 618 OFFCURVE",
"574 619 CURVE",
"589 634 OFFCURVE",
"596 651 OFFCURVE",
"597 670 CURVE SMOOTH",
"598 706 OFFCURVE",
"577 739 OFFCURVE",
"552 742 CURVE SMOOTH",
"538 743 OFFCURVE",
"524 736 OFFCURVE",
"513 718 CURVE SMOOTH",
"484 672 OFFCURVE",
"464 633 OFFCURVE",
"449 604 CURVE",
"428 599 OFFCURVE",
"399 594 OFFCURVE",
"362 592 CURVE SMOOTH",
"334 590 OFFCURVE",
"306 589 OFFCURVE",
"279 587 CURVE",
"290 571 OFFCURVE",
"310 556 OFFCURVE",
"339 541 CURVE",
"360 533 OFFCURVE",
"380 525 OFFCURVE",
"400 516 CURVE",
"381 464 OFFCURVE",
"368 423 OFFCURVE",
"360 394 CURVE",
"377 341 OFFCURVE",
"402 313 OFFCURVE",
"435 312 CURVE",
"430 290 OFFCURVE",
"428 268 OFFCURVE",
"428 245 CURVE SMOOTH",
"428 200 OFFCURVE",
"437 161 OFFCURVE",
"455 130 CURVE SMOOTH",
"474 95 OFFCURVE",
"501 75 OFFCURVE",
"536 68 CURVE",
"535 58 OFFCURVE",
"533 51 OFFCURVE",
"530 48 CURVE",
"511 43 OFFCURVE",
"487 30 OFFCURVE",
"458 9 CURVE SMOOTH",
"446 0 OFFCURVE",
"434 -9 OFFCURVE",
"421 -20 CURVE",
"434 -18 OFFCURVE",
"448 -17 OFFCURVE",
"464 -20 CURVE SMOOTH",
"496 -26 LINE"
);
},
{
closed = 1;
nodes = (
"702 328 OFFCURVE",
"728 324 OFFCURVE",
"753 351 CURVE",
"742 415 OFFCURVE",
"680 457 OFFCURVE",
"615 439 CURVE",
"624 412 OFFCURVE",
"649 367 OFFCURVE",
"679 345 CURVE SMOOTH"
);
},
{
closed = 1;
nodes = (
"863 486 OFFCURVE",
"777 503 OFFCURVE",
"725 493 CURVE",
"742 473 OFFCURVE",
"763 435 OFFCURVE",
"788 411 CURVE SMOOTH",
"811 390 OFFCURVE",
"837 381 OFFCURVE",
"869 408 CURVE"
);
}
);
vertWidth = 1000;
width = 1000;
}
);
note = cid00889;
unicode = 3070;
},
